<svg width="24" height="24" viewBox="0 0 24 24" fill="none" xmlns="http://www.w3.org/2000/svg">
<path d="M16.5911 6.79651C16.6619 6.67507 16.6793 6.53249 16.6393 6.39925C16.5994 6.266 16.5054 6.15266 16.3774 6.08345C16.2494 6.01424 16.0976 5.99465 15.9543 6.02886C15.8111 6.06307 15.6878 6.14837 15.6109 6.26654L11.2189 13.3882C11.148 13.5097 11.1307 13.6523 11.1706 13.7855C11.2105 13.9187 11.3045 14.0321 11.4325 14.1013C11.5605 14.1705 11.7124 14.1901 11.8556 14.1559C11.9989 14.1217 12.1221 14.0364 12.1991 13.9182L16.5911 6.79651ZM5.80053 10.0907C5.72965 10.2122 5.71232 10.3547 5.75224 10.488C5.79216 10.6212 5.88617 10.7346 6.01418 10.8038C6.14218 10.873 6.29403 10.8926 6.43726 10.8584C6.5805 10.8242 6.70375 10.7389 6.78069 10.6207L11.0019 3.77547C11.0711 3.65415 11.0873 3.51238 11.0469 3.38013C11.0065 3.24788 10.9127 3.13552 10.7855 3.06678C10.6582 2.99804 10.5074 2.97831 10.3649 3.01177C10.2224 3.04522 10.0993 3.12923 10.0218 3.24605L5.80053 10.0907Z" fill="#01875F"/>
<path d="M19.178 4.76024L10.6189 0.122781C10.4938 0.0549709 10.3336 0.0949794 10.2612 0.212142L8.92632 2.37129C8.85389 2.48846 8.89662 2.63841 9.02177 2.70622L17.5808 7.34368C17.706 7.41149 17.8661 7.37148 17.9386 7.25432L19.2734 5.09516C19.3459 4.978 19.3031 4.82805 19.178 4.76024Z" fill="#01875F"/>
<path d="M7.27185 8.95142L9.10468 9.94237L8.65729 10.6705L6.82446 9.67957L7.27185 8.95142ZM8.15201 7.52631L9.30703 8.15044L8.85671 8.87915L7.70169 8.25501L8.15201 7.52631ZM9.02924 6.10229L10.8615 7.0927L10.4147 7.82086L8.58185 6.83045L9.02924 6.10229Z" fill="#01875F"/>
<path fill-rule="evenodd" clip-rule="evenodd" d="M7.07416 22.2274L12.1989 13.9176C11.4691 13.5235 10.9094 12.8522 10.1796 12.4575C9.4497 12.0633 8.54908 11.9456 7.81922 11.5509C7.08936 11.1561 6.53028 10.4849 5.80042 10.0907L0.505456 18.6764C-0.537863 20.3681 0.0867249 22.5504 1.89324 23.5271C3.70033 24.5033 6.03142 23.9186 7.07474 22.2274H7.07416ZM21.9496 6.07654C20.6742 7.51369 20.0858 8.69243 19.9379 9.6133C19.67 11.2848 20.8549 12.1055 22.0128 12.0748C23.1222 12.0452 24.2071 11.2339 23.9661 9.64177C23.8258 8.71652 23.2386 7.52847 21.9496 6.07654Z" fill="#01875F"/>
</svg>
