<svg width="24" height="25" viewBox="0 0 24 25" fill="none" xmlns="http://www.w3.org/2000/svg">
<path d="M11.2421 15.8896L7.09807 14.7785C6.98773 14.7496 6.87045 14.7654 6.77167 14.8224C6.67289 14.8795 6.60057 14.9731 6.57042 15.0831L5.90549 17.5669C5.74998 18.1546 5.80667 18.7784 6.0656 19.3284C6.32453 19.8784 6.7691 20.3195 7.32114 20.5741L6.75488 22.6804L5.72103 22.4059C5.6127 22.3807 5.4988 22.3985 5.40337 22.4556C5.30793 22.5127 5.23841 22.6047 5.20947 22.7121C5.18054 22.8195 5.19445 22.9339 5.24827 23.0313C5.30209 23.1286 5.39161 23.2012 5.49795 23.2338L8.39789 24.0103C8.50821 24.0389 8.62533 24.0229 8.72403 23.966C8.82272 23.909 8.89509 23.8155 8.92554 23.7057C8.9541 23.5959 8.9381 23.4793 8.88105 23.3813C8.824 23.2833 8.73051 23.2118 8.62096 23.1824L7.58711 22.9035L8.14908 20.7972C8.75449 20.854 9.36046 20.6948 9.85979 20.3478C10.3591 20.0008 10.7196 19.4883 10.8774 18.9011C10.8731 18.8904 11.5423 16.413 11.5423 16.413C11.5574 16.3589 11.5615 16.3024 11.5545 16.2467C11.5475 16.191 11.5296 16.1372 11.5016 16.0885C11.4737 16.0398 11.4364 15.9972 11.3918 15.963C11.3472 15.9289 11.2963 15.9039 11.2421 15.8896ZM10.4527 17.168H6.90073L7.29111 15.718L10.6029 16.606L10.4527 17.168ZM18.256 22.4059L17.2221 22.6804L16.6558 20.5741C17.1427 20.3541 17.548 19.9864 17.8141 19.5231C17.9834 19.23 18.0933 18.9063 18.1375 18.5706C18.1816 18.235 18.1592 17.8939 18.0715 17.5669L17.4066 15.0831C17.3764 14.9731 17.3041 14.8795 17.2053 14.8224C17.1065 14.7654 16.9893 14.7496 16.8789 14.7785L12.7349 15.8896C12.6806 15.9039 12.6297 15.9289 12.5852 15.963C12.5406 15.9972 12.5033 16.0398 12.4754 16.0885C12.4474 16.1372 12.4294 16.191 12.4224 16.2467C12.4155 16.3024 12.4196 16.3589 12.4346 16.413L13.0996 18.9011C13.2574 19.4883 13.6179 20.0008 14.1172 20.3478C14.6165 20.6948 15.2225 20.854 15.8279 20.7972L16.3899 22.9035L15.356 23.1824C15.2465 23.2118 15.153 23.2833 15.0959 23.3813C15.0389 23.4793 15.0229 23.5959 15.0514 23.7057C15.082 23.8155 15.1544 23.9089 15.253 23.9658C15.3517 24.0228 15.4688 24.0387 15.5791 24.0103L18.479 23.2338C18.5351 23.2208 18.588 23.1966 18.6345 23.1626C18.681 23.1287 18.7202 23.0858 18.7498 23.0364C18.7793 22.987 18.7987 22.9321 18.8066 22.8751C18.8145 22.8181 18.8109 22.76 18.7959 22.7044C18.7809 22.6488 18.7549 22.5968 18.7194 22.5515C18.6839 22.5062 18.6397 22.4685 18.5893 22.4406C18.5389 22.4128 18.4834 22.3953 18.4261 22.3894C18.3689 22.3834 18.311 22.389 18.256 22.4059ZM13.5243 17.1637L13.3741 16.606L16.6859 15.718L17.0763 17.1637H13.5243Z" fill="#01875F"/>
<path d="M11.9885 1.06494e-06C0.327854 0.0763604 -4.36867 14.9484 4.93172 21.7238C5.11426 21.6165 5.31887 21.5522 5.52998 21.5359C5.74109 21.5195 5.95315 21.5515 6.15004 21.6294L6.32163 20.9774C5.77549 20.562 5.36575 19.9931 5.14488 19.3435C4.92402 18.6939 4.90207 17.9931 5.08186 17.331L5.7425 14.86C5.83275 14.5292 6.05054 14.2476 6.34809 14.0771C6.64565 13.9067 6.99868 13.8611 7.32974 13.9506L11.4652 15.0617C11.6602 15.1141 11.8397 15.2127 11.9885 15.3491C12.1384 15.2117 12.3195 15.113 12.5162 15.0617L16.6559 13.9506C16.8204 13.907 16.9919 13.8963 17.1605 13.919C17.3292 13.9418 17.4917 13.9976 17.6387 14.0833C17.7858 14.169 17.9144 14.2828 18.0174 14.4183C18.1204 14.5538 18.1956 14.7083 18.2388 14.8729L18.8995 17.3439C19.0756 18.005 19.0509 18.7036 18.8286 19.3507C18.6062 19.9978 18.1964 20.564 17.6511 20.9774L17.827 21.6294C18.0242 21.5529 18.236 21.5217 18.4469 21.5381C18.6578 21.5544 18.8623 21.6179 19.0453 21.7238C21.0982 20.234 22.6266 18.1323 23.4112 15.7202C24.1958 13.3081 24.1963 10.7095 23.4126 8.29704C22.629 5.88461 21.1014 3.78235 19.0491 2.29179C16.9967 0.801219 14.525 -0.00106695 11.9885 1.06494e-06ZM11.9885 13.7275C11.6087 13.7258 11.2401 13.5987 10.9399 13.366C10.6397 13.1333 10.4247 12.808 10.3283 12.4406H5.55375C5.43997 12.4406 5.33086 12.3954 5.25041 12.3149C5.16996 12.2345 5.12476 12.1253 5.12476 12.0116C5.12476 11.8978 5.16996 11.7887 5.25041 11.7082C5.33086 11.6278 5.43997 11.5826 5.55375 11.5826H10.3283C10.4055 11.2864 10.5602 11.0161 10.7767 10.7997C10.9931 10.5833 11.2633 10.4285 11.5595 10.3514V3.43188C11.5595 3.31811 11.6047 3.20899 11.6852 3.12854C11.7656 3.04809 11.8747 3.00289 11.9885 3.00289C12.1023 3.00289 12.2114 3.04809 12.2919 3.12854C12.3723 3.20899 12.4175 3.31811 12.4175 3.43188V10.3514C12.8182 10.4593 13.1663 10.7087 13.3974 11.0534C13.6285 11.3981 13.727 11.8148 13.6747 12.2265C13.6224 12.6382 13.4228 13.017 13.1129 13.2929C12.8029 13.5688 12.4035 13.7232 11.9885 13.7275Z" fill="#01875F"/>
<path d="M11.9885 12.8712C12.4623 12.8712 12.8464 12.4871 12.8464 12.0132C12.8464 11.5394 12.4623 11.1553 11.9885 11.1553C11.5146 11.1553 11.1305 11.5394 11.1305 12.0132C11.1305 12.4871 11.5146 12.8712 11.9885 12.8712Z" fill="#01875F"/>
</svg>
