<svg width="18" height="22" viewBox="0 0 18 22" fill="none" xmlns="http://www.w3.org/2000/svg">
<path d="M11.8428 3.42788C12.5806 2.50512 13.0812 1.26611 12.9492 0C11.8692 0.0537004 10.5513 0.712489 9.78834 1.63598C9.10325 2.42681 8.49689 3.71769 8.65497 4.93073C9.86729 5.03588 11.0785 4.32476 11.8428 3.42788Z" fill="black"/>
<path d="M12.9356 5.16756C11.175 5.06269 9.67811 6.16677 8.83735 6.16677C7.99612 6.16677 6.70863 5.22041 5.31611 5.24592C3.50366 5.27254 1.82192 6.29731 0.902174 7.92718C-0.98958 11.1877 0.402941 16.0243 2.24257 18.6798C3.13594 19.9936 4.21259 21.4401 5.63126 21.3882C6.97166 21.3356 7.49704 20.5202 9.12635 20.5202C10.7545 20.5202 11.2277 21.3882 12.6466 21.3619C14.118 21.3356 15.0379 20.0474 15.9313 18.7324C16.9562 17.2348 17.3757 15.7887 17.4021 15.7093C17.3757 15.683 14.5648 14.6046 14.5387 11.3712C14.5122 8.66378 16.7456 7.37599 16.8507 7.29612C15.5895 5.43074 13.6188 5.22041 12.9356 5.16756Z" fill="black"/>
</svg>
