<svg width="24" height="24" viewBox="0 0 24 24" fill="none" xmlns="http://www.w3.org/2000/svg">
<path d="M13.7144 13.7143H10.2858C9.33905 13.7143 8.57153 14.4818 8.57153 15.4286V22.2857C8.57153 23.2325 9.33905 24 10.2858 24H13.7144C14.6612 24 15.4287 23.2325 15.4287 22.2857V15.4286C15.4287 14.4818 14.6612 13.7143 13.7144 13.7143Z" fill="#01875F"/>
<path d="M5.14286 16.2857H1.71429C0.767512 16.2857 0 17.0532 0 18V22.2857C0 23.2325 0.767512 24 1.71429 24H5.14286C6.08963 24 6.85714 23.2325 6.85714 22.2857V18C6.85714 17.0532 6.08963 16.2857 5.14286 16.2857Z" fill="#01875F"/>
<path d="M22.2857 9.42857H18.8571C17.9103 9.42857 17.1428 10.1961 17.1428 11.1429V22.2857C17.1428 23.2325 17.9103 24 18.8571 24H22.2857C23.2325 24 24 23.2325 24 22.2857V11.1429C24 10.1961 23.2325 9.42857 22.2857 9.42857Z" fill="#01875F"/>
<path d="M3.42851 12.8571C3.49991 12.8571 3.57102 12.8482 3.64022 12.8306C6.70817 12.049 9.66003 10.8674 12.4199 9.31629C15.4245 7.61845 18.1696 5.49795 20.5714 3.01971V5.14286C20.5714 5.37019 20.6617 5.5882 20.8224 5.74895C20.9832 5.90969 21.2012 6 21.4285 6C21.6558 6 21.8739 5.90969 22.0346 5.74895C22.1953 5.5882 22.2857 5.37019 22.2857 5.14286V0.857143C22.2857 0.629814 22.1953 0.411797 22.0346 0.251051C21.8739 0.0903058 21.6558 0 21.4285 0H17.1428C16.9155 0 16.6974 0.0903058 16.5367 0.251051C16.376 0.411797 16.2857 0.629814 16.2857 0.857143C16.2857 1.08447 16.376 1.30249 16.5367 1.46323C16.6974 1.62398 16.9155 1.71429 17.1428 1.71429H19.4365C17.1285 4.12191 14.4818 6.18013 11.5799 7.824C8.95085 9.30015 6.13902 10.4241 3.21679 11.1669C3.01198 11.2163 2.83255 11.3395 2.71277 11.5128C2.59299 11.6861 2.54125 11.8975 2.56744 12.1066C2.59363 12.3157 2.6959 12.5078 2.85473 12.6462C3.01356 12.7846 3.21782 12.8597 3.42851 12.8571Z" fill="#01875F"/>
</svg>
