<svg width="24" height="25" viewBox="0 0 24 25" fill="none" xmlns="http://www.w3.org/2000/svg">
<path d="M23.9999 0.682315C18.1499 6.35074 23.8619 26.5365 5.37858 20.1847C6.79096 15.5491 9.69711 10.8047 12.7468 7.19396C8.78352 10.2248 4.70075 14.5271 2.37478 19.0083C2.32333 18.9865 2.26899 18.9648 2.21753 18.9403C-5.30536 6.26962 10.3532 -2.5848 23.9999 0.682315Z" fill="#01875F"/>
<path d="M0.542943 24.9398C0.465269 24.9398 0.38849 24.9232 0.317798 24.891C0.247105 24.8588 0.184146 24.8118 0.133175 24.7532C0.0822048 24.6946 0.0444111 24.6257 0.0223491 24.5512C0.00028697 24.4768 -0.00552941 24.3984 0.00529311 24.3215C0.254954 22.5608 0.890262 20.689 1.89363 18.7584C4.05263 14.5987 7.88889 10.2268 12.4174 6.7631C12.474 6.71985 12.5385 6.68817 12.6073 6.66985C12.6761 6.65154 12.7479 6.64696 12.8184 6.65637C12.889 6.66578 12.957 6.689 13.0186 6.7247C13.0802 6.7604 13.1342 6.80788 13.1774 6.86444C13.2207 6.92099 13.2524 6.98551 13.2707 7.05432C13.289 7.12312 13.2936 7.19485 13.2842 7.26543C13.2748 7.336 13.2516 7.40403 13.2158 7.46563C13.1801 7.52723 13.1327 7.5812 13.0761 7.62444C8.66938 10.9945 4.94442 15.2353 2.85631 19.2585C1.90938 21.0804 1.31161 22.8351 1.07928 24.4738C1.0609 24.603 0.996547 24.7212 0.898033 24.8068C0.799518 24.8924 0.673445 24.9396 0.542943 24.9398Z" fill="#01875F"/>
</svg>
