<svg width="24" height="24" viewBox="0 0 24 24" fill="none" xmlns="http://www.w3.org/2000/svg">
<path d="M12 15.5C13.3807 15.5 14.5 14.3807 14.5 13C14.5 11.6193 13.3807 10.5 12 10.5C10.6193 10.5 9.5 11.6193 9.5 13C9.5 14.3807 10.6193 15.5 12 15.5Z" fill="#60635E"/>
<path fill-rule="evenodd" clip-rule="evenodd" d="M16.4806 6.1958C16.4924 6.44923 16.6869 6.65945 16.9387 6.69094C20.5821 7.14671 21 8.63107 21 13.25C21 19.4377 20.25 20 12 20C3.75 20 3 19.4377 3 13.25C3 8.63107 3.41791 7.14671 7.06133 6.69094C7.31307 6.65945 7.50765 6.44923 7.51944 6.1958C7.6335 3.74547 8.34336 3.5 12 3.5C15.6566 3.5 16.3665 3.74547 16.4806 6.1958ZM12 17C14.2092 17 16 15.2092 16 13C16 10.7908 14.2092 9 12 9C9.79083 9 8 10.7908 8 13C8 15.2092 9.79083 17 12 17ZM18.5 10C18.5 10.5523 18.0523 11 17.5 11C16.9477 11 16.5 10.5523 16.5 10C16.5 9.44771 16.9477 9 17.5 9C18.0523 9 18.5 9.44771 18.5 10Z" fill="#60635E"/>
</svg>
