<svg width="20" height="19" viewBox="0 0 20 19" fill="none" xmlns="http://www.w3.org/2000/svg">
<path d="M17.9972 3.72215C16.1452 1.35668 13.3291 0 10.271 0C8.12103 0 6.08227 0.675379 4.375 1.95322C3.75796 2.41565 3.19965 2.94852 2.71194 3.5405L2.27814 1.13793C2.23064 0.87519 1.97412 0.699469 1.70567 0.746169L0.408222 0.970071C0.344315 0.981069 0.283251 1.00427 0.228522 1.03836C0.173792 1.07245 0.126469 1.11674 0.0892592 1.16872C0.052049 1.2207 0.0256809 1.27934 0.011662 1.34129C-0.00235682 1.40324 -0.00375142 1.46729 0.00755792 1.52976L1.03827 7.23869C1.06111 7.36484 1.13424 7.47696 1.24158 7.55042C1.34893 7.62388 1.4817 7.65266 1.61074 7.63045L7.44941 6.62264C7.57845 6.60036 7.69315 6.52888 7.76829 6.42392C7.84343 6.31896 7.87285 6.18912 7.85008 6.06295L7.62102 4.79432C7.59824 4.66815 7.52514 4.55599 7.4178 4.48253C7.31045 4.40906 7.17766 4.38029 7.04862 4.40255L4.61559 4.82253C4.96175 4.423 5.35101 4.06118 5.7766 3.74334C7.07846 2.76895 8.63309 2.25397 10.2725 2.25397C12.6058 2.25397 14.754 3.28864 16.1665 5.09262C17.3698 6.62953 17.8889 8.5327 17.6283 10.4515C17.3676 12.3703 16.3584 14.075 14.7865 15.2515C13.4809 16.2287 11.9287 16.7453 10.2977 16.7453C9.96595 16.7451 9.6346 16.7236 9.30576 16.6809C7.34342 16.4261 5.59998 15.4393 4.39668 13.9023C3.66426 12.9668 3.17202 11.863 2.97314 10.7102C2.95131 10.5839 2.87906 10.4712 2.77228 10.3969C2.66549 10.3227 2.53292 10.2929 2.4037 10.3142L1.10454 10.5285C0.975338 10.5498 0.860088 10.6205 0.784137 10.7249C0.708185 10.8293 0.677752 10.9589 0.69953 11.0852C0.9606 12.5986 1.60593 14.0466 2.56582 15.2727C4.14345 17.2878 6.42931 18.5816 9.00213 18.9157C9.43254 18.9717 9.86625 18.9998 10.3004 19C12.4405 19 14.4764 18.3228 16.1878 17.0417C18.2488 15.4991 19.572 13.264 19.9137 10.7483C20.2556 8.23253 19.5749 5.73727 17.9972 3.72215Z" fill="white"/>
</svg>
