<svg width="24" height="23" viewBox="0 0 24 23" fill="none" xmlns="http://www.w3.org/2000/svg">
<path d="M15.0624 3.62609L14.7424 4.14182C14.3137 4.11574 13.8843 4.17784 13.4805 4.3243C13.5263 4.03045 13.5495 3.74945 13.5495 3.54727C13.5495 2.58648 13.1314 1.68395 12.4276 1.08169V0.42503C12.4276 -0.141248 11.5709 -0.142105 11.5709 0.42503V1.08212C10.8672 1.68438 10.4491 2.58691 10.4491 3.5477C10.4491 3.67621 10.4572 3.80428 10.4714 3.9315C10.0809 3.79517 9.66726 3.73766 9.25441 3.7623L8.93615 3.24914C8.63844 2.76682 7.90939 3.21916 8.20838 3.70062L8.59304 4.32087C8.52321 5.06088 8.71033 5.80237 9.12291 6.42064C9.07108 6.42578 9.01968 6.42793 8.96785 6.43564C8.87757 6.44924 8.79402 6.49138 8.72943 6.55589C8.66484 6.62041 8.6226 6.70391 8.60889 6.79416C8.48724 7.58833 8.67999 8.40048 9.12205 9.06699C9.06894 9.07256 9.01539 9.07513 8.96313 9.0837C8.87389 9.09829 8.79156 9.14075 8.72793 9.205C8.66429 9.26925 8.62262 9.35199 8.60889 9.44137C8.48767 10.2342 8.67957 11.0455 9.12248 11.7138C9.06937 11.7193 9.01539 11.7219 8.96271 11.7305C8.87346 11.7451 8.79113 11.7875 8.7275 11.8518C8.66386 11.916 8.6222 11.9988 8.60846 12.0881C8.48724 12.881 8.68042 13.6919 9.12505 14.3605C9.07108 14.3661 9.01625 14.3687 8.96271 14.3777C8.87346 14.3923 8.79113 14.4347 8.7275 14.499C8.66386 14.5632 8.6222 14.646 8.60846 14.7353C8.46239 15.6901 8.88303 16.854 9.65492 17.6318C9.89522 17.8743 10.6701 18.5913 11.5705 18.7905V21.8425C11.5705 22.4088 12.4272 22.4097 12.4272 21.8425V18.8261C13.0911 18.752 13.9037 18.4573 14.4739 17.8824C15.2003 17.1504 15.5426 16.1151 15.3892 15.1127C15.3757 15.0232 15.3341 14.9403 15.2703 14.876C15.2066 14.8117 15.124 14.7693 15.0346 14.755C14.9823 14.7465 14.9288 14.7443 14.8756 14.7383C15.3181 14.0705 15.5105 13.2588 15.3892 12.4651C15.3757 12.3755 15.3341 12.2926 15.2703 12.2283C15.2066 12.164 15.124 12.1217 15.0346 12.1074C14.9823 12.0988 14.9288 12.0967 14.8761 12.0907C15.3186 11.4229 15.5109 10.6116 15.3892 9.81789C15.3755 9.72751 15.3331 9.64392 15.2684 9.57939C15.2036 9.51486 15.1199 9.47279 15.0294 9.45936C14.978 9.45165 14.927 9.44951 14.8756 9.44437C15.3181 8.777 15.5105 7.96699 15.3892 7.1754C15.3756 7.08585 15.334 7.00294 15.2702 6.93859C15.2065 6.87424 15.124 6.83177 15.0346 6.8173C14.981 6.80873 14.927 6.80616 14.8735 6.80059C15.2872 6.18182 15.4748 5.43927 15.4047 4.69825L15.7893 4.078C16.0883 3.59696 15.3618 3.14334 15.0624 3.62609ZM13.5846 14.8763C12.9888 15.0656 12.5416 15.3813 12.1466 15.8302C11.742 15.1995 11.1304 14.7293 10.417 14.5002C9.74787 13.9844 9.4249 13.2738 9.42961 12.5486C10.5429 12.5692 11.3683 13.2725 11.6767 14.1575C11.7984 14.5075 12.2914 14.5413 12.4619 14.2132C12.9181 13.3295 13.878 12.887 14.5698 12.9256C14.5712 13.3054 14.4826 13.6802 14.3114 14.0192C14.1402 14.3582 13.8911 14.6519 13.5846 14.8763ZM13.576 12.2338C12.9849 12.4274 12.548 12.7272 12.1466 13.183C11.7427 12.5514 11.1307 12.081 10.4165 11.853C10.1096 11.6287 9.86012 11.335 9.68857 10.9958C9.51703 10.6566 9.42829 10.2815 9.42961 9.90141C10.5377 9.9254 11.3649 10.6155 11.6767 11.5103C11.7954 11.8521 12.2901 11.8967 12.4619 11.566C12.6641 11.1811 12.9669 10.8583 13.3381 10.632C13.7094 10.4056 14.135 10.2843 14.5698 10.2809C14.5745 11.0691 14.1727 11.8157 13.576 12.2338ZM13.5807 9.58572C12.9768 9.78276 12.5471 10.0873 12.1483 10.5379C11.7462 9.90721 11.1359 9.43723 10.4234 9.20963C9.83054 8.79156 9.42447 8.05394 9.43004 7.25635C10.4988 7.25935 11.3653 7.96741 11.6772 8.86309C11.795 9.20235 12.2897 9.24904 12.4606 8.92178C12.88 8.12548 13.7452 7.62088 14.5698 7.63502C14.5707 8.01517 14.4816 8.39013 14.3096 8.7292C14.1377 9.06826 13.8879 9.36178 13.5807 9.58572ZM11.9997 1.84415C12.8594 2.70085 12.8213 4.08657 12.4388 4.94755C12.1856 5.172 12.2953 5.07648 12.1415 5.25168C11.9175 4.90471 11.7234 4.69868 11.505 4.52005C11.1105 3.60039 11.3169 2.52437 11.9997 1.84415ZM11.675 6.21504C11.7958 6.57528 12.2918 6.60483 12.4619 6.27629C12.8526 5.51982 13.6578 4.9891 14.5514 4.9891H14.5694C14.5745 5.71344 14.2434 6.44806 13.5747 6.94409C13.0569 7.11114 12.5741 7.40542 12.1475 7.89288C11.7449 7.26396 11.1364 6.79442 10.4259 6.56457C9.8601 6.1782 9.42447 5.43073 9.42961 4.61172C10.4054 4.58388 11.3683 5.29537 11.675 6.21504ZM13.8665 17.2789C13.119 18.0319 11.9706 17.9942 12.0151 17.9891C11.9723 17.972 11.2497 18.0229 10.264 17.0287C9.77272 16.5336 9.45916 15.8204 9.43775 15.1958C10.351 15.192 11.3221 15.7874 11.6767 16.8047C11.792 17.1367 12.2837 17.2035 12.4619 16.8604C12.8607 16.0868 13.6853 15.5698 14.5694 15.5728C14.5701 15.8894 14.5084 16.2031 14.3878 16.4958C14.2672 16.7886 14.09 17.0547 13.8665 17.2789ZM23.2011 8.33794L22.8811 8.85367C22.4524 8.82759 22.0229 8.88969 21.6192 9.03615C21.665 8.74273 21.6881 8.46173 21.6881 8.25998C21.6881 7.29876 21.2701 6.39623 20.5663 5.79397V5.13688C20.5663 4.57017 19.7096 4.56974 19.7096 5.13688V5.79397C19.0058 6.39623 18.5877 7.29919 18.5877 8.25998C18.5877 8.38848 18.5954 8.51656 18.61 8.64335C18.2197 8.50702 17.8062 8.44951 17.3935 8.47415L17.0752 7.96099C16.7767 7.47952 16.0485 7.93101 16.3475 8.4129L16.7321 9.03272C16.6568 9.83227 16.8809 10.6313 17.3609 11.2751C17.2743 11.2804 17.188 11.2894 17.1022 11.3021C17.0129 11.3167 16.9306 11.3591 16.8669 11.4234C16.8033 11.4876 16.7616 11.5704 16.748 11.6598C16.6263 12.4527 16.8195 13.2635 17.2646 13.9322C17.2106 13.9378 17.1558 13.9403 17.1026 13.9489C17.0134 13.9634 16.931 14.0059 16.8674 14.0701C16.8037 14.1344 16.7621 14.2172 16.7484 14.3066C16.6023 15.2614 17.023 16.4252 17.7949 17.2031C18.0352 17.4455 18.81 18.1626 19.7104 18.3618V21.8425C19.7104 22.4092 20.5671 22.4097 20.5671 21.8425V18.3977C21.2311 18.3236 22.0437 18.0289 22.6138 17.4541C23.3403 16.722 23.6825 15.6867 23.5292 14.6844C23.5157 14.5948 23.474 14.5119 23.4103 14.4476C23.3465 14.3833 23.2639 14.341 23.1745 14.3267C23.1222 14.3181 23.0687 14.316 23.016 14.31C23.4585 13.6422 23.6508 12.8309 23.5296 12.0372C23.5161 11.9476 23.4744 11.8647 23.4107 11.8004C23.3469 11.7361 23.2644 11.6938 23.1749 11.6795C23.0893 11.6667 23.0031 11.6579 22.9166 11.6529C23.3965 11.0091 23.6205 10.21 23.545 9.41053L23.9297 8.79027C24.2278 8.30795 23.5 7.85604 23.2011 8.33794ZM21.7232 14.4479C21.1274 14.6372 20.6802 14.9529 20.2857 15.4019C19.8809 14.7711 19.2692 14.3009 18.5556 14.0718C17.8831 13.5522 17.5635 12.8412 17.5691 12.1203C18.4725 12.0989 19.4594 12.7067 19.8158 13.7291C19.94 14.0864 20.4369 14.1031 20.601 13.7848C21.0559 12.9037 22.0205 12.4557 22.7089 12.4972C22.7101 12.8771 22.6214 13.2518 22.4501 13.5908C22.2788 13.9298 22.0297 14.2235 21.7232 14.4479ZM20.1384 6.556C20.577 6.99335 20.8319 7.60889 20.8319 8.25998C20.8319 8.66991 20.7282 9.32057 20.577 9.6594C20.3247 9.88342 20.4352 9.78619 20.2801 9.96353C20.0561 9.61656 19.8621 9.41053 19.6436 9.23148C19.5123 8.92443 19.4447 8.59393 19.4449 8.25998C19.4449 7.60889 19.6997 6.99335 20.1384 6.556ZM19.8137 10.9273C19.934 11.2884 20.4313 11.3163 20.6005 10.9886C20.9993 10.2163 21.8119 9.70095 22.69 9.70095H22.708C22.7132 10.424 22.3808 11.1655 21.7048 11.6636C21.6226 11.7131 21.5595 11.7889 21.5258 11.8787C20.9227 12.1198 20.5997 12.3978 20.2853 12.7555C19.9229 12.1931 19.4204 11.7656 18.7445 11.5C18.7151 11.4171 18.6604 11.3455 18.5882 11.2953C18.0253 10.9243 17.5623 10.1666 17.5683 9.324C18.5192 9.30601 19.4967 9.97552 19.8137 10.9273ZM22.0051 16.8505C21.2388 17.6233 20.0989 17.5642 20.1456 17.559C19.5498 17.5487 18.834 17.0364 18.4027 16.6004C17.9109 16.1052 17.5974 15.392 17.5764 14.7675C18.07 14.7718 18.5502 14.9287 18.9511 15.2168C19.3519 15.5048 19.6539 15.9099 19.8154 16.3764C19.9392 16.7336 20.4365 16.7503 20.6005 16.432C20.9719 15.712 21.7074 15.1744 22.708 15.1444C22.7088 15.461 22.6471 15.7747 22.5265 16.0675C22.4058 16.3602 22.2287 16.6263 22.0051 16.8505ZM6.92376 7.96142L6.6055 8.47415C6.19281 8.44914 5.77927 8.50651 5.38898 8.64292C5.40355 8.51613 5.41126 8.38848 5.41126 8.25998C5.41126 7.29919 4.99319 6.39623 4.28941 5.79397V5.13688C4.28941 4.5706 3.43271 4.56974 3.43271 5.13688V5.79397C2.72893 6.39623 2.31086 7.29876 2.31086 8.25998C2.31086 8.46216 2.33399 8.74316 2.37982 9.037C1.97616 8.89022 1.54663 8.82797 1.11791 8.8541L0.798356 8.33794C0.500653 7.85562 -0.228398 8.30838 0.0705901 8.78942L0.455248 9.40967C0.379896 10.2092 0.603804 11.0082 1.08364 11.6521C0.997111 11.6585 0.910156 11.6649 0.825343 11.6791C0.736023 11.6936 0.653593 11.736 0.589877 11.8003C0.52616 11.8645 0.484429 11.9473 0.470669 12.0367C0.349446 12.83 0.541347 13.6413 0.98426 14.31C0.931145 14.3156 0.877601 14.3181 0.825343 14.3263C0.736023 14.3408 0.653593 14.3832 0.589877 14.4475C0.52616 14.5117 0.484429 14.5945 0.470669 14.6839C0.31732 15.6859 0.659571 16.7216 1.38605 17.4537C1.95661 18.0285 2.76877 18.3228 3.43271 18.3973V21.8425C3.43271 22.4088 4.28941 22.4097 4.28941 21.8425V18.3626C5.1898 18.1634 5.96468 17.4464 6.20456 17.2039C6.97688 16.426 7.39752 15.2622 7.25145 14.3074C7.2379 14.218 7.19629 14.1351 7.13263 14.0708C7.06896 14.0066 6.98652 13.9642 6.8972 13.9497C6.84366 13.9412 6.78926 13.9386 6.73486 13.933C7.17906 13.2652 7.37224 12.454 7.25102 11.6606C7.23747 11.5712 7.19587 11.4884 7.1322 11.4241C7.06853 11.3598 6.9861 11.3174 6.89677 11.303C6.81153 11.2888 6.72458 11.2824 6.63762 11.276C7.11746 10.6321 7.34151 9.83311 7.26644 9.03358L7.6511 8.41333C7.95052 7.93229 7.22318 7.47867 6.92376 7.96142ZM5.44381 14.0718C4.72906 14.2985 4.11679 14.7693 3.71413 15.4019C3.31491 14.9478 2.86472 14.6347 2.27574 14.4479C1.96933 14.2235 1.72037 13.9298 1.54921 13.5908C1.37806 13.2517 1.28956 12.877 1.29096 12.4972C1.79341 12.4655 2.52118 12.7341 2.97566 13.2061C3.14571 13.3762 3.28793 13.5711 3.39887 13.7853C3.56935 14.1164 4.06495 14.0714 4.18403 13.7296C4.53485 12.723 5.50207 12.1057 6.43116 12.1207C6.43587 12.8365 6.12317 13.5475 5.44381 14.0718ZM6.41317 9.32314H6.43116C6.43673 10.1687 5.96897 10.9269 5.41126 11.2944C5.33896 11.3444 5.28425 11.4159 5.25491 11.4987C4.57769 11.7647 4.07438 12.1952 3.71456 12.7542C3.4023 12.4 3.08532 12.1228 2.47363 11.8778C2.36526 11.6062 1.28154 11.1261 1.29096 9.70052C1.92367 9.70639 2.52872 9.96069 2.97566 10.4086C3.14529 10.5782 3.28793 10.7735 3.39887 10.9881C3.56507 11.3103 4.06667 11.285 4.18575 10.9269C4.28213 10.6373 4.4706 10.3122 4.74689 10.0312C5.1551 9.61999 5.75394 9.32314 6.41317 9.32314ZM3.16756 8.25998C3.16756 7.60846 3.422 6.99335 3.86106 6.556C4.30012 6.99335 4.55456 7.60889 4.55456 8.25998C4.55456 8.60009 4.48388 8.93292 4.3558 9.23148C4.13606 9.41138 3.94287 9.61656 3.71927 9.9631C3.5685 9.7909 3.67687 9.88514 3.42243 9.6594C3.27122 9.321 3.16756 8.66991 3.16756 8.25998ZM5.59673 16.6008C5.16496 17.0364 4.44918 17.5487 3.85378 17.559C3.85121 17.559 3.84864 17.5607 3.84607 17.5607C3.8435 17.5607 3.84135 17.5595 3.83878 17.5595C3.41772 17.5787 2.54859 17.4087 1.99431 16.8505C1.54297 16.3975 1.28999 15.7839 1.29096 15.1444C1.72651 15.1456 2.15339 15.2662 2.52508 15.4933C2.89677 15.7203 3.19901 16.045 3.39887 16.432C3.57321 16.77 4.06838 16.7075 4.18403 16.3764C4.53871 15.3586 5.52263 14.758 6.42302 14.7675C6.40203 15.392 6.08848 16.1052 5.59673 16.6008Z" fill="#01875F"/>
</svg>
