<svg width="25" height="25" viewBox="0 0 25 25" fill="none" xmlns="http://www.w3.org/2000/svg">
<path d="M4.86058 3.42346C4.91368 3.42346 4.96679 3.42346 5.02183 3.42297C5.19951 3.42297 5.3767 3.42346 5.55437 3.42394C5.68183 3.42394 5.80977 3.42394 5.93723 3.42394C6.21147 3.42394 6.4857 3.42442 6.75993 3.4249C7.1568 3.42587 7.55318 3.42587 7.94957 3.42587C8.59315 3.42635 9.23673 3.42684 9.88031 3.4278C10.5051 3.42877 11.1303 3.42925 11.755 3.42973C11.7937 3.42973 11.8323 3.42973 11.8719 3.42973C12.0655 3.42973 12.2586 3.43022 12.4522 3.43022C14.0556 3.43118 15.6585 3.43311 17.2619 3.43504C17.1263 3.60934 16.9935 3.74549 16.8187 3.88164C16.5918 4.06269 16.3885 4.25485 16.1891 4.46583C16.1032 4.5455 16.1032 4.5455 16.0066 4.5455C16.0066 4.57736 16.0066 4.60923 16.0066 4.64206C15.9221 4.73717 15.8497 4.78159 15.7227 4.80042C15.6049 4.80573 15.4876 4.80621 15.3693 4.80573C15.3239 4.80573 15.2786 4.80621 15.2317 4.80621C15.0787 4.80718 14.9261 4.8067 14.7735 4.80621C14.664 4.8067 14.5548 4.8067 14.4452 4.80718C14.2096 4.80814 13.974 4.80814 13.7379 4.80814C13.3657 4.80814 12.993 4.80911 12.6202 4.81008C12.0978 4.81152 11.575 4.81249 11.0526 4.81297C11.0197 4.81297 10.9864 4.81345 10.9521 4.81345C10.8179 4.81345 10.6837 4.81345 10.549 4.81394C10.1796 4.81394 9.8103 4.8149 9.44096 4.81539C9.40764 4.81539 9.37481 4.81539 9.34053 4.81539C8.78869 4.81635 8.23684 4.81732 7.68547 4.81925C7.31468 4.82021 6.94437 4.82021 6.57405 4.8207C6.34327 4.8207 6.11297 4.82118 5.88219 4.82166C5.77549 4.82215 5.66831 4.82215 5.56161 4.82215C5.41532 4.82166 5.26951 4.82215 5.12371 4.82263C5.05997 4.82263 5.05997 4.82263 4.99528 4.82215C4.75243 4.82359 4.55351 4.85401 4.32273 4.93174C4.27831 4.94478 4.23341 4.95781 4.18706 4.97085C4.04705 5.04713 4.02967 5.12052 3.98477 5.26971C3.96883 5.30157 3.9529 5.33344 3.93649 5.36627C3.93214 5.44448 3.93021 5.5227 3.93021 5.60091C3.93021 5.65064 3.92973 5.70037 3.92973 5.75155C3.92973 5.80707 3.92973 5.86211 3.92973 5.9186C3.92973 5.97702 3.92973 6.03544 3.92924 6.0953C3.92924 6.25753 3.92876 6.41975 3.92876 6.58197C3.92876 6.75675 3.92828 6.93152 3.92828 7.10678C3.92731 7.48917 3.92731 7.87155 3.92683 8.25393C3.92683 8.49244 3.92683 8.73143 3.92635 8.96993C3.92586 9.63041 3.92538 10.2909 3.92538 10.9518C3.92538 10.9939 3.92538 11.0363 3.92538 11.0798C3.92538 11.1223 3.9249 11.1648 3.9249 11.2082C3.9249 11.2942 3.9249 11.3801 3.9249 11.466C3.9249 11.5085 3.9249 11.5515 3.9249 11.5954C3.9249 12.2858 3.92393 12.9767 3.92297 13.6676C3.92152 14.3764 3.92104 15.0852 3.92104 15.7939C3.92104 16.1917 3.92055 16.5901 3.92007 16.9879C3.9191 17.3273 3.9191 17.6662 3.9191 18.0052C3.91959 18.178 3.91959 18.3509 3.91862 18.5242C3.91814 18.7115 3.91862 18.8988 3.9191 19.0866C3.91862 19.1412 3.91814 19.1962 3.91766 19.2527C3.91814 19.3029 3.91814 19.3532 3.91862 19.4048C3.91862 19.4478 3.91862 19.4912 3.91862 19.5357C3.94035 19.6834 4.00166 19.7746 4.08133 19.8987C4.08133 19.9306 4.08133 19.9625 4.08133 19.9953C4.44005 20.2043 4.82678 20.2024 5.22896 20.2005C5.31345 20.201 5.31345 20.201 5.39987 20.201C5.55582 20.2014 5.71176 20.2014 5.86723 20.201C6.03573 20.201 6.20422 20.201 6.37272 20.2014C6.702 20.2019 7.03175 20.2019 7.36103 20.2014C7.62899 20.2014 7.89694 20.2014 8.1649 20.2014C8.22187 20.2014 8.22187 20.2014 8.28029 20.2014C8.35802 20.2014 8.43527 20.2014 8.513 20.2014C9.23963 20.2019 9.96577 20.2014 10.6924 20.201C11.3157 20.2005 11.9385 20.2005 12.5618 20.201C13.2855 20.2014 14.0097 20.2019 14.7335 20.2014C14.8107 20.2014 14.888 20.2014 14.9652 20.2014C15.0034 20.2014 15.0415 20.2014 15.0806 20.2014C15.3481 20.2014 15.6156 20.2014 15.883 20.2014C16.2089 20.2019 16.5348 20.2019 16.8612 20.2014C17.0273 20.201 17.1934 20.201 17.3599 20.2014C17.54 20.2014 17.7206 20.201 17.9012 20.2005C17.9533 20.201 18.0059 20.201 18.0595 20.2014C18.3854 20.1995 18.7741 20.1957 19.0483 19.9953C19.1077 19.8876 19.1077 19.8876 19.1449 19.7539C19.1618 19.7046 19.1782 19.6549 19.1956 19.6042C19.255 19.3937 19.254 19.1919 19.2516 18.9746C19.2516 18.9312 19.2511 18.8882 19.2511 18.8433C19.2506 18.6985 19.2496 18.5536 19.2487 18.4088C19.2482 18.305 19.2477 18.2007 19.2472 18.0964C19.2467 17.8729 19.2458 17.6489 19.2443 17.4248C19.2429 17.0705 19.2424 16.7156 19.2419 16.3612C19.2419 16.3013 19.2419 16.2415 19.2419 16.1797C19.2419 16.057 19.2414 15.9349 19.2414 15.8123C19.2409 14.9871 19.239 14.162 19.2347 13.3369C19.2313 12.7802 19.2298 12.2231 19.2308 11.6664C19.2313 11.3719 19.2308 11.0774 19.2279 10.7834C19.225 10.5057 19.225 10.2286 19.2265 9.95148C19.2265 9.85009 19.226 9.7487 19.2241 9.64779C19.2144 9.04718 19.2612 8.65273 19.6847 8.20613C19.7296 8.16123 19.7745 8.11633 19.8208 8.06998C19.8976 7.98404 19.9743 7.89762 20.0501 7.81071C20.0849 7.77306 20.1197 7.7354 20.1554 7.69677C20.2833 7.55676 20.4069 7.41288 20.53 7.26852C20.5508 7.24631 20.572 7.22411 20.5933 7.20093C20.6092 7.20093 20.6252 7.20093 20.6416 7.20093C20.6449 8.79805 20.6478 10.3952 20.6493 11.9923C20.6493 12.1811 20.6493 12.3694 20.6498 12.5581C20.6498 12.5958 20.6498 12.6335 20.6498 12.6721C20.6503 13.2799 20.6517 13.8873 20.6532 14.4952C20.6541 15.1189 20.6551 15.7427 20.6556 16.3665C20.6556 16.7513 20.6561 17.1361 20.6575 17.5209C20.6585 17.8164 20.6585 18.1114 20.658 18.4069C20.658 18.5276 20.6585 18.6487 20.659 18.7694C20.6599 18.935 20.6594 19.1002 20.659 19.2658C20.6594 19.3136 20.6599 19.3609 20.6604 19.4101C20.6565 20.0001 20.4509 20.538 20.0516 20.9759C19.5408 21.4621 18.9725 21.6185 18.2806 21.6132C18.2208 21.6132 18.1604 21.6137 18.0986 21.6141C17.934 21.6146 17.7689 21.6146 17.6042 21.6137C17.4256 21.6132 17.247 21.6141 17.0683 21.6146C16.7193 21.6156 16.3702 21.6151 16.0216 21.6146C15.7377 21.6141 15.4538 21.6141 15.1699 21.6146C15.1091 21.6146 15.1091 21.6146 15.0473 21.6146C14.9647 21.6146 14.8827 21.6146 14.8006 21.6146C14.03 21.6151 13.26 21.6146 12.4894 21.6137C11.8294 21.6127 11.1694 21.6127 10.5089 21.6137C9.74126 21.6146 8.9736 21.6151 8.20594 21.6146C8.12386 21.6146 8.04227 21.6146 7.96019 21.6146C7.91963 21.6146 7.87956 21.6141 7.83804 21.6141C7.55463 21.6141 7.27123 21.6146 6.9883 21.6151C6.64261 21.6156 6.29692 21.6151 5.95172 21.6141C5.77549 21.6137 5.59927 21.6137 5.42304 21.6141C5.23185 21.6151 5.04066 21.6141 4.84947 21.6132C4.79443 21.6137 4.73939 21.6141 4.68242 21.6146C4.02822 21.6079 3.54928 21.392 3.06743 20.9609C2.70292 20.5838 2.48276 20.0696 2.48179 19.5463C2.48179 19.4951 2.48131 19.4444 2.48131 19.3918C2.48131 19.3083 2.48131 19.3083 2.48131 19.2228C2.48131 19.1634 2.48131 19.104 2.48083 19.0427C2.48083 18.8781 2.48034 18.7134 2.48034 18.5483C2.48034 18.3706 2.47986 18.193 2.47986 18.0153C2.47889 17.6266 2.47889 17.238 2.47841 16.8493C2.47841 16.6065 2.47841 16.3636 2.47793 16.1213C2.47745 15.4487 2.47696 14.7766 2.47696 14.1041C2.47696 14.0611 2.47696 14.0182 2.47696 13.9737C2.47696 13.9308 2.47648 13.8873 2.47648 13.8429C2.47648 13.7555 2.47648 13.6681 2.47648 13.5807C2.47648 13.5378 2.47648 13.4943 2.47648 13.4494C2.47648 12.7474 2.47551 12.0454 2.47455 11.3434C2.4731 10.6221 2.47262 9.90078 2.47262 9.17995C2.47262 8.77488 2.47214 8.37029 2.47165 7.96521C2.47069 7.62049 2.47069 7.27577 2.47069 6.93104C2.47117 6.7553 2.47117 6.57956 2.4702 6.40382C2.46972 6.21311 2.4702 6.0224 2.47069 5.83121C2.4702 5.77617 2.46972 5.72113 2.46924 5.66416C2.4731 5.01527 2.68022 4.50398 3.12199 4.02648C3.6159 3.55575 4.20058 3.41959 4.86058 3.42346Z" fill="#01875F"/>
<path d="M22.2196 2.7322C22.2978 2.89201 22.3051 2.9963 22.2751 3.17107C22.1839 3.42165 21.9869 3.59305 21.7972 3.77313C21.7692 3.80017 21.7412 3.82673 21.7117 3.85425C21.5567 4.00102 21.4003 4.14683 21.2429 4.29118C21.0812 4.44037 20.9262 4.59487 20.7722 4.75178C20.6795 4.84255 20.5829 4.92656 20.4844 5.01057C20.3642 5.11292 20.2604 5.21576 20.1619 5.33936C20.1276 5.38039 20.0938 5.42095 20.0591 5.46295C20.0272 5.46295 19.9953 5.46295 19.9625 5.46295C19.9625 5.49482 19.9625 5.52669 19.9625 5.55952C19.9306 5.55952 19.8988 5.55952 19.8659 5.55952C19.8529 5.58848 19.8403 5.61745 19.8268 5.6469C19.7684 5.75505 19.7114 5.81782 19.6216 5.90038C19.4333 6.08288 19.2726 6.28228 19.1084 6.48602C19.0046 6.61252 18.8965 6.7337 18.7859 6.8544C18.5416 7.12236 18.3205 7.40721 18.0989 7.694C18.0337 7.77753 17.9675 7.86057 17.9014 7.94361C16.3004 9.94967 14.9828 12.1798 13.7826 14.4431C13.7565 14.4929 13.73 14.5421 13.7029 14.5928C13.2539 15.4421 12.8315 16.3029 12.4158 17.1686C12.3728 17.2579 12.3293 17.3472 12.2859 17.4365C12.269 17.4713 12.2521 17.5061 12.2352 17.5418C12.2178 17.5761 12.2009 17.6108 12.1835 17.6466C12.1681 17.6779 12.1526 17.7093 12.1367 17.7422C12.0725 17.8604 12.0232 17.9111 11.8996 17.9676C11.6771 18.0256 11.5317 18.0512 11.3232 17.9411C11.1518 17.804 11.0345 17.6591 10.907 17.4819C10.8819 17.4481 10.8573 17.4143 10.8317 17.3801C10.6173 17.0855 10.414 16.7843 10.2103 16.4825C9.94814 16.0968 9.6628 15.7308 9.37263 15.3658C9.28669 15.2567 9.20124 15.1471 9.11626 15.037C8.59966 14.3722 8.06278 13.7257 7.45783 13.1396C7.33954 13.0218 7.22173 12.9035 7.10489 12.7842C7.00206 12.6833 6.89825 12.5872 6.79107 12.4916C6.35027 12.0972 5.9534 11.7414 5.90126 11.119C5.88919 10.5889 6.0012 10.1722 6.34447 9.76041C6.67423 9.43886 7.08317 9.26457 7.54232 9.25926C8.25349 9.27181 8.68077 9.67013 9.16454 10.15C9.24421 10.2427 9.24421 10.2427 9.24421 10.3393C9.27607 10.3393 9.30794 10.3393 9.34077 10.3393C9.40208 10.3987 9.40208 10.3987 9.47644 10.487C9.50637 10.5223 9.53582 10.557 9.56672 10.5933C9.60341 10.6372 9.64059 10.6806 9.67873 10.7255C9.72846 10.783 9.77867 10.84 9.82888 10.8974C10.164 11.2803 10.4894 11.6646 10.7829 12.0808C10.8211 12.1334 10.8211 12.1334 10.8597 12.1875C10.9104 12.2575 10.9601 12.3285 11.0093 12.3999C11.1552 12.6041 11.1552 12.6041 11.3806 12.7036C11.4569 12.7046 11.5337 12.705 11.61 12.705C11.623 12.6698 11.636 12.6346 11.6495 12.5979C11.7041 12.4694 11.7659 12.3632 11.8436 12.2473C11.8842 12.186 11.8842 12.186 11.9257 12.1237C11.9552 12.0808 11.9841 12.0373 12.0141 11.9929C12.0599 11.9253 12.0599 11.9253 12.1063 11.8568C12.3617 11.4778 12.6224 11.1031 12.8884 10.7313C12.9386 10.6613 12.9893 10.5908 13.0395 10.5203C13.4886 9.88932 13.9574 9.27857 14.4498 8.68086C14.5208 8.59443 14.5918 8.50801 14.6618 8.42062C14.8858 8.14349 15.1185 7.8765 15.3599 7.61386C15.4541 7.51053 15.5468 7.40625 15.6385 7.30051C15.6955 7.23534 15.7529 7.17016 15.8104 7.1045C15.8432 7.06732 15.876 7.02966 15.9103 6.99104C16.2304 6.63424 16.5674 6.29435 16.9059 5.95493C16.9416 5.91872 16.9416 5.91872 16.9783 5.88203C17.2564 5.60297 17.5383 5.33211 17.8382 5.07671C17.8893 5.03181 17.9405 4.98643 17.9917 4.94104C18.8472 4.18786 19.7868 3.53463 20.7924 2.99775C20.8248 2.98037 20.8571 2.96299 20.8905 2.94512C21.2941 2.73558 21.7764 2.50046 22.2196 2.7322Z" fill="#01875F"/>
</svg>
