<svg width="24" height="25" viewBox="0 0 24 25" fill="none" xmlns="http://www.w3.org/2000/svg">
<path d="M2.76884 24.002C2.76884 24.2468 2.86609 24.4816 3.03921 24.6547C3.21233 24.8278 3.44713 24.9251 3.69196 24.9251H20.3081C20.5529 24.9251 20.7877 24.8278 20.9609 24.6547C21.134 24.4816 21.2312 24.2468 21.2312 24.002V21.2326H2.76884V24.002ZM23.6378 5.72881C23.5003 5.62431 23.3364 5.56029 23.1645 5.54398C22.9926 5.52767 22.8195 5.55971 22.6648 5.6365L16.1772 8.88034L12.8576 0.581492C12.7893 0.409891 12.671 0.262745 12.5181 0.15908C12.3652 0.0554153 12.1848 0 12 0C11.8153 0 11.6349 0.0554153 11.482 0.15908C11.3291 0.262745 11.2108 0.409891 11.1425 0.581492L7.82292 8.88034L1.33523 5.6365C1.18065 5.55938 1.00754 5.52718 0.835571 5.54356C0.663602 5.55995 0.499681 5.62425 0.362447 5.72918C0.225213 5.8341 0.120173 5.97542 0.0592712 6.13707C-0.00163088 6.29873 -0.0159511 6.47423 0.0179389 6.64362L2.56575 19.3864H21.4343L23.9821 6.64362C24.0159 6.47433 24.0016 6.29896 23.9407 6.13741C23.8799 5.97587 23.7749 5.83463 23.6378 5.72973V5.72881ZM12 15.6939C11.452 15.6262 10.9521 15.347 10.6072 14.9158C10.2622 14.4846 10.0995 13.9356 10.1538 13.3861C10.0995 12.8366 10.2622 12.2876 10.6072 11.8564C10.9521 11.4252 11.452 11.146 12 11.0783C12.5481 11.146 13.0479 11.4252 13.3929 11.8564C13.7378 12.2876 13.9006 12.8366 13.8463 13.3861C13.9006 13.9356 13.7378 14.4846 13.3929 14.9158C13.0479 15.347 12.5481 15.6262 12 15.6939Z" fill="black"/>
</svg>
