<svg width="24" height="23" viewBox="0 0 24 23" fill="none" xmlns="http://www.w3.org/2000/svg">
<path d="M0 10.0256V14.3082C1.8183 15.7572 5.96685 16.5604 12 16.5604C18.0331 16.5604 22.1817 15.7572 24 14.3082V10.0256C22.024 11.1085 18.4366 11.9604 12 11.9604C5.56345 11.9604 1.976 11.1085 0 10.0256Z" fill="#01875F"/>
<path d="M0 15.5453V19.78C0 21.8942 6.03655 23 12 23C17.9634 23 24 21.8942 24 19.78V15.5453C22.024 16.6281 18.4366 17.48 12 17.48C5.56345 17.48 1.976 16.6281 0 15.5453ZM12 0C6.03655 0 0 1.10584 0 3.22V3.26784C1.8183 4.71684 5.96685 5.52 12 5.52C18.0331 5.52 22.1817 4.71684 24 3.26784V3.22C24 1.10584 17.9634 0 12 0Z" fill="#01875F"/>
<path d="M0 4.50586V8.78844C1.8183 10.2374 5.96685 11.0406 12 11.0406C18.0331 11.0406 22.1817 10.2374 24 8.78844V4.50586C22.024 5.5887 18.4366 6.4406 12 6.4406C5.56345 6.4406 1.976 5.5887 0 4.50586Z" fill="#01875F"/>
</svg>
