<svg width="24" height="24" viewBox="0 0 24 24" fill="none" xmlns="http://www.w3.org/2000/svg">
<path d="M11.9992 0.00151179C10.2908 -0.00159401 8.60149 0.36132 7.04504 1.06583C6.99601 1.08816 6.95199 1.12016 6.91561 1.1599C6.87923 1.19964 6.85124 1.24632 6.83332 1.29713C6.81539 1.34794 6.8079 1.40184 6.81129 1.45561C6.81468 1.50939 6.82888 1.56192 6.85304 1.61008L7.56813 3.04176C7.61441 3.13394 7.69447 3.20471 7.79162 3.23935C7.88877 3.27399 7.99554 3.26982 8.0897 3.22772C9.32006 2.67967 10.6524 2.39786 11.9992 2.40076C13.7424 2.39988 15.4529 2.87405 16.9469 3.77229C18.4408 4.67053 19.6618 5.95889 20.4785 7.49892C21.2952 9.03895 21.6769 10.7724 21.5824 12.5131C21.4879 14.2537 20.9209 15.9357 19.9423 17.3783L18.6814 16.1159C18.6253 16.0605 18.554 16.023 18.4765 16.008C18.3991 15.9929 18.3189 16.0011 18.2461 16.0315C18.1733 16.0618 18.1111 16.113 18.0672 16.1786C18.0234 16.2442 17.9998 16.3212 17.9996 16.4001V20.7995C17.9996 21.0202 18.1765 21.2001 18.3972 21.2016H22.7966C22.8761 21.202 22.9539 21.1787 23.0202 21.1347C23.0864 21.0907 23.138 21.028 23.1685 20.9546C23.199 20.8811 23.2069 20.8003 23.1913 20.7223C23.1757 20.6444 23.1372 20.5728 23.0808 20.5168L21.6627 19.0987C23.1811 17.0437 24.0003 14.5559 24 12.0008C23.9984 8.81845 22.7335 5.76694 20.4833 3.51671C18.2331 1.26648 15.1816 0.00311416 11.9992 0.00151179ZM1.19736 2.79836C1.11829 2.79859 1.04106 2.82221 0.975385 2.86625C0.909715 2.91028 0.858543 2.97277 0.828316 3.04583C0.798088 3.1189 0.790157 3.19927 0.80552 3.27683C0.820883 3.35439 0.858854 3.42568 0.91465 3.4817L2.33273 4.89978C0.815453 6.95623 -0.00217433 9.44515 4.34274e-06 12.0008C0.00157459 14.0071 0.505881 15.981 1.46685 17.7422C2.42781 19.5034 3.8148 20.9958 5.50108 22.0829C7.18736 23.17 9.11917 23.8172 11.12 23.9654C13.1209 24.1135 15.1269 23.758 16.955 22.9311C17.0039 22.9087 17.0477 22.8766 17.084 22.8368C17.1202 22.797 17.148 22.7503 17.1658 22.6995C17.1836 22.6487 17.1909 22.5948 17.1874 22.5411C17.1839 22.4874 17.1697 22.435 17.1455 22.3869L16.4289 20.9567C16.3826 20.8649 16.3028 20.7944 16.206 20.7598C16.1092 20.7252 16.0028 20.7291 15.9088 20.7708C14.6785 21.3193 13.3462 21.6016 11.9992 21.5992C10.2559 21.6007 8.54512 21.1271 7.05075 20.2293C5.55639 19.3315 4.33495 18.0434 3.51773 16.5034C2.70051 14.9635 2.3184 13.23 2.41247 11.4892C2.50655 9.74839 3.07324 8.06613 4.05166 6.62324L5.31704 7.8856C5.37323 7.94098 5.44452 7.97853 5.52197 7.99354C5.59941 8.00856 5.67957 8.00038 5.75239 7.97003C5.8252 7.93968 5.88744 7.8885 5.93129 7.82292C5.97513 7.75734 5.99864 7.68027 5.99887 7.60138V3.20201C5.99887 3.09576 5.95666 2.99386 5.88153 2.91873C5.8064 2.84359 5.70449 2.80138 5.59824 2.80138L1.19736 2.79836ZM12.7778 5.19912C12.7138 5.20266 12.6515 5.22154 12.5962 5.25416C12.541 5.28678 12.4944 5.3322 12.4603 5.38658L7.66186 12.9865C7.62392 13.0468 7.60278 13.1162 7.60062 13.1875C7.59845 13.2587 7.61535 13.3293 7.64955 13.3918C7.68376 13.4544 7.73403 13.5067 7.7952 13.5433C7.85636 13.58 7.92619 13.5996 7.99748 13.6002H11.1662L10.8004 18.37C10.7701 18.7827 11.3114 18.9626 11.5351 18.6149L16.3366 11.0135C16.3748 10.9529 16.3959 10.883 16.3979 10.8114C16.3999 10.7397 16.3826 10.6689 16.3478 10.6062C16.3131 10.5435 16.2622 10.4913 16.2004 10.455C16.1386 10.4186 16.0682 10.3996 15.9965 10.3997H12.8292L13.1981 5.63149C13.2029 5.57466 13.1955 5.51745 13.1764 5.46372C13.1572 5.40998 13.1268 5.36098 13.0871 5.32001C13.0474 5.27903 12.9994 5.24704 12.9463 5.22619C12.8932 5.20533 12.8348 5.1961 12.7778 5.19912Z" fill="#01875F"/>
</svg>
