<svg width="24" height="24" viewBox="0 0 24 24" fill="none" xmlns="http://www.w3.org/2000/svg">
<path d="M23.9507 8.80455C23.8012 7.97255 21.0587 7.91605 18.2021 9.11755C16.0028 10.0415 13.7388 11.705 12.5251 14.3335C12.2747 14.8725 11.9965 15.9145 11.9965 15.9145C11.9965 15.9145 11.7253 14.8725 11.4749 14.3335C10.2612 11.705 7.99719 10.0415 5.79791 9.11755C2.94134 7.91605 0.198842 7.97255 0.0493018 8.80455C-0.47235 10.1235 3.28355 12.516 4.80538 15.8835C4.96953 16.2485 5.0975 16.864 5.21227 17.5625C5.36557 18.5681 6.02962 19.4976 7.07717 20.1729C8.12472 20.8483 9.48211 21.222 10.8892 21.2225H13.1108C16.0244 21.2225 18.4664 19.6465 18.7877 17.5625C18.9018 16.864 19.0312 16.248 19.1946 15.8835C20.7158 12.516 24.4724 10.1235 23.9507 8.80455ZM10.8871 21.9925C10.659 21.9925 10.4309 21.9825 10.202 21.9675V22.9735C10.202 23.5435 10.8378 24 11.63 24H12.3659C13.1588 24 13.7945 23.543 13.7945 22.9735V21.967C13.5726 21.982 13.3368 21.9925 13.1087 21.9925H10.8871Z" fill="#01875F"/>
<path d="M12.0014 13.163C13.2158 11.14 15.187 9.492 17.6645 8.455C17.8432 8.378 18.022 8.3065 18.2 8.245C18.015 3.645 15.308 0 12.0014 0C8.68788 0 5.98155 3.645 5.79584 8.24C5.97459 8.3065 6.1603 8.378 6.33836 8.455C8.8096 9.492 10.7877 11.14 12.0014 13.163ZM14.9157 3.968H15.4443C15.7434 3.968 15.9799 4.138 15.9799 4.353C15.9799 4.564 15.7434 4.738 15.4443 4.738H14.9157C14.7737 4.738 14.6374 4.69744 14.537 4.62523C14.4366 4.55303 14.3801 4.45511 14.3801 4.353C14.3801 4.25089 14.4366 4.15296 14.537 4.08076C14.6374 4.00856 14.7737 3.968 14.9157 3.968ZM14.9157 5.945H15.4443C15.7434 5.945 15.9799 6.1195 15.9799 6.33C15.9799 6.545 15.7434 6.715 15.4443 6.715H14.9157C14.7737 6.715 14.6374 6.67444 14.537 6.60223C14.4366 6.53003 14.3801 6.43211 14.3801 6.33C14.3801 6.22789 14.4366 6.12996 14.537 6.05776C14.6374 5.98556 14.7737 5.945 14.9157 5.945ZM14.9157 7.9265H15.4443C15.5864 7.9265 15.7226 7.96706 15.823 8.03926C15.9235 8.11146 15.9799 8.20939 15.9799 8.3115C15.9799 8.4136 15.9235 8.51153 15.823 8.58373C15.7226 8.65594 15.5864 8.6965 15.4443 8.6965H14.9157C14.774 8.69571 14.6384 8.6549 14.5382 8.58287C14.438 8.51083 14.3812 8.41336 14.3801 8.3115C14.3801 8.101 14.6229 7.9265 14.9157 7.9265ZM11.7371 1.9865H12.2657C12.336 1.9865 12.4057 1.99646 12.4707 2.01581C12.5356 2.03515 12.5947 2.06351 12.6444 2.09926C12.6941 2.13501 12.7336 2.17746 12.7605 2.22417C12.7874 2.27088 12.8013 2.32094 12.8013 2.3715C12.8013 2.42206 12.7874 2.47212 12.7605 2.51883C12.7336 2.56554 12.6941 2.60798 12.6444 2.64374C12.5947 2.67949 12.5356 2.70784 12.4707 2.72719C12.4057 2.74654 12.336 2.7565 12.2657 2.7565H11.7371C11.6666 2.75697 11.5967 2.74733 11.5314 2.72814C11.4661 2.70896 11.4068 2.68062 11.357 2.64478C11.3071 2.60893 11.2677 2.5663 11.241 2.51938C11.2143 2.47246 11.2009 2.42219 11.2015 2.3715C11.2015 2.1615 11.438 1.9865 11.7371 1.9865ZM11.7371 3.9685H12.2657C12.4078 3.9685 12.544 4.00906 12.6444 4.08126C12.7449 4.15346 12.8013 4.25139 12.8013 4.3535C12.8013 4.45561 12.7449 4.55353 12.6444 4.62573C12.544 4.69794 12.4078 4.7385 12.2657 4.7385H11.7371C11.6668 4.73856 11.5971 4.72865 11.532 4.70933C11.467 4.69 11.408 4.66164 11.3582 4.62588C11.3085 4.59012 11.269 4.54765 11.2421 4.50091C11.2152 4.45417 11.2015 4.40408 11.2015 4.3535C11.2015 4.138 11.438 3.9685 11.7371 3.9685ZM11.7371 5.945H12.2657C12.4078 5.945 12.544 5.98556 12.6444 6.05776C12.7449 6.12996 12.8013 6.22789 12.8013 6.33C12.8013 6.43211 12.7449 6.53003 12.6444 6.60223C12.544 6.67444 12.4078 6.715 12.2657 6.715H11.7371C11.6666 6.71547 11.5967 6.70583 11.5314 6.68664C11.4661 6.66746 11.4068 6.63912 11.357 6.60327C11.3071 6.56743 11.2677 6.5248 11.241 6.47788C11.2143 6.43096 11.2009 6.38069 11.2015 6.33C11.2015 6.1195 11.438 5.945 11.7371 5.945ZM11.7371 7.9265H12.2657C12.5585 7.9265 12.8013 8.101 12.8013 8.3115C12.8013 8.5215 12.5585 8.6965 12.2657 8.6965H11.7371C11.5951 8.6965 11.4588 8.65594 11.3584 8.58373C11.258 8.51153 11.2015 8.4136 11.2015 8.3115C11.2015 8.20939 11.258 8.11146 11.3584 8.03926C11.4588 7.96706 11.5951 7.9265 11.7371 7.9265ZM11.7371 9.908H12.2657C12.4078 9.908 12.544 9.94856 12.6444 10.0208C12.7449 10.093 12.8013 10.1909 12.8013 10.293C12.8013 10.3951 12.7449 10.493 12.6444 10.5652C12.544 10.6374 12.4078 10.678 12.2657 10.678H11.7371C11.6668 10.6781 11.5971 10.6681 11.532 10.6488C11.467 10.6295 11.408 10.6011 11.3582 10.5654C11.3085 10.5296 11.269 10.4871 11.2421 10.4404C11.2152 10.3937 11.2015 10.3436 11.2015 10.293C11.2015 10.0775 11.438 9.908 11.7371 9.908ZM8.55225 3.968H9.08085C9.38063 3.968 9.61642 4.138 9.61642 4.353C9.61642 4.564 9.38063 4.738 9.08085 4.738H8.55225C8.41021 4.738 8.27398 4.69744 8.17355 4.62523C8.07311 4.55303 8.01669 4.45511 8.01669 4.353C8.01669 4.25089 8.07311 4.15296 8.17355 4.08076C8.27398 4.00856 8.41021 3.968 8.55225 3.968ZM8.55225 5.945H9.08085C9.38063 5.945 9.61642 6.1195 9.61642 6.33C9.61642 6.545 9.38063 6.715 9.08085 6.715H8.55225C8.41021 6.715 8.27398 6.67444 8.17355 6.60223C8.07311 6.53003 8.01669 6.43211 8.01669 6.33C8.01669 6.22789 8.07311 6.12996 8.17355 6.05776C8.27398 5.98556 8.41021 5.945 8.55225 5.945ZM8.55225 7.9265H9.08085C9.22289 7.9265 9.35912 7.96706 9.45956 8.03926C9.55999 8.11146 9.61642 8.20939 9.61642 8.3115C9.61642 8.4136 9.55999 8.51153 9.45956 8.58373C9.35912 8.65594 9.22289 8.6965 9.08085 8.6965H8.55225C8.26012 8.6965 8.01669 8.5215 8.01669 8.3115C8.01669 8.101 8.26012 7.9265 8.55225 7.9265Z" fill="#01875F"/>
</svg>
