<svg width="20" height="20" viewBox="0 0 20 20" fill="none" xmlns="http://www.w3.org/2000/svg">
<path d="M19.2183 9.96955C19.2183 9.25712 19.1541 8.57541 19.035 7.91988H9.81372V11.6755L15.1244 11.6767C14.909 12.9263 14.2158 13.9915 13.1537 14.7017V17.1383H16.3149C18.1607 15.4414 19.2183 12.9331 19.2183 9.96955Z" fill="#4285F4"/>
<path d="M13.1549 14.7017C12.2749 15.2912 11.1417 15.636 9.81605 15.636C7.25523 15.636 5.08282 13.9221 4.30484 11.6118H1.04395V14.1247C2.6595 17.309 5.97997 19.4941 9.81605 19.4941C12.4674 19.4941 14.6948 18.628 16.3161 17.1372L13.1549 14.7017Z" fill="#34A853"/>
<path d="M3.99763 9.74763C3.99763 9.09893 4.10648 8.47185 4.3047 7.88232V5.36945H1.04381C0.375815 6.6862 0 8.17253 0 9.74763C0 11.3227 0.37696 12.8091 1.04381 14.1258L4.3047 11.6129C4.10648 11.0234 3.99763 10.3963 3.99763 9.74763Z" fill="#FABB05"/>
<path d="M9.81605 3.85808C11.2632 3.85808 12.5591 4.35315 13.5822 5.32051L16.3837 2.54019C14.6822 0.966228 12.464 0 9.81605 0C5.98112 0 2.6595 2.18511 1.04395 5.36945L4.30484 7.88232C5.08283 5.57203 7.25523 3.85808 9.81605 3.85808Z" fill="#E94235"/>
</svg>
