<svg width="22" height="22" viewBox="0 0 22 22" fill="none" xmlns="http://www.w3.org/2000/svg">
<path d="M18.7782 3.22184C17.7567 2.20039 16.5441 1.39014 15.2095 0.837331C13.875 0.284528 12.4446 2.19161e-06 11 0C9.55548 -2.19158e-06 8.12508 0.284519 6.7905 0.837319C5.45591 1.39012 4.24328 2.20037 3.22184 3.22181C2.20039 4.24326 1.39014 5.45589 0.837332 6.79047C0.284528 8.12505 2.16117e-06 9.55544 0 11C-2.16114e-06 12.4445 0.284519 13.8749 0.837319 15.2095C1.39012 16.5441 2.20037 17.7567 3.22181 18.7782C4.24326 19.7996 5.45589 20.6099 6.79047 21.1627C8.12505 21.7155 9.55544 22 11 22C12.4445 22 13.8749 21.7155 15.2095 21.1627C16.5441 20.6099 17.7567 19.7996 18.7782 18.7782C19.7996 17.7567 20.6099 16.5441 21.1627 15.2095C21.7155 13.875 22 12.4446 22 11C22 9.55548 21.7155 8.12508 21.1627 6.7905C20.6099 5.45591 19.7996 4.24328 18.7782 3.22184ZM11 21C5.48597 21 0.999984 16.5141 0.999984 11C0.999984 5.48595 5.48597 1.00001 11 1.00001C16.5141 1.00001 21 5.486 21 11C21 16.514 16.514 21 11 21Z" fill="#363A33"/>
<path d="M18.5 13H17.5C17.4993 12.3372 17.2356 11.7018 16.767 11.2331C16.2983 10.7644 15.6628 10.5007 15 10.5H14C13.8674 10.5 13.7402 10.5527 13.6465 10.6464C13.5527 10.7402 13.5 10.8674 13.5 11C13.5 11.1326 13.5527 11.2598 13.6465 11.3536C13.7402 11.4473 13.8674 11.5 14 11.5H15C15.3977 11.5005 15.779 11.6586 16.0602 11.9399C16.3414 12.2211 16.4996 12.6023 16.5 13H13C12.8674 12.9999 12.7404 12.9471 12.6466 12.8534C12.5529 12.7597 12.5002 12.6326 12.5 12.5V7.00002C12.5 6.8674 12.4473 6.74022 12.3536 6.64645C12.2598 6.55268 12.1326 6.5 12 6.5C11.8674 6.5 11.7402 6.55268 11.6464 6.64645C11.5527 6.74022 11.5 6.8674 11.5 7.00002V11.5C11.4995 11.8977 11.3414 12.279 11.0602 12.5602C10.779 12.8414 10.3977 12.9996 9.99999 13H8.00002C7.93396 12.9994 7.86842 13.0118 7.80719 13.0367C7.74597 13.0615 7.69028 13.0982 7.64333 13.1447C7.59639 13.1912 7.55912 13.2466 7.53369 13.3075C7.50826 13.3685 7.49517 13.4339 7.49517 13.5C7.49517 13.5661 7.50826 13.6315 7.53369 13.6925C7.55912 13.7535 7.59639 13.8088 7.64333 13.8553C7.69028 13.9018 7.74597 13.9385 7.80719 13.9633C7.86842 13.9882 7.93396 14.0006 8.00002 14H9.99999C10.6463 14.0003 11.2675 13.7493 11.7322 13.3001C11.8672 13.5143 12.0543 13.6908 12.276 13.8132C12.4977 13.9356 12.7468 13.9998 13 14H18.5C18.6318 13.9987 18.7577 13.9455 18.8505 13.8519C18.9432 13.7582 18.9952 13.6318 18.9952 13.5C18.9952 13.3682 18.9432 13.2418 18.8505 13.1482C18.7577 13.0545 18.6318 13.0013 18.5 13ZM6.50002 6.5C6.36741 6.5 6.24023 6.55268 6.14646 6.64645C6.05269 6.74022 6.00001 6.8674 6.00001 7.00002V12.5C5.99986 12.6326 5.94713 12.7597 5.85339 12.8534C5.75965 12.9471 5.63256 12.9999 5.49999 13H4.50001C4.36744 12.9999 4.24035 12.9471 4.14662 12.8534C4.05288 12.7597 4.00015 12.6326 3.99999 12.5V12C3.99871 11.8682 3.94547 11.7423 3.85185 11.6496C3.75822 11.5568 3.63177 11.5048 3.5 11.5048C3.36822 11.5048 3.24178 11.5568 3.14815 11.6496C3.05452 11.7423 3.00128 11.8682 3 12V12.5C3.00045 12.8977 3.15863 13.279 3.43984 13.5602C3.72105 13.8414 4.10232 13.9996 4.50001 14H5.49999C5.89768 13.9996 6.27895 13.8414 6.56016 13.5602C6.84137 13.279 6.99955 12.8977 6.99999 12.5V7.00002C6.99999 6.86741 6.94732 6.74024 6.85356 6.64647C6.7598 6.5527 6.63263 6.50001 6.50002 6.5Z" fill="#363A33"/>
<path d="M9.50003 11.5016C9.50146 11.6334 9.55486 11.7592 9.64862 11.8519C9.74237 11.9445 9.86889 11.9963 10.0007 11.9962C10.1325 11.996 10.2588 11.9438 10.3523 11.8509C10.4459 11.7581 10.4989 11.6321 10.5 11.5003C10.5 11.4101 10.4813 9.27442 8.85357 7.64669C8.7598 7.55292 8.63262 7.50024 8.5 7.50024C8.36739 7.50025 8.24021 7.55293 8.14644 7.64671C8.05267 7.74048 8 7.86767 8 8.00028C8 8.13289 8.05269 8.26007 8.14646 8.35384C9.47017 9.67731 9.50003 11.474 9.50003 11.5016Z" fill="#363A33"/>
</svg>
