<svg width="24" height="14" viewBox="0 0 24 14" fill="none" xmlns="http://www.w3.org/2000/svg">
<path d="M20.8 2.8H12.8V0.8C12.8 0.587827 12.7157 0.384344 12.5657 0.234315C12.4157 0.0842856 12.2122 0 12 0C11.7878 0 11.5843 0.0842856 11.4343 0.234315C11.2843 0.384344 11.2 0.587827 11.2 0.8V2.8H3.2C1.4356 2.8 0 4.2356 0 6V10C0 11.7644 1.4356 13.2 3.2 13.2H20.8C22.5644 13.2 24 11.7644 24 10V6C24 4.2356 22.5644 2.8 20.8 2.8ZM11.6 5.6H12.4C12.6122 5.6 12.8157 5.68429 12.9657 5.83431C13.1157 5.98434 13.2 6.18783 13.2 6.4C13.2 6.61217 13.1157 6.81566 12.9657 6.96569C12.8157 7.11571 12.6122 7.2 12.4 7.2H11.6C11.3878 7.2 11.1843 7.11571 11.0343 6.96569C10.8843 6.81566 10.8 6.61217 10.8 6.4C10.8 6.18783 10.8843 5.98434 11.0343 5.83431C11.1843 5.68429 11.3878 5.6 11.6 5.6ZM8.4 5.6H9.2C9.41217 5.6 9.61566 5.68429 9.76569 5.83431C9.91571 5.98434 10 6.18783 10 6.4C10 6.61217 9.91571 6.81566 9.76569 6.96569C9.61566 7.11571 9.41217 7.2 9.2 7.2H8.4C8.18783 7.2 7.98434 7.11571 7.83431 6.96569C7.68429 6.81566 7.6 6.61217 7.6 6.4C7.6 6.18783 7.68429 5.98434 7.83431 5.83431C7.98434 5.68429 8.18783 5.6 8.4 5.6ZM6 10.4H5.2C4.98783 10.4 4.78434 10.3157 4.63432 10.1657C4.48429 10.0157 4.4 9.81217 4.4 9.6C4.4 9.38783 4.48429 9.18434 4.63432 9.03431C4.78434 8.88428 4.98783 8.8 5.2 8.8H6C6.21217 8.8 6.41566 8.88428 6.56569 9.03431C6.71571 9.18434 6.8 9.38783 6.8 9.6C6.8 9.81217 6.71571 10.0157 6.56569 10.1657C6.41566 10.3157 6.21217 10.4 6 10.4ZM6 7.2H5.2C4.98783 7.2 4.78434 7.11571 4.63432 6.96569C4.48429 6.81566 4.4 6.61217 4.4 6.4C4.4 6.18783 4.48429 5.98434 4.63432 5.83431C4.78434 5.68429 4.98783 5.6 5.2 5.6H6C6.21217 5.6 6.41566 5.68429 6.56569 5.83431C6.71571 5.98434 6.8 6.18783 6.8 6.4C6.8 6.61217 6.71571 6.81566 6.56569 6.96569C6.41566 7.11571 6.21217 7.2 6 7.2ZM15.6 10.4H8.4C8.18783 10.4 7.98434 10.3157 7.83431 10.1657C7.68429 10.0157 7.6 9.81217 7.6 9.6C7.6 9.38783 7.68429 9.18434 7.83431 9.03431C7.98434 8.88428 8.18783 8.8 8.4 8.8H15.6C15.8122 8.8 16.0157 8.88428 16.1657 9.03431C16.3157 9.18434 16.4 9.38783 16.4 9.6C16.4 9.81217 16.3157 10.0157 16.1657 10.1657C16.0157 10.3157 15.8122 10.4 15.6 10.4ZM15.6 7.2H14.8C14.5878 7.2 14.3843 7.11571 14.2343 6.96569C14.0843 6.81566 14 6.61217 14 6.4C14 6.18783 14.0843 5.98434 14.2343 5.83431C14.3843 5.68429 14.5878 5.6 14.8 5.6H15.6C15.8122 5.6 16.0157 5.68429 16.1657 5.83431C16.3157 5.98434 16.4 6.18783 16.4 6.4C16.4 6.61217 16.3157 6.81566 16.1657 6.96569C16.0157 7.11571 15.8122 7.2 15.6 7.2ZM18.8 10.4H18C17.7878 10.4 17.5843 10.3157 17.4343 10.1657C17.2843 10.0157 17.2 9.81217 17.2 9.6C17.2 9.38783 17.2843 9.18434 17.4343 9.03431C17.5843 8.88428 17.7878 8.8 18 8.8H18.8C19.0122 8.8 19.2157 8.88428 19.3657 9.03431C19.5157 9.18434 19.6 9.38783 19.6 9.6C19.6 9.81217 19.5157 10.0157 19.3657 10.1657C19.2157 10.3157 19.0122 10.4 18.8 10.4ZM18.8 7.2H18C17.7878 7.2 17.5843 7.11571 17.4343 6.96569C17.2843 6.81566 17.2 6.61217 17.2 6.4C17.2 6.18783 17.2843 5.98434 17.4343 5.83431C17.5843 5.68429 17.7878 5.6 18 5.6H18.8C19.0122 5.6 19.2157 5.68429 19.3657 5.83431C19.5157 5.98434 19.6 6.18783 19.6 6.4C19.6 6.61217 19.5157 6.81566 19.3657 6.96569C19.2157 7.11571 19.0122 7.2 18.8 7.2Z" fill="white"/>
</svg>
