<svg width="20" height="30" viewBox="0 0 20 30" fill="none" xmlns="http://www.w3.org/2000/svg">
<path d="M1.56258 17.5001H7.08372L5.94377 28.2763C5.93873 28.3088 5.93739 28.4049 5.93739 28.4374C5.93739 29.2987 6.6387 30 7.49997 30C7.98999 30 8.4574 29.7649 8.76753 29.3488L19.6876 13.7501C19.8897 13.4792 19.9992 13.1505 20 12.8126C20 11.9513 19.2989 11.25 18.4376 11.25H11.6801L12.8051 1.74609C12.8088 1.71 12.8113 1.59873 12.8113 1.56258C12.8126 0.70125 12.1113 0 11.25 0C10.76 0 10.2926 0.235078 9.97269 0.66375L0.312364 15C0.110282 15.2709 0.000758525 15.5996 0 15.9375C0 16.7988 0.701311 17.5001 1.56258 17.5001Z" fill="white"/>
</svg>
