<svg width="24" height="24" viewBox="0 0 24 24" fill="none" xmlns="http://www.w3.org/2000/svg">
<path d="M19.2887 13.1354C19.2233 13.0701 19.1714 12.9927 19.1361 12.9073C19.1007 12.822 19.0826 12.7306 19.0827 12.6382L19.0826 12.3816C19.0826 11.7907 19.3127 11.2353 19.7305 10.8176C20.1482 10.3999 20.7036 10.1698 21.2943 10.1698L21.5508 10.1698C21.7373 10.1698 21.9162 10.2439 22.0481 10.3757C22.1799 10.5076 22.254 10.6864 22.2541 10.8729V11.1296C22.2541 11.7204 22.0241 12.2758 21.6063 12.6936C21.1886 13.1113 20.6332 13.3413 20.0424 13.3413H19.7859C19.6935 13.3414 19.602 13.3233 19.5167 13.288C19.4314 13.2526 19.3539 13.2008 19.2887 13.1354Z" fill="#01875F"/>
<path d="M22.2802 13.9718C21.6448 14.4741 20.8649 14.7476 20.0426 14.7476H19.7858C19.2223 14.7476 18.6926 14.5281 18.2943 14.1297C17.896 13.7315 17.6766 13.2019 17.6764 12.6386L17.6764 12.3818C17.6764 12.1853 17.6928 11.9913 17.7233 11.8009C17.4781 11.5455 17.1862 11.3395 16.8634 11.1941C16.5091 11.0348 16.093 11.1927 15.9337 11.5468C15.7744 11.9009 15.9323 12.3172 16.2864 12.4765C16.7114 12.6678 17.0057 13.0614 17.0769 13.513C15.9177 13.0931 14.6687 13.1761 13.6453 13.7603C12.2253 14.571 11.4312 16.1393 11.6222 17.7558C11.6251 17.7794 11.629 17.8029 11.6342 17.826C12.101 19.9229 13.1943 21.788 14.796 23.2194L15.1023 23.4932C15.4794 23.8302 15.9517 24 16.4251 24C16.8624 24 17.3006 23.8551 17.6655 23.5633L17.7968 23.4583L17.932 23.566C18.2982 23.8589 18.7564 24.0123 19.2252 23.999C19.6939 23.9857 20.1428 23.8065 20.4918 23.4933L20.7981 23.2195C22.3998 21.788 23.4931 19.923 23.9599 17.8261C23.9651 17.8029 23.969 17.7794 23.9719 17.7558C24.1475 16.2691 23.4905 14.8253 22.2802 13.9718ZM12.4219 5.15626H3.98437C3.87554 5.15625 3.7682 5.13098 3.67079 5.08244C3.57339 5.0339 3.48858 4.96342 3.42305 4.87653C3.35751 4.78965 3.31303 4.68874 3.29312 4.58175C3.27321 4.47476 3.2784 4.3646 3.30829 4.25996C3.46408 3.71269 3.75959 3.21537 4.16577 2.81688C4.57196 2.41839 5.07484 2.13246 5.625 1.98717V0.703126C5.625 0.314813 5.93981 0 6.32812 0H10.0781C10.4664 0 10.7813 0.314813 10.7813 0.703126V1.98717C11.3314 2.13247 11.8343 2.41841 12.2405 2.81689C12.6467 3.21537 12.9422 3.71269 13.098 4.25996C13.1279 4.3646 13.133 4.47476 13.1131 4.58175C13.0932 4.68874 13.0487 4.78965 12.9832 4.87653C12.9177 4.96342 12.8329 5.0339 12.7355 5.08244C12.6381 5.13098 12.5307 5.15625 12.4219 5.15626Z" fill="#01875F"/>
<path d="M15.7031 3.27954H14.2353C14.3196 3.47131 14.3918 3.66954 14.4501 3.87364C14.6308 4.5064 14.5022 5.1979 14.106 5.72333C13.7095 6.24889 13.08 6.56253 12.4219 6.56253H3.98438C3.3263 6.56253 2.69677 6.24889 2.30039 5.72356C1.90402 5.1979 1.77539 4.5064 1.95614 3.87364C2.0142 3.67096 2.08599 3.47246 2.17102 3.27954H0.703126C0.314813 3.27954 0 3.59435 0 3.98267V23.2952C0 23.6835 0.314813 23.9983 0.703126 23.9983H13.5679C11.9042 22.408 10.764 20.388 10.2617 18.1317C10.2463 18.0622 10.2343 17.992 10.2259 17.9213C9.9685 15.7427 11.0372 13.6302 12.9483 12.5391C13.4199 12.2699 13.9337 12.0765 14.4688 11.9629C14.448 11.6258 14.509 11.2866 14.6515 10.9699C14.9681 10.266 15.6452 9.79424 16.4063 9.73293V3.98267C16.4063 3.59435 16.0915 3.27954 15.7031 3.27954ZM9.14064 20.1546H3.51563C3.12732 20.1546 2.8125 19.8398 2.8125 19.4514C2.8125 19.0631 3.12732 18.7483 3.51563 18.7483H9.14064C9.52895 18.7483 9.84376 19.0631 9.84376 19.4514C9.84376 19.8398 9.52895 20.1546 9.14064 20.1546ZM9.14064 17.3421H3.51563C3.12732 17.3421 2.8125 17.0272 2.8125 16.6389C2.8125 16.2506 3.12732 15.9358 3.51563 15.9358H9.14064C9.52895 15.9358 9.84376 16.2506 9.84376 16.6389C9.84376 17.0272 9.52895 17.3421 9.14064 17.3421ZM9.14064 14.5296H3.51563C3.12732 14.5296 2.8125 14.2147 2.8125 13.8264C2.8125 13.4381 3.12732 13.1233 3.51563 13.1233H9.14064C9.52895 13.1233 9.84376 13.4381 9.84376 13.8264C9.84376 14.2147 9.52895 14.5296 9.14064 14.5296ZM9.14064 11.7171H3.51563C3.12732 11.7171 2.8125 11.4022 2.8125 11.0139C2.8125 10.6256 3.12732 10.3108 3.51563 10.3108H9.14064C9.52895 10.3108 9.84376 10.6256 9.84376 11.0139C9.84376 11.4022 9.52895 11.7171 9.14064 11.7171ZM9.14064 8.90455H3.51563C3.12732 8.90455 2.8125 8.58974 2.8125 8.20142C2.8125 7.81311 3.12732 7.4983 3.51563 7.4983H9.14064C9.52895 7.4983 9.84376 7.81311 9.84376 8.20142C9.84376 8.58974 9.52895 8.90455 9.14064 8.90455ZM12.8906 11.7171H11.9531C11.5648 11.7171 11.25 11.4022 11.25 11.0139C11.25 10.6256 11.5648 10.3108 11.9531 10.3108H12.8906C13.279 10.3108 13.5938 10.6256 13.5938 11.0139C13.5938 11.4022 13.279 11.7171 12.8906 11.7171ZM12.8906 8.90455H11.9531C11.5648 8.90455 11.25 8.58974 11.25 8.20142C11.25 7.81311 11.5648 7.4983 11.9531 7.4983H12.8906C13.279 7.4983 13.5938 7.81311 13.5938 8.20142C13.5938 8.58974 13.279 8.90455 12.8906 8.90455Z" fill="#01875F"/>
</svg>
