<svg width="350" height="331" viewBox="0 0 350 331" fill="none" xmlns="http://www.w3.org/2000/svg">
<path d="M74.2882 303.327C74.1713 303.327 74.0568 303.267 73.9944 303.158C73.9 302.996 73.9546 302.787 74.1168 302.693L133.248 268.208C134.16 267.679 134.66 266.994 134.66 266.281C134.658 265.562 134.148 264.872 133.224 264.338L112.755 251.139C112.596 251.037 112.551 250.826 112.654 250.669C112.756 250.51 112.967 250.464 113.124 250.567L133.579 263.757C134.708 264.409 135.339 265.308 135.341 266.28C135.342 267.246 134.72 268.14 133.591 268.797L74.4597 303.281C74.4052 303.312 74.3468 303.327 74.2882 303.327Z" fill="#DBDEE4"/>
<path d="M63.5178 308.676C60.7383 307.072 60.722 304.47 63.4826 302.866C66.2432 301.262 70.7371 301.262 73.5166 302.865C76.2962 304.469 76.3102 307.07 73.5494 308.674C70.7888 310.278 66.2972 310.279 63.5178 308.676Z" fill="#F6EADF"/>
<path d="M68.5383 310.211C66.6608 310.211 64.7819 309.798 63.3473 308.971C63.3473 308.97 63.3473 308.97 63.3473 308.97C61.8886 308.129 61.0842 306.989 61.0828 305.761C61.0802 304.541 61.8725 303.408 63.3113 302.571C66.1647 300.914 70.8173 300.914 73.6868 302.571C75.1455 303.412 75.9485 304.551 75.9514 305.778C75.9528 306.998 75.1616 308.131 73.7214 308.968C72.2947 309.797 70.4172 310.211 68.5383 310.211ZM63.6876 308.381C66.3696 309.928 70.7177 309.927 73.3783 308.379C74.6003 307.67 75.2717 306.746 75.2705 305.78C75.2691 304.805 74.5856 303.875 73.3465 303.159C70.6658 301.613 66.3164 301.612 63.6544 303.16C62.4338 303.87 61.7622 304.792 61.7636 305.76C61.765 306.735 62.4485 307.666 63.6876 308.381V308.381Z" fill="#DBDEE4"/>
<path d="M68.5003 303.938C69.5836 303.938 70.6324 304.184 71.3772 304.614C71.9755 304.959 72.3189 305.383 72.3195 305.777C72.3201 306.166 71.9836 306.585 71.3963 306.927C70.6577 307.356 69.6136 307.602 68.5314 307.602C67.4491 307.602 66.4011 307.356 65.6567 306.927C65.058 306.581 64.7142 306.157 64.7136 305.762C64.713 305.373 65.0491 304.954 65.636 304.613C66.3742 304.184 67.4181 303.938 68.5003 303.938Z" fill="#01875F"/>
<path d="M90.5156 292.228C89.9061 292.228 89.3165 292.367 88.8974 292.608C88.5609 292.803 88.368 293.041 88.3676 293.263C88.3672 293.482 88.5563 293.717 88.8868 293.909C89.3022 294.151 89.8894 294.289 90.498 294.289C91.1068 294.289 91.6961 294.151 92.1147 293.909C92.4514 293.715 92.6448 293.476 92.6452 293.254C92.6456 293.035 92.4565 292.8 92.1264 292.608C91.7114 292.367 91.1241 292.228 90.5156 292.228Z" fill="#373B42"/>
<path d="M90.498 294.63C89.8304 294.63 89.1804 294.475 88.7149 294.204C88.2695 293.944 88.0247 293.609 88.0274 293.261C88.0274 292.911 88.2761 292.574 88.7267 292.314C89.6628 291.773 91.3662 291.772 92.297 292.313C92.7412 292.571 92.9857 292.905 92.9857 293.254C92.9831 293.608 92.7343 293.944 92.2849 294.203C91.817 294.474 91.1653 294.63 90.498 294.63ZM90.5153 292.569C89.9634 292.569 89.4355 292.69 89.0673 292.903C88.8052 293.054 88.7082 293.204 88.7082 293.263C88.7082 293.303 88.772 293.449 89.058 293.616C89.7879 294.039 91.2094 294.039 91.9448 293.614C92.2068 293.463 92.3053 293.312 92.3053 293.252C92.3053 293.196 92.2109 293.05 91.9555 292.902C91.5896 292.69 91.0657 292.569 90.5153 292.569Z" fill="#373B42"/>
<g opacity="0.1">
<path d="M127.641 242.364L74.605 272.985L4.42151 232.199L74.4847 191.748L144.668 232.534L127.641 242.364Z" fill="black"/>
</g>
<path d="M74.9713 265.98L0.763672 222.855L74.8441 180.085L149.052 223.21L74.9713 265.98Z" fill="#F6EADF"/>
<path d="M74.9715 266.321C74.913 266.321 74.8532 266.305 74.8001 266.275L0.591825 223.15C0.48677 223.089 0.422974 222.976 0.422974 222.855C0.422974 222.734 0.488182 222.621 0.593238 222.561L74.6739 179.791C74.7803 179.73 74.9091 179.73 75.0156 179.791L149.224 222.915C149.329 222.976 149.393 223.089 149.393 223.21C149.393 223.331 149.327 223.444 149.222 223.504L75.1418 266.275C75.0885 266.305 75.0299 266.321 74.9715 266.321ZM1.44274 222.856L74.9715 265.586L148.373 223.209L74.8439 180.479L1.44274 222.856Z" fill="#373B42"/>
<path d="M74.9712 265.98L0.76353 222.855L0.522217 137.714L74.7299 180.839L74.9712 265.98Z" fill="#F6EADF"/>
<path d="M74.9718 266.321C74.9132 266.321 74.8534 266.305 74.8003 266.275L0.592045 223.15C0.488399 223.089 0.423194 222.977 0.423194 222.856L0.182495 137.715C0.182495 137.594 0.247704 137.481 0.352759 137.42C0.459224 137.359 0.588027 137.359 0.694491 137.42L74.9013 180.544C75.005 180.605 75.0702 180.717 75.0702 180.838L75.3123 265.98C75.3123 266.102 75.2471 266.214 75.142 266.275C75.0887 266.305 75.0301 266.321 74.9718 266.321ZM1.10384 222.659L74.63 265.388L74.3893 181.035L0.864546 138.307L1.10384 222.659Z" fill="#373B42"/>
<path d="M74.7299 180.839L0.522217 137.714L74.6025 94.9437L148.81 138.069L74.7299 180.839Z" fill="#373B42"/>
<path d="M74.7297 181.179C74.6711 181.179 74.6113 181.164 74.5582 181.133L0.351347 138.009C0.246291 137.948 0.182495 137.836 0.182495 137.714C0.182495 137.593 0.247704 137.48 0.352759 137.42L74.432 94.6494C74.5385 94.5883 74.6673 94.5883 74.7737 94.6494L148.982 137.774C149.087 137.836 149.151 137.948 149.151 138.07C149.151 138.191 149.086 138.303 148.981 138.363L74.8999 181.133C74.8468 181.164 74.7882 181.179 74.7297 181.179ZM1.20225 137.715L74.7297 180.445L148.131 138.068L74.6021 95.3375L1.20225 137.715Z" fill="#373B42"/>
<path d="M149.056 223.216L74.9653 265.984L74.7272 180.844L103.253 164.38L120.511 154.422L148.818 138.075L149.056 223.216Z" fill="#F6EADF"/>
<path d="M74.965 266.324C74.9064 266.324 74.848 266.309 74.7947 266.279C74.6897 266.219 74.6244 266.106 74.6244 265.985L74.3864 180.844C74.3864 180.723 74.4516 180.61 74.5566 180.549L148.648 137.781C148.754 137.719 148.882 137.72 148.988 137.78C149.093 137.841 149.159 137.953 149.159 138.074L149.397 223.215C149.397 223.336 149.331 223.449 149.226 223.51L75.135 266.279C75.0819 266.309 75.0233 266.324 74.965 266.324ZM75.0672 181.04L75.3039 265.396L148.716 223.019L148.479 138.664L75.0672 181.04Z" fill="#373B42"/>
<path d="M74.7891 171.377L0.581421 128.252L74.6619 85.4815L148.87 128.606L74.7891 171.377Z" fill="#F6EADF"/>
<path d="M74.7895 171.717C74.7309 171.717 74.6712 171.702 74.618 171.671L0.409574 128.546C0.304519 128.485 0.240723 128.373 0.240723 128.251C0.240723 128.13 0.305931 128.018 0.410987 127.957L74.4916 85.1874C74.5981 85.1262 74.7269 85.1262 74.8334 85.1874L149.042 128.312C149.147 128.373 149.21 128.485 149.21 128.607C149.21 128.728 149.145 128.84 149.04 128.901L74.9596 171.671C74.9064 171.702 74.8479 171.717 74.7895 171.717ZM1.26069 128.252L74.7895 170.983L148.191 128.605L74.6619 85.8755L1.26069 128.252Z" fill="#373B42"/>
<path d="M74.7888 171.377L0.581144 128.252L0.339844 43.1107L74.5475 86.2355L74.7888 171.377Z" fill="#F6EADF"/>
<path d="M74.7895 171.717C74.7309 171.717 74.6711 171.702 74.618 171.671L0.40955 128.546C0.305903 128.485 0.240699 128.373 0.240699 128.252L0 43.1116C0 42.9899 0.0652086 42.877 0.170264 42.8164C0.276728 42.7552 0.405532 42.7552 0.511996 42.8164L74.7188 85.9407C74.8225 86.0019 74.8877 86.1136 74.8877 86.2345L75.1298 171.376C75.1298 171.498 75.0646 171.611 74.9595 171.671C74.9064 171.702 74.8478 171.717 74.7895 171.717ZM0.921546 128.056L74.4477 170.784L74.207 86.4311L0.68226 43.7031L0.921546 128.056Z" fill="#373B42"/>
<path d="M74.5476 86.2354L0.339966 43.1105L74.4202 0.340271L148.628 43.4652L74.5476 86.2354Z" fill="#F6EADF"/>
<path d="M74.5477 86.5756C74.4892 86.5756 74.4294 86.5603 74.3763 86.5297L0.169218 43.4054C0.0641621 43.3443 0.000366211 43.232 0.000366211 43.1102C0.000366211 42.9892 0.0655748 42.8769 0.17063 42.8164L74.2513 0.0458863C74.3577 -0.0152954 74.4865 -0.0152954 74.593 0.0458863L148.8 43.1708C148.905 43.232 148.969 43.3443 148.969 43.466C148.969 43.587 148.903 43.6995 148.798 43.7599L74.7178 86.5297C74.6649 86.5603 74.6063 86.5756 74.5477 86.5756ZM1.02033 43.1116L74.5477 85.8416L147.949 43.4646L74.4215 0.733981L1.02033 43.1116Z" fill="#373B42"/>
<path d="M148.874 128.613L74.7831 171.381L74.545 86.2407L103.071 69.7764L120.329 59.8183L148.636 43.472L148.874 128.613Z" fill="#F6EADF"/>
<path d="M74.783 171.721C74.7244 171.721 74.666 171.706 74.6127 171.676C74.5076 171.615 74.4424 171.503 74.4424 171.381L74.2043 86.2412C74.2043 86.1196 74.2696 86.0065 74.3746 85.9459L148.466 43.1773C148.572 43.1161 148.7 43.1167 148.806 43.1767C148.911 43.2372 148.976 43.3495 148.976 43.4713L149.215 128.612C149.215 128.734 149.149 128.847 149.044 128.907L74.953 171.675C74.8999 171.706 74.8413 171.721 74.783 171.721ZM74.8852 86.4366L75.1219 170.792L148.534 128.417L148.297 44.0604L74.8852 86.4366Z" fill="#373B42"/>
<path d="M88.0149 93.9679L104.98 84.1732L105.035 103.667L88.0702 113.462L88.0149 93.9679ZM101.662 101.745L101.629 89.977L91.3875 95.8899L91.421 107.658L101.662 101.745Z" fill="#373B42"/>
<path d="M98.2005 95.9154L98.2116 99.7785L94.8496 101.719L94.8385 97.8563L98.2005 95.9154Z" fill="#373B42"/>
<path d="M128.504 78.4197L128.515 82.2828L125.153 84.2237L125.142 80.3606L128.504 78.4197Z" fill="#373B42"/>
<path d="M118.318 76.4718L135.283 66.6771L135.339 86.1713L118.374 95.966L118.318 76.4718ZM131.966 84.2493L131.932 72.4813L121.691 78.394L121.725 90.162L131.966 84.2493Z" fill="#373B42"/>
<path d="M118.506 115.177L118.517 119.04L115.15 120.984L115.139 117.121L118.506 115.177Z" fill="#373B42"/>
<path d="M121.89 120.962L125.252 119.021L125.274 126.753L123.593 127.724L121.912 128.694L111.821 134.52L111.81 130.651L121.901 124.825L121.89 120.962Z" fill="#373B42"/>
<path d="M115.161 124.847L111.799 126.788L111.81 130.651L108.448 132.592L108.415 121.003L111.777 119.062L111.788 122.925L115.15 120.984L115.161 124.847Z" fill="#373B42"/>
<path d="M115.128 113.258L115.139 117.121L111.777 119.062L111.766 115.199L115.128 113.258Z" fill="#373B42"/>
<path d="M101.534 109.492L101.544 113.355L111.744 107.467L111.755 111.336L111.766 115.199L108.404 117.14L108.393 113.277L98.1935 119.165L98.1827 115.296L94.8154 117.24L94.8046 113.377L98.1716 111.433L101.534 109.492Z" fill="#373B42"/>
<path d="M88.1133 128.676L105.078 118.881L105.134 138.381L88.1686 148.176L88.1133 128.676ZM101.761 136.453L101.727 124.685L91.4861 130.598L91.5195 142.366L101.761 136.453Z" fill="#373B42"/>
<path d="M98.2991 130.623L98.31 134.486L94.9482 136.427L94.9371 132.564L98.2991 130.623Z" fill="#373B42"/>
<path d="M94.8158 117.241L94.8268 121.109L91.4648 123.051L91.454 119.181L94.8158 117.241Z" fill="#373B42"/>
<path d="M115.029 78.3709L115.04 82.234L111.678 84.1751L111.689 88.1276L115.051 86.1865L115.084 97.6446L111.722 99.5857L111.733 103.604L108.371 105.544L108.349 97.6635L111.711 95.7226L111.7 91.9907L108.338 93.9316L108.305 82.2529L111.667 80.312L115.029 78.3709Z" fill="#373B42"/>
<path d="M115.095 101.663L115.106 105.526L111.744 107.467L111.733 103.604L115.095 101.663Z" fill="#373B42"/>
<path d="M118.484 107.451L118.495 111.314L115.128 113.258L115.117 109.395L118.484 107.451Z" fill="#373B42"/>
<path d="M121.879 117.099L121.89 120.962L118.528 122.903L118.517 119.04L121.879 117.099Z" fill="#373B42"/>
<path d="M135.272 90.0138L135.294 97.7219L132.01 99.6179L132.021 103.505L132.032 107.368L128.592 109.354L128.603 113.217L131.965 111.276L131.976 115.139L125.252 119.021L125.241 115.158L125.23 111.295L118.507 115.177L118.495 111.314L128.659 105.446L128.637 97.7376L131.921 95.8415L131.91 91.9547L135.272 90.0138Z" fill="#373B42"/>
<path d="M125.186 95.8365L125.197 99.6994L125.208 103.569L121.846 105.509L121.835 101.641L118.473 103.581L118.463 99.7183L121.824 97.7774L125.186 95.8365Z" fill="#373B42"/>
<path d="M135.393 105.427L135.404 109.29L132.042 111.231L132.031 107.368L135.393 105.427Z" fill="#373B42"/>
<path d="M135.337 113.198L135.348 117.061L131.986 119.002L131.975 115.139L135.337 113.198Z" fill="#373B42"/>
<path d="M131.986 119.002L131.997 122.871L128.636 124.812L128.625 120.943L131.986 119.002Z" fill="#373B42"/>
<path d="M91.4426 115.318L91.4537 119.181L88.0917 121.122L88.0808 117.259L91.4426 115.318Z" fill="#373B42"/>
<path d="M84.2277 110.485C84.0401 110.485 83.8874 110.334 83.8874 110.146L83.8354 91.7361C83.8354 91.6145 83.9007 91.5014 84.0057 91.4409L100.026 82.1915C100.184 82.0978 100.394 82.1517 100.491 82.3159C100.584 82.4787 100.528 82.6868 100.366 82.7806L84.5161 91.9315L84.568 110.144C84.568 110.332 84.4165 110.484 84.2289 110.485C84.2277 110.485 84.2277 110.485 84.2277 110.485Z" fill="#373B42"/>
<path d="M123.229 132.704C123.112 132.704 122.997 132.643 122.933 132.534C122.84 132.371 122.896 132.163 123.058 132.069L138.903 122.921L138.851 104.715C138.851 104.527 139.002 104.375 139.19 104.374C139.191 104.374 139.191 104.374 139.191 104.374C139.379 104.374 139.532 104.525 139.532 104.714L139.584 123.116C139.584 123.238 139.518 123.351 139.413 123.412L123.399 132.658C123.346 132.69 123.287 132.704 123.229 132.704Z" fill="#373B42"/>
<path d="M139.117 78.7944C138.929 78.7944 138.777 78.6429 138.777 78.4547L138.726 60.6337L123.219 69.5864C123.06 69.6801 122.848 69.625 122.754 69.462C122.661 69.2992 122.717 69.0911 122.879 68.9973L138.895 59.7506C139.001 59.6894 139.129 59.69 139.235 59.75C139.34 59.8106 139.405 59.9229 139.405 60.0444L139.457 78.4533C139.457 78.6409 139.306 78.7936 139.118 78.7944C139.117 78.7944 139.117 78.7944 139.117 78.7944Z" fill="#373B42"/>
<path d="M84.354 155.149C84.2954 155.149 84.2371 155.133 84.1837 155.103C84.0787 155.043 84.0135 154.93 84.0135 154.809L83.9615 136.405C83.9615 136.218 84.1131 136.065 84.3007 136.064C84.3021 136.064 84.3021 136.064 84.3021 136.064C84.4896 136.064 84.6424 136.216 84.6424 136.404L84.6929 154.22L100.205 145.263C100.363 145.169 100.573 145.224 100.67 145.388C100.763 145.551 100.707 145.759 100.545 145.853L84.5239 155.102C84.4711 155.133 84.4126 155.149 84.354 155.149Z" fill="#373B42"/>
<path d="M138.408 93.758C139.186 93.3088 139.814 93.6729 139.817 94.5608C139.82 95.4546 139.195 96.536 138.417 96.9852L84.9757 127.84C84.2028 128.286 83.5745 127.928 83.5719 127.034C83.5695 126.146 84.1936 125.059 84.9666 124.613L138.408 93.758Z" fill="#01875F"/>
<path d="M197.093 93.5611L139.043 58.6537L82.5414 91.2748L82.7255 156.199L197.093 93.5611Z" fill="url(#paint0_linear_5_2488)"/>
<path opacity="0.1" d="M301.017 257.735L282.546 247.003C280.944 246.072 278.967 246.069 277.362 246.996L166.094 311.255C162.653 313.242 162.646 318.206 166.082 320.203L182.531 329.763C185.362 331.408 188.856 331.413 191.691 329.776L301.004 266.684C304.446 264.698 304.453 259.732 301.017 257.735Z" fill="black"/>
<path d="M279.516 8.35724C277.799 7.36625 275.396 7.50995 272.763 9.03627L174.308 65.892C172.722 66.8076 171.229 68.1081 169.924 69.6589C169.068 70.6487 168.285 71.7592 167.615 72.9195C166.945 74.0797 166.377 75.2826 165.929 76.5236C165.218 78.4651 164.818 80.4438 164.835 82.3006L165.453 299.74C165.45 302.753 166.506 304.862 168.21 305.846L188.048 317.362C186.332 316.371 185.265 314.255 185.273 311.261L184.643 93.8145C184.627 91.9273 185.034 89.9367 185.77 87.978C186.218 86.7373 186.799 85.5412 187.469 84.381C188.138 83.2208 188.915 82.1219 189.777 81.1205C191.076 79.5815 192.562 78.2926 194.129 77.3823L292.57 20.5501C295.234 19.0258 297.607 18.8803 299.359 19.8918L279.516 8.35724Z" fill="#BEC4CD"/>
<path d="M189.777 81.1203L169.924 69.6586C169.068 70.6484 168.285 71.7589 167.615 72.9192C166.945 74.0794 166.377 75.2823 165.929 76.5233L185.77 87.9779C186.218 86.7372 186.799 85.5411 187.468 84.3809C188.138 83.2209 188.914 82.122 189.777 81.1203Z" fill="#DBDEE4"/>
<path d="M188.044 317.704C187.985 317.704 187.927 317.69 187.873 317.658C187.864 317.654 187.856 317.648 187.847 317.643L168.042 306.14C166.152 305.047 165.109 302.775 165.109 299.742L164.487 82.3032C164.471 79.3087 165.477 75.9148 167.322 72.7482C169.137 69.6287 171.557 67.0871 174.134 65.5917L272.589 8.74061C275.244 7.19678 277.769 6.95608 279.691 8.06641L299.528 19.5887C299.528 19.5893 299.53 19.5901 299.531 19.5907H299.532C299.694 19.6851 299.749 19.8932 299.656 20.056C299.559 20.2182 299.349 20.2734 299.19 20.1798C299.19 20.1798 299.19 20.1798 299.189 20.1798L299.185 20.1772C297.494 19.2039 295.204 19.4386 292.747 20.8433L194.299 77.6832C191.832 79.1079 189.509 81.5465 187.759 84.5503C185.957 87.6478 184.973 90.9373 184.986 93.8135L185.609 311.254C185.599 314.018 186.517 316.078 188.195 317.058L188.215 317.069C188.377 317.164 188.431 317.372 188.338 317.534C188.275 317.643 188.161 317.704 188.044 317.704ZM277.027 8.06057C275.776 8.06057 274.381 8.48683 272.931 9.32968L174.474 66.1808C171.998 67.6176 169.667 70.0715 167.91 73.0911C166.127 76.1541 165.153 79.4245 165.168 82.3006L165.79 299.741C165.79 302.521 166.712 304.584 168.384 305.551L185.998 315.782C185.292 314.6 184.921 313.061 184.928 311.253L184.306 93.8157C184.291 90.8212 185.308 87.4085 187.171 84.2081C188.98 81.1027 191.39 78.5762 193.959 77.0943L292.407 20.253C293.975 19.3569 295.492 18.9048 296.863 18.9048C296.909 18.9048 296.952 18.9054 296.996 18.9062L279.349 8.65568C278.661 8.258 277.877 8.06057 277.027 8.06057Z" fill="#373B42"/>
<path d="M286.396 24.4556C286.338 24.4556 286.279 24.4409 286.226 24.4097L266.347 12.9339C266.185 12.8401 266.129 12.632 266.222 12.4692C266.318 12.3056 266.527 12.2504 266.687 12.3448L286.566 23.8206C286.728 23.9144 286.784 24.1225 286.691 24.2853C286.627 24.3944 286.513 24.4556 286.396 24.4556Z" fill="#373B42"/>
<path d="M175.18 119.897C174.344 119.431 173.586 119.373 173.043 119.686L171.026 120.841C171.582 120.536 172.328 120.587 173.164 121.053C174.834 122.017 176.184 124.363 176.19 126.297L176.189 143.19C176.181 144.175 175.84 144.852 175.289 145.177L177.305 144.022C177.856 143.696 178.198 143.019 178.205 142.034L178.206 125.141C178.201 123.208 176.85 120.861 175.18 119.897Z" fill="#373B42"/>
<path d="M175.289 145.518C175.172 145.518 175.057 145.457 174.995 145.349C174.901 145.186 174.955 144.979 175.116 144.884C175.581 144.609 175.842 144.006 175.849 143.187L175.85 126.296C175.843 124.474 174.563 122.253 172.994 121.347C172.297 120.959 171.655 120.883 171.189 121.14C171.028 121.23 170.821 121.172 170.729 121.008C170.637 120.845 170.695 120.639 170.857 120.546L172.873 119.39C173.536 119.006 174.416 119.081 175.346 119.599C175.347 119.6 175.348 119.601 175.35 119.602C177.137 120.633 178.541 123.066 178.546 125.14L178.545 142.034C178.536 143.104 178.157 143.913 177.477 144.315L175.458 145.472C175.405 145.503 175.346 145.518 175.289 145.518ZM172.477 120.402C172.755 120.476 173.04 120.593 173.33 120.755C175.12 121.789 176.524 124.221 176.531 126.295L176.53 143.19C176.527 143.537 176.484 143.857 176.406 144.144L177.136 143.726C177.597 143.453 177.858 142.85 177.865 142.031L177.866 125.141C177.861 123.319 176.58 121.099 175.011 120.192C174.299 119.795 173.66 119.724 173.212 119.98L172.477 120.402Z" fill="#373B42"/>
<path d="M176.186 126.298C176.186 124.36 174.831 122.014 173.158 121.055C171.485 120.095 170.131 120.888 170.131 122.825L170.133 139.723C170.133 141.661 171.487 144.007 173.16 144.967C174.833 145.926 176.188 145.134 176.188 143.196L176.186 126.298Z" fill="#F6EADF"/>
<path d="M174.503 145.716C174.031 145.716 173.518 145.564 172.991 145.262C171.197 144.233 169.793 141.8 169.793 139.724L169.791 122.825C169.791 121.758 170.167 120.952 170.852 120.556C171.531 120.163 172.41 120.234 173.328 120.76C175.12 121.787 176.525 124.22 176.527 126.298L176.528 143.196C176.528 144.262 176.151 145.069 175.467 145.465C175.177 145.633 174.851 145.716 174.503 145.716ZM171.817 120.987C171.587 120.987 171.376 121.039 171.193 121.145C170.728 121.414 170.471 122.011 170.471 122.825L170.474 139.723C170.474 141.548 171.754 143.768 173.329 144.671C174.028 145.072 174.664 145.142 175.125 144.876C175.59 144.606 175.847 144.009 175.847 143.196L175.846 126.297C175.844 124.472 174.563 122.253 172.99 121.35C172.568 121.109 172.169 120.987 171.817 120.987Z" fill="#373B42"/>
<path d="M178.339 215.348C178.339 213.247 176.87 210.704 175.057 209.664C173.243 208.624 171.775 209.483 171.775 211.583L171.78 252.386C171.78 254.487 173.249 257.03 175.062 258.07C176.875 259.111 178.344 258.252 178.344 256.151L178.339 215.348Z" fill="#F0F2F5"/>
<path d="M176.506 214.338C176.506 215.25 175.862 215.614 175.076 215.163C174.279 214.706 173.645 213.609 173.645 212.697C173.645 211.762 174.279 211.392 175.075 211.849C175.862 212.3 176.506 213.403 176.506 214.338Z" fill="#373B42"/>
<path d="M194.813 316.694C189.555 319.73 185.285 317.298 185.268 311.255L184.645 93.817C184.628 87.7747 188.87 80.4271 194.128 77.3909L292.579 20.5464C297.837 17.5103 302.107 19.9432 302.124 25.9858L302.747 243.423C302.764 249.466 298.523 256.813 293.264 259.849L194.813 316.694Z" fill="#373B42"/>
<path d="M190.539 318.346C189.574 318.346 188.679 318.12 187.888 317.664C185.988 316.57 184.936 314.294 184.927 311.255L184.304 93.8183C184.287 87.6812 188.618 80.179 193.958 77.0969L292.408 20.2524C295.07 18.7152 297.589 18.4759 299.503 19.5762C301.404 20.6706 302.455 22.9462 302.464 25.9852L303.088 243.423C303.105 249.559 298.774 257.061 293.434 260.144L194.983 316.989C193.422 317.89 191.91 318.346 190.539 318.346ZM296.85 19.5766C295.6 19.5766 294.203 20.0015 292.748 20.8411L194.298 77.6858C189.146 80.6604 184.968 87.8965 184.985 93.8169L185.607 311.254C185.616 314.04 186.546 316.107 188.228 317.074C189.922 318.049 192.201 317.809 194.643 316.4L293.094 259.555C298.246 256.58 302.424 249.344 302.407 243.424L301.783 25.986C301.775 23.201 300.844 21.1333 299.164 20.1659C298.478 19.772 297.697 19.5766 296.85 19.5766Z" fill="#373B42"/>
<path d="M298.422 21.4636C299.598 22.1429 300.283 23.7956 300.288 25.9891L300.911 243.428C300.919 246.033 300.027 249.022 298.394 251.852C296.766 254.671 294.617 256.949 292.346 258.265L193.897 315.106C191.966 316.224 190.169 316.472 188.971 315.781C187.795 315.102 187.11 313.449 187.105 311.256L186.482 93.8167C186.474 91.212 187.366 88.2226 188.999 85.3929C190.627 82.5739 192.776 80.2961 195.048 78.9795L293.496 22.1386C295.428 21.0207 297.224 20.7721 298.422 21.4636Z" fill="#F6EADF"/>
<path d="M190.535 316.505C189.886 316.505 189.299 316.363 188.801 316.075C187.513 315.332 186.77 313.576 186.764 311.256L186.142 93.8169C186.134 91.1503 187.043 88.0981 188.704 85.2225C190.361 82.353 192.554 80.0315 194.878 78.6851L293.326 21.8438C295.369 20.6617 297.288 20.4151 298.592 21.169C299.881 21.9131 300.624 23.6694 300.629 25.9885L301.251 243.428C301.26 246.094 300.35 249.146 298.689 252.022C297.033 254.892 294.84 257.214 292.516 258.56L194.067 315.401C192.804 316.132 191.588 316.505 190.535 316.505ZM296.851 21.417C295.926 21.417 294.828 21.7607 293.667 22.4329L195.219 79.2742C192.997 80.5614 190.893 82.7952 189.295 85.5628C187.693 88.3359 186.815 91.2664 186.823 93.8149L187.445 311.255C187.451 313.325 188.069 314.867 189.142 315.486C190.231 316.113 191.901 315.869 193.727 314.812L292.175 257.971C294.397 256.683 296.502 254.45 298.099 251.681C299.701 248.908 300.579 245.978 300.571 243.429L299.948 25.9895C299.943 23.9198 299.325 22.3774 298.252 21.7577C297.855 21.5299 297.382 21.417 296.851 21.417Z" fill="#373B42"/>
<path d="M221.207 75.332C222.669 74.499 259.764 53.2146 261.485 52.2277C264.234 50.648 266.471 46.774 266.474 43.6002L266.468 37.8159C264.747 38.8031 218.182 65.521 216.221 66.646L216.221 72.4263C216.224 75.6041 218.458 76.9117 221.207 75.332Z" fill="#373B42"/>
<path d="M218.999 76.3455C218.463 76.3455 217.964 76.2185 217.522 75.9625C216.464 75.3515 215.882 74.0962 215.881 72.4268V66.6459C215.881 66.5244 215.946 66.4113 216.052 66.3507C218.013 65.2259 264.579 38.5078 266.3 37.5206C266.403 37.4608 266.535 37.46 266.639 37.5212C266.744 37.5818 266.809 37.6941 266.809 37.8159L266.814 43.6006C266.812 46.8875 264.497 50.8898 261.655 52.5226C261.27 52.7434 222.884 74.7676 221.378 75.6272C220.547 76.1048 219.737 76.3455 218.999 76.3455ZM216.562 66.8436V72.4268C216.563 73.8423 217.024 74.8888 217.863 75.3734C218.692 75.854 219.822 75.7351 221.037 75.0369C221.039 75.0369 221.039 75.0363 221.039 75.0363C222.528 74.1872 260.93 52.1531 261.316 51.9323C263.97 50.4078 266.131 46.6701 266.133 43.6006L266.128 38.4035C260.861 41.426 220.029 64.8544 216.562 66.8436Z" fill="#373B42"/>
<path d="M254.766 51.6254C255.335 50.6383 255.65 49.5891 255.65 48.673C255.65 47.8483 255.399 47.2485 254.944 46.9847C254.496 46.7257 253.864 46.8031 253.165 47.2034L221.956 65.107C221.164 65.562 220.412 66.3578 219.84 67.3493C219.266 68.3425 218.951 69.3981 218.951 70.3203C218.951 71.1356 219.2 71.7285 219.652 71.9897C220.103 72.2509 220.737 72.1728 221.44 71.7701L252.648 53.8674C253.442 53.4118 254.194 52.616 254.766 51.6254Z" fill="#F6EADF"/>
<path d="M262.858 46.9834C263.428 45.9962 263.741 44.9479 263.742 44.0317C263.742 43.2072 263.491 42.6085 263.037 42.3448C262.588 42.0846 261.954 42.1633 261.252 42.5652C260.459 43.02 259.708 43.816 259.136 44.8076C258.562 45.8008 258.246 46.8562 258.246 47.7783C258.247 48.5926 258.496 49.1857 258.947 49.4477C259.398 49.709 260.033 49.6311 260.736 49.2284C261.532 48.7719 262.285 47.9749 262.858 46.9834Z" fill="#F6EADF"/>
<path d="M262.102 46.5432C262.441 45.9563 262.628 45.333 262.628 44.7884C262.628 44.2982 262.479 43.9424 262.209 43.7856C261.942 43.6308 261.565 43.6777 261.148 43.9166C260.677 44.1871 260.23 44.6603 259.89 45.2497C259.549 45.8402 259.361 46.4675 259.361 47.0157C259.361 47.5 259.509 47.8524 259.778 48.0081C260.046 48.1635 260.423 48.1172 260.841 47.8777C261.314 47.6066 261.762 47.1327 262.102 46.5432Z" fill="#01875F"/>
<path d="M266.304 28.9781C268.324 27.812 268.308 25.9188 266.301 24.7531C264.268 23.5718 261.027 23.5722 259.007 24.7382C256.935 25.9347 256.925 27.812 258.957 28.9934C260.964 30.1593 264.232 30.1746 266.304 28.9781Z" fill="#373B42"/>
<path d="M184.686 108.269C184.628 108.269 184.569 108.254 184.516 108.223L164.697 96.7817C164.535 96.688 164.479 96.4798 164.572 96.317C164.667 96.1534 164.877 96.0983 165.038 96.1927L184.856 107.634C185.019 107.728 185.074 107.936 184.981 108.099C184.918 108.208 184.803 108.269 184.686 108.269Z" fill="#373B42"/>
<path d="M185.231 298.834C185.173 298.834 185.114 298.82 185.061 298.789L165.243 287.347C165.081 287.254 165.025 287.045 165.118 286.883C165.213 286.718 165.423 286.665 165.584 286.758L185.401 298.199C185.564 298.293 185.619 298.501 185.526 298.664C185.463 298.773 185.348 298.834 185.231 298.834Z" fill="#373B42"/>
<path d="M205.716 143.379L233.461 127.361L233.552 159.242L205.807 175.26L205.716 143.379ZM228.035 156.098L227.981 136.853L211.232 146.522L211.287 165.768L228.035 156.098Z" fill="#01875F"/>
<path d="M222.374 146.565L222.392 152.882L216.894 156.056L216.876 149.739L222.374 146.565Z" fill="#01875F"/>
<path d="M271.933 117.952L271.95 124.27L266.452 127.444L266.434 121.126L271.933 117.952Z" fill="#01875F"/>
<path d="M255.275 114.767L283.019 98.7485L283.11 130.629L255.365 146.648L255.275 114.767ZM277.594 127.486L277.539 108.24L260.791 117.91L260.845 137.156L277.594 127.486Z" fill="#01875F"/>
<path d="M255.582 178.064L255.6 184.382L250.093 187.561L250.075 181.243L255.582 178.064Z" fill="#01875F"/>
<path d="M261.116 187.525L266.614 184.351L266.65 196.996L263.901 198.583L261.151 200.171L244.649 209.698L244.631 203.371L261.134 193.843L261.116 187.525Z" fill="#01875F"/>
<path d="M250.111 193.879L244.613 197.053L244.631 203.371L239.133 206.545L239.079 187.592L244.577 184.418L244.595 190.736L250.093 187.561L250.111 193.879Z" fill="#01875F"/>
<path d="M250.058 174.926L250.075 181.243L244.577 184.418L244.559 178.1L250.058 174.926Z" fill="#01875F"/>
<path d="M227.825 168.768L227.843 175.086L244.523 165.455L244.541 171.783L244.559 178.101L239.061 181.275L239.043 174.957L222.363 184.588L222.345 178.26L216.838 181.439L216.82 175.122L222.327 171.942L227.825 168.768Z" fill="#01875F"/>
<path d="M205.877 200.14L233.622 184.122L233.712 216.012L205.968 232.031L205.877 200.14ZM228.196 212.859L228.142 193.614L211.393 203.284L211.448 222.529L228.196 212.859Z" fill="#01875F"/>
<path d="M222.535 203.325L222.553 209.643L217.055 212.817L217.037 206.5L222.535 203.325Z" fill="#01875F"/>
<path d="M216.838 181.439L216.856 187.767L211.358 190.941L211.34 184.614L216.838 181.439Z" fill="#01875F"/>
<path d="M249.896 117.872L249.913 124.19L244.415 127.364L244.434 133.828L249.932 130.654L249.985 149.392L244.487 152.567L244.506 159.138L239.007 162.312L238.971 149.423L244.469 146.249L244.452 140.146L238.954 143.32L238.9 124.221L244.397 121.047L249.896 117.872Z" fill="#01875F"/>
<path d="M250.004 155.963L250.021 162.281L244.523 165.455L244.505 159.138L250.004 155.963Z" fill="#01875F"/>
<path d="M255.546 165.429L255.564 171.747L250.057 174.926L250.039 168.608L255.546 165.429Z" fill="#01875F"/>
<path d="M261.097 181.208L261.115 187.525L255.617 190.7L255.599 184.382L261.097 181.208Z" fill="#01875F"/>
<path d="M283 136.913L283.035 149.519L277.665 152.62L277.683 158.976L277.701 165.294L272.075 168.541L272.093 174.859L277.591 171.685L277.609 178.003L266.613 184.351L266.595 178.033L266.578 171.716L255.582 178.064L255.564 171.747L272.185 162.15L272.149 149.544L277.52 146.444L277.502 140.087L283 136.913Z" fill="#01875F"/>
<path d="M266.506 146.436L266.524 152.753L266.542 159.081L261.044 162.255L261.026 155.927L255.528 159.102L255.51 152.784L261.008 149.61L266.506 146.436Z" fill="#01875F"/>
<path d="M283.199 162.12L283.217 168.437L277.719 171.612L277.701 165.294L283.199 162.12Z" fill="#01875F"/>
<path d="M283.107 174.828L283.125 181.146L277.627 184.32L277.609 178.003L283.107 174.828Z" fill="#01875F"/>
<path d="M277.628 184.32L277.646 190.648L272.148 193.822L272.13 187.494L277.628 184.32Z" fill="#01875F"/>
<path d="M211.322 178.296L211.34 184.614L205.842 187.788L205.824 181.47L211.322 178.296Z" fill="#01875F"/>
<path d="M199.522 170.175C199.334 170.175 199.181 170.024 199.181 169.836L199.096 139.73C199.096 139.608 199.162 139.495 199.267 139.434L225.467 124.307C225.626 124.213 225.835 124.268 225.932 124.431C226.025 124.594 225.969 124.802 225.807 124.896L199.777 139.925L199.862 169.834C199.862 170.022 199.711 170.174 199.523 170.175C199.522 170.175 199.522 170.175 199.522 170.175Z" fill="#373B42"/>
<path d="M263.304 206.513C263.187 206.513 263.073 206.452 263.009 206.343C262.916 206.18 262.971 205.972 263.134 205.878L289.156 190.855L289.071 160.955C289.071 160.767 289.222 160.614 289.41 160.614C289.411 160.614 289.411 160.614 289.411 160.614C289.599 160.614 289.751 160.765 289.751 160.953L289.837 191.05C289.837 191.172 289.771 191.285 289.666 191.345L263.474 206.467C263.421 206.498 263.363 206.513 263.304 206.513Z" fill="#373B42"/>
<path d="M289.289 118.348C289.101 118.348 288.948 118.197 288.948 118.009L288.865 88.4903L263.182 103.318C263.021 103.411 262.812 103.357 262.717 103.194C262.623 103.031 262.679 102.823 262.842 102.729L289.034 87.6074C289.14 87.5462 289.268 87.5468 289.374 87.6068C289.479 87.6674 289.544 87.7797 289.544 87.9014L289.629 118.007C289.629 118.195 289.478 118.348 289.29 118.349C289.289 118.348 289.289 118.348 289.289 118.348Z" fill="#373B42"/>
<path d="M199.729 243.218C199.67 243.218 199.612 243.203 199.559 243.173C199.454 243.112 199.388 243 199.388 242.879L199.303 212.782C199.303 212.594 199.455 212.441 199.642 212.441C199.644 212.441 199.644 212.441 199.644 212.441C199.831 212.441 199.984 212.592 199.984 212.78L200.068 242.289L225.759 227.456C225.917 227.362 226.128 227.417 226.224 227.581C226.317 227.743 226.261 227.951 226.099 228.045L199.899 243.172C199.846 243.203 199.788 243.218 199.729 243.218Z" fill="#373B42"/>
<path d="M90.8131 91.5558L108.626 81.2714L108.684 101.74L90.8711 112.025L90.8131 91.5558ZM105.143 99.722L105.108 87.3655L94.3545 93.5739L94.3895 105.93L105.143 99.722Z" fill="#373B42"/>
<path d="M101.508 93.6008L101.519 97.657L97.9894 99.6949L97.9779 95.6388L101.508 93.6008Z" fill="#373B42"/>
<path d="M133.327 75.2304L133.338 79.2866L129.808 81.3246L129.797 77.2684L133.327 75.2304Z" fill="#373B42"/>
<path d="M122.631 73.1852L140.445 62.9009L140.503 83.3697L122.689 93.6542L122.631 73.1852ZM136.961 81.3515L136.926 68.995L126.173 75.2034L126.208 87.5599L136.961 81.3515Z" fill="#373B42"/>
<path d="M122.829 113.825L122.84 117.881L119.305 119.922L119.293 115.866L122.829 113.825Z" fill="#373B42"/>
<path d="M126.382 119.899L129.912 117.862L129.935 125.98L128.17 126.999L126.405 128.018L115.809 134.135L115.798 130.073L126.393 123.956L126.382 119.899Z" fill="#373B42"/>
<path d="M119.316 123.979L115.786 126.017L115.798 130.073L112.268 132.111L112.233 119.942L115.763 117.904L115.775 121.961L119.305 119.923L119.316 123.979Z" fill="#373B42"/>
<path d="M119.282 111.81L119.293 115.866L115.763 117.904L115.752 113.848L119.282 111.81Z" fill="#373B42"/>
<path d="M105.008 107.857L105.019 111.913L115.729 105.73L115.74 109.792L115.752 113.848L112.222 115.886L112.21 111.83L101.501 118.013L101.489 113.951L97.9538 115.992L97.9423 111.936L101.478 109.895L105.008 107.857Z" fill="#373B42"/>
<path d="M90.9164 127.999L108.73 117.714L108.788 138.189L90.9744 148.474L90.9164 127.999ZM105.246 136.165L105.211 123.809L94.4578 130.017L94.4928 142.373L105.246 136.165Z" fill="#373B42"/>
<path d="M101.611 130.044L101.623 134.1L98.0927 136.138L98.0812 132.082L101.611 130.044Z" fill="#373B42"/>
<path d="M97.9536 115.992L97.9651 120.055L94.4352 122.093L94.4237 118.03L97.9536 115.992Z" fill="#373B42"/>
<path d="M119.178 75.1792L119.189 79.2354L115.659 81.2734L115.671 85.4235L119.201 83.3855L119.235 95.4164L115.705 97.4545L115.717 101.673L112.187 103.711L112.164 95.4363L115.694 93.3983L115.683 89.4797L112.153 91.5178L112.118 79.2552L115.648 77.2172L119.178 75.1792Z" fill="#373B42"/>
<path d="M119.247 99.6353L119.259 103.692L115.729 105.73L115.717 101.673L119.247 99.6353Z" fill="#373B42"/>
<path d="M122.806 105.713L122.817 109.769L119.282 111.81L119.27 107.754L122.806 105.713Z" fill="#373B42"/>
<path d="M126.37 115.843L126.381 119.899L122.851 121.938L122.84 117.881L126.37 115.843Z" fill="#373B42"/>
<path d="M140.432 87.4042L140.455 95.4978L137.007 97.4886L137.018 101.57L137.03 105.626L133.418 107.711L133.43 111.767L136.96 109.729L136.971 113.786L129.911 117.862L129.9 113.805L129.888 109.749L122.829 113.825L122.817 109.769L133.489 103.608L133.466 95.5142L136.914 93.5234L136.902 89.4423L140.432 87.4042Z" fill="#373B42"/>
<path d="M129.842 93.5181L129.854 97.5743L129.865 101.637L126.335 103.675L126.324 99.6123L122.794 101.65L122.782 97.5942L126.312 95.5561L129.842 93.5181Z" fill="#373B42"/>
<path d="M140.56 103.588L140.572 107.644L137.042 109.682L137.03 105.626L140.56 103.588Z" fill="#373B42"/>
<path d="M140.501 111.747L140.513 115.804L136.983 117.842L136.972 113.786L140.501 111.747Z" fill="#373B42"/>
<path d="M136.983 117.842L136.994 121.904L133.465 123.942L133.453 119.88L136.983 117.842Z" fill="#373B42"/>
<path d="M94.4125 113.974L94.424 118.03L90.8939 120.068L90.8824 116.012L94.4125 113.974Z" fill="#373B42"/>
<path d="M86.8358 108.76C86.7154 108.76 86.6173 108.663 86.6173 108.542L86.5626 89.2124C86.5626 89.1343 86.6045 89.0617 86.6719 89.0228L103.494 79.3105C103.596 79.2499 103.73 79.2853 103.792 79.3904C103.852 79.4949 103.816 79.6285 103.712 79.6887L86.9998 89.3379L87.0544 108.541C87.0544 108.661 86.9571 108.759 86.8367 108.76C86.8358 108.76 86.8358 108.76 86.8358 108.76Z" fill="#373B42"/>
<path d="M127.787 132.09C127.712 132.09 127.638 132.051 127.597 131.981C127.537 131.876 127.573 131.743 127.677 131.683L144.385 122.037L144.33 102.84C144.33 102.719 144.427 102.621 144.548 102.621C144.549 102.621 144.549 102.621 144.549 102.621C144.669 102.621 144.767 102.718 144.767 102.839L144.822 122.162C144.822 122.241 144.78 122.313 144.712 122.352L127.896 132.061C127.862 132.081 127.824 132.09 127.787 132.09Z" fill="#373B42"/>
<path d="M144.47 75.4849C144.35 75.4849 144.251 75.3876 144.251 75.2668L144.198 56.3147L127.708 65.8348C127.605 65.8945 127.471 65.86 127.409 65.755C127.35 65.6504 127.386 65.5168 127.49 65.4566L144.306 55.7478C144.374 55.7085 144.456 55.7089 144.525 55.7474C144.592 55.7863 144.634 55.8584 144.634 55.9366L144.689 75.266C144.689 75.3864 144.591 75.4845 144.471 75.485C144.47 75.4849 144.47 75.4849 144.47 75.4849Z" fill="#373B42"/>
<path d="M86.969 155.657C86.9314 155.657 86.8939 155.647 86.8596 155.628C86.7922 155.589 86.7503 155.517 86.7503 155.439L86.6957 136.115C86.6957 135.995 86.793 135.897 86.9134 135.896C86.9143 135.896 86.9143 135.896 86.9143 135.896C87.0347 135.896 87.1328 135.993 87.1328 136.114L87.1866 155.06L103.681 145.537C103.783 145.476 103.918 145.512 103.98 145.617C104.04 145.721 104.004 145.855 103.9 145.915L87.0781 155.627C87.044 155.647 87.0066 155.657 86.969 155.657Z" fill="#373B42"/>
<path d="M231.91 86.3404C233.051 85.6818 233.974 86.2079 233.978 87.5185C233.982 88.8293 233.065 90.4279 231.924 91.0864L202.172 108.264C201.031 108.922 200.099 108.391 200.096 107.08C200.092 105.77 201.018 104.176 202.159 103.517L231.91 86.3404Z" fill="#DBDEE4"/>
<path d="M248.951 90.1977C250.092 89.5392 251.015 90.0653 251.018 91.3759C251.022 92.6866 250.105 94.2852 248.965 94.9437L202.172 122.16C201.031 122.819 200.099 122.288 200.096 120.977C200.092 119.666 201.018 118.073 202.159 117.414L248.951 90.1977Z" fill="#DBDEE4"/>
<path d="M200.096 258.175C199.979 258.175 199.865 258.113 199.801 258.004C199.708 257.841 199.764 257.633 199.926 257.54L220.649 245.576C220.807 245.482 221.019 245.537 221.114 245.701C221.207 245.863 221.152 246.072 220.989 246.165L200.266 258.129C200.213 258.16 200.155 258.175 200.096 258.175Z" fill="#373B42"/>
<path d="M232.094 239.703C231.976 239.703 231.862 239.642 231.798 239.533C231.705 239.37 231.761 239.162 231.923 239.068L267.875 218.316C268.033 218.222 268.245 218.276 268.341 218.44C268.434 218.603 268.378 218.811 268.216 218.905L232.264 239.657C232.211 239.688 232.152 239.703 232.094 239.703Z" fill="#373B42"/>
<path d="M278.143 213.121C278.026 213.121 277.912 213.06 277.848 212.951C277.755 212.788 277.811 212.58 277.973 212.487L289.326 205.933C289.484 205.839 289.694 205.894 289.791 206.058C289.884 206.22 289.828 206.429 289.666 206.522L278.313 213.076C278.26 213.107 278.202 213.121 278.143 213.121Z" fill="#373B42"/>
<path d="M200.096 271.323C199.979 271.323 199.865 271.262 199.801 271.153C199.708 270.99 199.764 270.782 199.926 270.688L235.688 250.045C235.846 249.951 236.057 250.005 236.153 250.169C236.246 250.332 236.19 250.54 236.028 250.634L200.266 271.277C200.213 271.308 200.155 271.323 200.096 271.323Z" fill="#373B42"/>
<path d="M248.784 243.218C248.667 243.218 248.552 243.157 248.489 243.048C248.395 242.885 248.451 242.677 248.614 242.584L264.224 233.572C264.384 233.478 264.592 233.532 264.689 233.697C264.782 233.859 264.726 234.068 264.564 234.161L248.954 243.173C248.901 243.204 248.842 243.218 248.784 243.218Z" fill="#373B42"/>
<path d="M274.853 228.17C274.736 228.17 274.622 228.109 274.558 227.999C274.465 227.837 274.521 227.629 274.683 227.535L289.326 219.083C289.484 218.988 289.694 219.043 289.791 219.207C289.884 219.37 289.828 219.578 289.666 219.672L275.024 228.124C274.971 228.155 274.912 228.17 274.853 228.17Z" fill="#373B42"/>
<path d="M200.096 284.472C199.979 284.472 199.865 284.411 199.801 284.302C199.708 284.139 199.764 283.931 199.926 283.837L258.466 250.045C258.625 249.951 258.835 250.005 258.932 250.169C259.025 250.332 258.969 250.54 258.807 250.634L200.266 284.427C200.213 284.458 200.155 284.472 200.096 284.472Z" fill="#373B42"/>
<path d="M27.8154 205.301C27.9752 205.393 28.1338 205.559 28.2506 205.774L32.6251 213.776C32.9752 214.415 32.6999 214.969 32.1811 214.669L30.3068 213.587L30.2597 230.162C30.2589 230.444 30.0631 230.563 29.8121 230.418L25.6731 228.028C25.4277 227.886 25.2275 227.539 25.2283 227.257L25.2754 210.682L23.4011 209.6C22.8823 209.3 22.6166 208.434 22.9748 208.204L27.3747 205.268C27.4952 205.19 27.6556 205.209 27.8154 205.301Z" fill="#373B42"/>
<path d="M14.9562 197.56C15.116 197.652 15.2746 197.817 15.3913 198.032L19.7658 206.034C20.116 206.673 19.8407 207.227 19.3218 206.927L17.4475 205.845L17.4004 222.421C17.3996 222.703 17.2038 222.821 16.9528 222.676L12.8138 220.286C12.5683 220.144 12.3682 219.798 12.369 219.516L12.4161 202.94L10.5418 201.858C10.023 201.558 9.75734 200.692 10.1156 200.462L14.5154 197.526C14.6358 197.448 14.7964 197.467 14.9562 197.56Z" fill="#373B42"/>
<path d="M34.3181 233.574C34.2557 233.574 34.1945 233.557 34.1373 233.522L7.68306 216.988C7.52346 216.889 7.47557 216.679 7.57539 216.52C7.67521 216.359 7.88512 216.313 8.04471 216.411L34.4988 232.945C34.6584 233.045 34.7063 233.255 34.6065 233.414C34.5427 233.518 34.431 233.574 34.3181 233.574Z" fill="#373B42"/>
<path d="M28.0704 59.2603L45.1355 69.107L118.948 26.2171L101.883 16.3703L28.0704 59.2603Z" fill="#01875F"/>
<path d="M45.136 69.4471C45.0774 69.4471 45.019 69.4318 44.9657 69.4012L27.9006 59.5549C27.7956 59.4944 27.7303 59.3821 27.7303 59.2611C27.7303 59.1394 27.7941 59.027 27.8992 58.9659L101.711 16.0756C101.817 16.0145 101.946 16.0145 102.053 16.0756L119.118 25.9227C119.223 25.9833 119.288 26.0956 119.288 26.2165C119.288 26.3383 119.224 26.4506 119.119 26.5118L45.3076 69.4012C45.2543 69.4318 45.1945 69.4471 45.136 69.4471ZM28.7503 59.2591L45.136 68.7131L118.268 26.2183L101.883 16.7635L28.7503 59.2591Z" fill="#373B42"/>
<path d="M45.1358 69.107L45.1348 91.536L36.6182 77.63L28.1017 81.7658L28.1027 59.3369L45.1358 69.107Z" fill="#01875F"/>
<path d="M45.135 91.8763C45.0192 91.8763 44.9075 91.8165 44.8451 91.7135L36.4894 78.0709L28.2506 82.0727C28.1429 82.1226 28.0206 82.1172 27.9209 82.0548C27.8211 81.9924 27.7614 81.8833 27.7614 81.7662L27.7628 59.337C27.7628 59.2155 27.828 59.103 27.933 59.0426C28.0367 58.9814 28.1683 58.982 28.2721 59.042L45.3054 68.8117C45.4119 68.8723 45.4769 68.9852 45.4769 69.107L45.4755 91.5361C45.4755 91.6883 45.3745 91.8227 45.2267 91.864C45.1961 91.8722 45.1655 91.8763 45.135 91.8763ZM36.6182 77.2896C36.7325 77.2896 36.8442 77.3482 36.908 77.4525L44.7944 90.3284L44.7958 69.3042L28.4434 59.9247L28.442 81.2222L36.4693 77.3235C36.5172 77.3009 36.5677 77.2896 36.6182 77.2896Z" fill="#373B42"/>
<path d="M277.191 297.758C275.585 297.758 273.98 297.403 272.761 296.695L256.415 287.196C256.253 287.101 256.198 286.892 256.293 286.73C256.386 286.567 256.593 286.513 256.758 286.607L273.104 296.107C275.351 297.414 279.025 297.414 281.288 296.107L339.958 262.835C340.12 262.74 340.329 262.799 340.422 262.963C340.514 263.126 340.457 263.334 340.293 263.427L281.626 296.697C280.401 297.404 278.795 297.758 277.191 297.758Z" fill="#DBDEE4"/>
<path d="M346.813 258.466C349.593 260.07 349.609 262.672 346.848 264.276C344.088 265.88 339.594 265.88 336.814 264.276C334.035 262.673 334.021 260.072 336.781 258.468C339.542 256.864 344.034 256.862 346.813 258.466Z" fill="#F6EADF"/>
<path d="M341.838 265.813C339.96 265.813 338.079 265.399 336.644 264.572C335.185 263.73 334.382 262.591 334.38 261.363C334.378 260.143 335.171 259.01 336.611 258.173C339.464 256.518 344.117 256.516 346.984 258.171C348.442 259.013 349.247 260.153 349.25 261.381C349.251 262.601 348.458 263.734 347.02 264.57C345.594 265.399 343.717 265.813 341.838 265.813ZM341.794 257.601C340.039 257.601 338.285 257.988 336.954 258.762C335.732 259.472 335.059 260.395 335.061 261.362C335.062 262.337 335.745 263.267 336.985 263.982C339.665 265.529 344.015 265.529 346.677 263.981C347.899 263.273 348.57 262.349 348.569 261.383C348.567 260.407 347.883 259.477 346.643 258.761C345.304 257.988 343.548 257.601 341.794 257.601Z" fill="#DBDEE4"/>
<path d="M341.831 263.204C340.747 263.204 339.699 262.958 338.954 262.528C338.356 262.183 338.012 261.759 338.012 261.365C338.011 260.975 338.348 260.556 338.935 260.215C339.673 259.786 340.717 259.539 341.8 259.539C342.882 259.539 343.93 259.785 344.674 260.215C345.273 260.56 345.617 260.985 345.617 261.379C345.618 261.769 345.282 262.188 344.695 262.529C343.957 262.958 342.913 263.204 341.831 263.204Z" fill="#01875F"/>
<path d="M321.955 274.425C322.564 274.425 323.154 274.287 323.573 274.045C323.909 273.851 324.103 273.612 324.103 273.39C324.103 273.171 323.914 272.936 323.584 272.744C323.168 272.502 322.581 272.364 321.973 272.364C321.364 272.364 320.774 272.502 320.356 272.744C320.019 272.938 319.826 273.177 319.826 273.399C319.825 273.618 320.014 273.853 320.344 274.045C320.759 274.287 321.346 274.425 321.955 274.425Z" fill="#373B42"/>
<path d="M321.955 274.766C321.29 274.766 320.64 274.611 320.173 274.34C319.729 274.082 319.485 273.747 319.485 273.399C319.485 273.047 319.733 272.71 320.186 272.449C321.124 271.906 322.824 271.91 323.754 272.449C324.201 272.709 324.446 273.045 324.443 273.393C324.443 273.743 324.194 274.08 323.744 274.34C323.274 274.611 322.621 274.766 321.955 274.766ZM321.972 272.704C321.422 272.704 320.895 272.826 320.526 273.039C320.264 273.19 320.165 273.34 320.165 273.399C320.165 273.457 320.26 273.603 320.515 273.752C321.249 274.175 322.667 274.175 323.403 273.75C323.665 273.599 323.762 273.45 323.762 273.391C323.762 273.332 323.668 273.187 323.412 273.038C323.048 272.826 322.523 272.705 321.972 272.704Z" fill="#373B42"/>
<defs>
<linearGradient id="paint0_linear_5_2488" x1="197.093" y1="107.426" x2="82.5414" y2="107.426" gradientUnits="userSpaceOnUse">
<stop offset="0.0334" stop-color="#01875F"/>
<stop offset="1" stop-color="white"/>
</linearGradient>
</defs>
</svg>
