<svg width="312" height="286" viewBox="0 0 312 286" fill="none" xmlns="http://www.w3.org/2000/svg">
<path d="M283.705 205.96C249.486 237.478 248.292 302.948 177.782 281.914C152.183 274.278 141.446 254.145 112.045 255.445C60.017 257.746 38.0825 242.942 29.963 216.04C27.5247 207.962 34.1855 177.728 25.2268 163.426C5.82101 132.446 11.2432 104.47 32.8411 78.9358C44.1969 65.5104 62.9292 62.3345 76.5642 56.4363C92.5342 49.5281 102.01 39.6074 113.121 29.8395C162.609 -13.6657 214.779 -2.62034 246.617 19.0191C273.479 37.2768 280.471 68.5932 280.536 89.9663C280.67 133.551 336.605 157.235 283.705 205.96ZM287.756 235.652C289.997 231.343 288.322 226.034 284.014 223.792C279.706 221.551 274.396 223.226 272.155 227.534C269.913 231.841 271.589 237.152 275.896 239.393C280.205 241.635 285.514 239.96 287.756 235.652ZM55.683 21.4977C56.7082 24.8676 60.2714 26.7684 63.6415 25.743C67.0113 24.7176 68.912 21.1543 67.8869 17.7844C66.8614 14.4145 63.2983 12.5138 59.9284 13.5392C56.5583 14.5646 54.6576 18.1278 55.683 21.4977ZM293.562 88.3306C290.244 92.832 291.204 99.1715 295.706 102.489C300.207 105.807 306.547 104.848 309.864 100.346C313.182 95.8445 312.222 89.5052 307.721 86.1873C303.219 82.8693 296.88 83.8289 293.562 88.3306ZM72.6761 27.6097C70.3914 33.9638 73.6907 40.9674 80.0451 43.2519C86.3995 45.5364 93.4028 42.2373 95.6873 35.8829C97.972 29.5288 94.6725 22.5255 88.3183 20.2407C81.964 17.9564 74.9609 21.2555 72.6761 27.6097ZM291.089 70.31C289.351 72.6687 289.854 75.99 292.212 77.7282C294.571 79.4666 297.892 78.9637 299.63 76.6052C301.369 74.2467 300.866 70.9253 298.508 69.1869C296.149 67.4489 292.828 67.9514 291.089 70.31ZM8.01329 209.045C7.1494 211.447 8.39704 214.096 10.7998 214.96C13.2023 215.823 15.8505 214.576 16.7144 212.173C17.5783 209.77 16.3308 207.122 13.9279 206.258C11.5252 205.394 8.87701 206.642 8.01329 209.045ZM22.1118 192.334C25.0984 186.594 22.8666 179.519 17.1264 176.532C11.3866 173.546 4.31211 175.777 1.32526 181.518C-1.66159 187.257 0.570558 194.332 6.31025 197.319C12.0504 200.306 19.1249 198.074 22.1118 192.334Z" fill="#01875F"/>
<path d="M109.489 109.81C104.25 108.489 99.6675 107.289 96.5474 106.3C90.0047 104.227 86.1718 102.828 81.7602 101.068C73.2301 97.6653 69.8553 100.45 67.8567 104.435C67.6341 104.888 67.4435 105.365 67.3163 105.866C67.2719 106.056 67.2357 106.251 67.2088 106.448C66.1703 111.318 69.9324 117.396 79.3374 122.133C83.6947 124.322 89.7202 126.926 95.0589 129.059C98.3378 130.369 103.749 131.794 109.489 133.203L109.489 109.81Z" fill="#FCD2B1"/>
<path d="M107.976 132.769C100.828 136.445 94.1777 139.91 89.9951 141.885C84.1268 144.656 80.7524 145.58 76.5623 147.197C69.3169 149.993 68.4545 155.205 70.3485 160.141C72.2425 165.078 78.1338 168.269 87.6988 165.504C92.1266 164.218 97.9782 162.149 103.05 160.194C104.427 159.663 106.107 158.88 107.976 157.936V132.769H107.976Z" fill="#FFDBB8"/>
<path d="M101.062 158.235C98.2462 159.696 95.7718 160.951 93.8489 161.859C88.1629 164.544 84.7172 165.993 80.6574 167.56C72.8077 170.59 72.2996 175.138 73.7167 178.969C75.6931 184.312 82.8009 186.962 92.0691 184.282C94.736 183.508 97.8822 182.409 101.061 181.234L101.062 158.235Z" fill="#FFDBB8"/>
<path d="M102.759 118.352C98.2776 119.753 94.3303 120.966 91.4539 121.761C84.8976 123.575 83.5629 123.767 78.9419 124.688C70.0144 126.472 68.809 132.046 69.8855 137.486C70.9592 142.925 74.482 146.903 84.8618 145.756C88.7443 145.322 93.6795 144.523 98.3832 143.646L102.759 118.352Z" fill="#FFDBB8"/>
<path d="M129.619 204.24C134.092 212.746 142.947 226.484 156.431 234.114C165.387 239.191 174.091 240.019 174.091 240.019L166.309 204.24H129.619Z" fill="#FCD2B1"/>
<path d="M183.535 205.835H101.674C93.9279 205.835 87.6483 199.555 87.6483 191.809V27.8325C87.6483 20.0861 93.928 13.8065 101.674 13.8065H183.535C191.281 13.8065 197.561 20.0863 197.561 27.8325V191.809C197.561 199.555 191.281 205.835 183.535 205.835Z" fill="#BEC4CD"/>
<path d="M101.675 196.314C97.3156 196.314 93.7692 192.768 93.7692 188.409V31.233C93.7692 26.8741 97.3154 23.3278 101.675 23.3278H183.535C187.894 23.3278 191.44 26.8742 191.44 31.233V188.409C191.44 192.768 187.894 196.314 183.535 196.314H101.675Z" fill="#01875F"/>
<path d="M184.112 23.0001H100.888C96.5319 23.0001 93 26.9157 93 31.7461V188.253C93 193.084 96.5323 197 100.89 197H184.11C188.468 197 192 193.084 192 188.253V31.7461C192 26.9157 188.468 23.0001 184.112 23.0001Z" fill="#F6EADF"/>
<path d="M164.855 168.705H120.358C115.381 168.705 111.345 164.728 111.345 159.823C111.345 154.918 115.381 150.941 120.358 150.941H164.855C169.833 150.941 173.868 154.918 173.868 159.823C173.868 164.728 169.833 168.705 164.855 168.705Z" fill="#01875F"/>
<path d="M128.592 162.337L129.197 161.051C129.756 161.407 130.606 161.648 131.375 161.648C132.213 161.648 132.528 161.43 132.528 161.086C132.528 160.076 128.743 161.109 128.743 158.641C128.743 157.471 129.815 156.644 131.643 156.644C132.505 156.644 133.46 156.84 134.054 157.184L133.448 158.458C132.831 158.113 132.214 157.999 131.643 157.999C130.828 157.999 130.479 158.251 130.479 158.573C130.479 159.628 134.263 158.607 134.263 161.04C134.263 162.187 133.18 163.002 131.305 163.002C130.245 163.002 129.174 162.715 128.592 162.337Z" fill="#F6EADF"/>
<path d="M134.915 159.823C134.915 157.964 136.37 156.644 138.408 156.644C139.724 156.644 140.761 157.206 141.215 158.216L139.806 158.962C139.468 158.377 138.968 158.113 138.397 158.113C137.477 158.113 136.755 158.744 136.755 159.823C136.755 160.902 137.477 161.533 138.397 161.533C138.967 161.533 139.468 161.28 139.806 160.684L141.215 161.441C140.761 162.428 139.724 163.002 138.408 163.002C136.37 163.002 134.915 161.682 134.915 159.823Z" fill="#F6EADF"/>
<path d="M148.54 156.736V162.91H146.805V162.198C146.351 162.738 145.687 163.002 144.849 163.002C143.079 163.002 141.716 161.762 141.716 159.823C141.716 157.883 143.079 156.644 144.849 156.644C145.617 156.644 146.27 156.885 146.724 157.39V156.736L148.54 156.736ZM146.758 159.823C146.758 158.756 146.06 158.113 145.163 158.113C144.255 158.113 143.556 158.756 143.556 159.823C143.556 160.89 144.255 161.533 145.163 161.533C146.06 161.533 146.758 160.89 146.758 159.823Z" fill="#F6EADF"/>
<path d="M156.622 159.375V162.91H154.805V159.651C154.805 158.652 154.34 158.193 153.536 158.193C152.663 158.193 152.034 158.721 152.034 159.858V162.91H150.217V156.736H151.952V157.459C152.441 156.931 153.175 156.644 154.025 156.644C155.504 156.644 156.622 157.493 156.622 159.375Z" fill="#F6EADF"/>
<path d="M136.812 100.578V63.9488H130.666V100.578H136.812Z" fill="#373B42"/>
<path d="M159.133 100.578V63.949H151.716V100.578H159.133Z" fill="#373B42"/>
<path d="M141.582 100.578V63.9488H138.493V100.578H141.582Z" fill="#373B42"/>
<path d="M146.465 100.578V63.9488H144.208V100.578H146.465Z" fill="#373B42"/>
<path d="M127.193 100.578V63.949H124.571V100.578H127.193Z" fill="#373B42"/>
<path d="M123.164 100.578V63.9488H120.543V100.578H123.164Z" fill="#373B42"/>
<path d="M149.768 100.578V63.949H147.51V100.578H149.768Z" fill="#373B42"/>
<path d="M164.666 100.578V63.9488H161.351V100.578H164.666Z" fill="#373B42"/>
<path d="M161.239 111.7V109.385H172.489V98.5556H174.8V111.7H161.239ZM110.409 111.7V98.5556H112.719V109.385H123.969V111.7H110.409ZM172.489 65.7231V55.1426H161.239V52.8273H174.8V65.7233L172.489 65.7231ZM110.409 65.7231V52.8272H123.969V55.1424H112.719V65.7229H110.409V65.7231Z" fill="#373B42"/>
<path d="M198.758 277.699C214.912 275.021 225.371 259.165 221.478 243.261C218.857 232.553 216.789 223.219 214.974 215.092C212.818 205.434 218.028 188.811 218.354 176.157C218.677 163.625 213.2 139.036 211.045 128.267C210.353 124.804 210.119 116.061 210.049 112.486C210.032 111.515 210.025 110.925 210.025 110.925C210.025 102.601 206.627 99.1733 202.385 99.6492C202.09 99.6815 201.791 99.7342 201.489 99.804C189.845 102.516 188.108 112.946 190.189 131.555C191.879 146.675 191.602 154.716 185.882 161.705C175.72 174.123 151.376 199.17 160.569 227.163C163.338 235.59 165.122 244.745 166.265 253.546C168.317 269.345 183.041 280.303 198.758 277.699Z" fill="#FFDBB8"/>
<path d="M210.049 112.486C208.232 113.135 206.244 112.901 204.564 111.634C201.814 109.553 201.212 103.859 202.385 99.6494C206.627 99.1733 210.026 102.601 210.026 110.925C210.026 110.925 210.032 111.515 210.049 112.486Z" fill="#FFEAD7"/>
<path d="M93.953 175.351C93.953 180.832 91.3672 184.797 86.8984 185.276C83.0242 185.691 79.8438 180.832 79.8438 175.351C79.8438 169.87 83.7626 166.736 87.736 164.691C91.2003 162.908 93.953 169.871 93.953 175.351Z" fill="#FFDBB8"/>
<path d="M94.5049 155.676C94.5049 161.77 90.179 164.971 85.9844 166.054C80.6505 167.432 78.8164 161.77 78.8164 155.676C78.8164 149.581 82.6067 143.866 86.9391 143.866C91.2714 143.866 94.5049 149.581 94.5049 155.676Z" fill="#FFDBB8"/>
<path d="M93.6809 136.905C92.5912 143.202 87.5492 145.736 83.0213 146.105C77.2637 146.575 76.3806 140.398 77.4702 134.1C78.5597 127.803 83.4981 122.575 87.9745 123.349C92.4509 124.124 94.7704 130.607 93.6809 136.905Z" fill="#FFDBB8"/>
<g opacity="0.6">
<path d="M162.193 132.633C164.021 132.633 165.504 131.15 165.504 129.322C165.504 127.493 164.021 126.011 162.193 126.011C160.364 126.011 158.882 127.493 158.882 129.322C158.882 131.15 160.364 132.633 162.193 132.633Z" fill="#01875F"/>
<path d="M142.605 132.633C144.434 132.633 145.916 131.15 145.916 129.322C145.916 127.493 144.434 126.011 142.605 126.011C140.777 126.011 139.294 127.493 139.294 129.322C139.294 131.15 140.777 132.633 142.605 132.633Z" fill="#01875F"/>
<path d="M123.017 132.633C124.846 132.633 126.328 131.15 126.328 129.322C126.328 127.493 124.846 126.011 123.017 126.011C121.188 126.011 119.706 127.493 119.706 129.322C119.706 131.15 121.188 132.633 123.017 132.633Z" fill="#01875F"/>
<path d="M145.606 128.46H156.336C156.812 128.46 157.198 128.846 157.198 129.322C157.198 129.798 156.812 130.184 156.336 130.184H145.606V128.46Z" fill="#01875F"/>
<path d="M125.995 128.46H136.725C137.201 128.46 137.587 128.846 137.587 129.322C137.587 129.798 137.201 130.184 136.725 130.184H125.995V128.46Z" fill="#01875F"/>
</g>
</svg>
