<svg width="24" height="30" viewBox="0 0 24 30" fill="none" xmlns="http://www.w3.org/2000/svg">
<path d="M12.0001 0C5.44022 0 0.0562869 5.37594 0.000287553 11.9839C-0.0637117 20.0958 10.5762 29.2556 11.0242 29.6396C11.3042 29.8796 11.6481 29.9996 12.0001 29.9996C12.3441 29.9996 12.6881 29.8796 12.9681 29.6396C13.4161 29.2556 24 20.1838 24 11.9999C24 5.38394 18.6161 0 12.0001 0ZM12.0001 2.99996C16.9601 2.99996 21 7.03992 21 11.9999C21 14.5438 19.6161 17.3198 17.8801 19.8078C14.3441 17.4158 9.67217 17.4158 6.13621 19.7998C4.35223 17.2398 2.98425 14.4558 3.00025 12.0159C3.04025 7.03992 7.0802 2.99996 12.0001 2.99996Z" fill="#858585"/>
<path d="M12.0002 14.9998C14.4801 14.9998 16.5041 12.9838 16.5041 10.4959C16.5041 8.0079 14.4801 5.99992 12.0002 5.99992C9.52019 5.99992 7.49622 8.0159 7.49622 10.5039C7.49622 12.9918 9.52019 14.9998 12.0002 14.9998Z" fill="#858585"/>
</svg>
