<svg width="22" height="22" viewBox="0 0 22 22" fill="none" xmlns="http://www.w3.org/2000/svg">
<path d="M11 22C10.6642 21.9997 10.3341 21.9203 10.041 21.7693L6.23898 19.8238C4.34872 18.8558 2.77363 17.4401 1.67672 15.7231C0.579817 14.0062 0.000940352 12.0504 1.22271e-08 10.0582V4.65834C-5.42935e-05 4.209 0.180789 3.7756 0.507553 3.44197C0.834317 3.10835 1.28378 2.89819 1.76903 2.85215C3.28175 2.70445 4.77056 2.39439 6.20513 1.92827C7.52043 1.49999 8.78218 0.943257 9.96882 0.267581C10.2792 0.0925988 10.6361 0 11 0C11.3639 0 11.7208 0.0925988 12.0312 0.267581C13.2179 0.943069 14.4797 1.49979 15.7949 1.92827C17.2294 2.39439 18.7182 2.70445 20.231 2.85215C20.7162 2.89819 21.1657 3.10835 21.4924 3.44197C21.8192 3.7756 22.0001 4.209 22 4.65834V10.0582C21.9991 12.0504 21.4202 14.0062 20.3233 15.7231C19.2264 17.4401 17.6513 18.8558 15.761 19.8238L11.959 21.7703C11.6658 21.921 11.3357 22.0001 11 22ZM11 1.55831C10.9504 1.5579 10.9016 1.57013 10.859 1.59364C9.56942 2.32782 8.19839 2.93297 6.76923 3.39879C5.21034 3.9056 3.59238 4.24253 1.94841 4.40268C1.87858 4.40815 1.81352 4.43756 1.76609 4.48509C1.71867 4.53262 1.69234 4.59482 1.69231 4.65937V10.0592C1.69291 11.7735 2.19088 13.4564 3.13467 14.9338C4.07846 16.4113 5.43377 17.6295 7.06031 18.4625L10.8624 20.4079C10.904 20.4295 10.9511 20.4408 10.9989 20.4408C11.0467 20.4408 11.0937 20.4295 11.1354 20.4079L14.9397 18.4625C16.5662 17.6295 17.9215 16.4113 18.8653 14.9338C19.8091 13.4564 20.3071 11.7735 20.3077 10.0592V4.65834C20.3077 4.59378 20.2813 4.53158 20.2339 4.48405C20.1865 4.43652 20.1214 4.40711 20.0516 4.40165C18.4076 4.24149 16.7897 3.90456 15.2308 3.39775C13.8017 2.93259 12.4307 2.32814 11.141 1.59468C11.0987 1.5706 11.0498 1.55799 11 1.55831Z" fill="#363A33"/>
<path d="M10.4359 13.3155C10.2286 13.3156 10.0285 13.2453 9.87405 13.118L7.33559 11.0395C7.17819 10.8999 7.08558 10.7095 7.07715 10.5083C7.06872 10.3071 7.14513 10.1107 7.29037 9.96029C7.43562 9.80985 7.63843 9.717 7.85632 9.70122C8.07422 9.68543 8.29029 9.74792 8.45928 9.8756L10.3817 11.449L14.0495 7.84598C14.1251 7.76958 14.2163 7.70778 14.318 7.66416C14.4197 7.62055 14.5298 7.59599 14.6418 7.59191C14.7539 7.58784 14.8658 7.60434 14.9709 7.64044C15.076 7.67654 15.1722 7.73153 15.254 7.80221C15.3358 7.87289 15.4016 7.95785 15.4474 8.05215C15.4933 8.14644 15.5183 8.24819 15.5211 8.35148C15.5239 8.45477 15.5043 8.55754 15.4636 8.65381C15.4228 8.75007 15.3617 8.83792 15.2838 8.91223L11.053 13.0692C10.974 13.147 10.8785 13.2091 10.7723 13.2515C10.6661 13.2938 10.5516 13.3156 10.4359 13.3155Z" fill="#363A33"/>
</svg>
