<svg width="24" height="24" viewBox="0 0 24 24" fill="none" xmlns="http://www.w3.org/2000/svg">
<path d="M12.1232 18.9617C12.8762 19.7156 12.8715 20.9286 12.1232 21.6769L10.4298 23.3703C9.68772 24.1143 8.46795 24.1237 7.71457 23.3703L0.629616 16.2853C-0.11867 15.5366 -0.11867 14.3184 0.629616 13.5701L2.32298 11.8767C3.07131 11.1283 4.28427 11.1237 5.03822 11.8767L12.1232 18.9617ZM0.915059 18.1306C0.741835 17.9573 0.453848 17.9892 0.320126 18.1944C-0.211066 19.0097 -0.0472497 19.9926 0.561459 20.6013L3.39861 23.4385C4.00204 24.0419 4.98417 24.2155 5.80522 23.6801C6.01056 23.5462 6.04276 23.2583 5.86944 23.0849L0.915059 18.1306ZM13.2876 8.09786C12.9876 7.79836 12.5014 7.79836 12.2014 8.09786L8.0976 12.2017C7.79761 12.5017 7.79761 12.9879 8.0976 13.2879L10.712 15.9023C11.011 16.2013 11.4972 16.2023 11.7982 15.9023L15.902 11.7985C16.202 11.4985 16.202 11.0123 15.902 10.7123L13.2876 8.09786ZM23.0855 5.86875C23.2589 6.04212 23.5469 6.00981 23.6808 5.80438C24.2157 4.98314 24.04 4.00077 23.4382 3.39888L20.601 0.561723C19.9938 -0.0450651 19.0116 -0.212289 18.1952 0.319382C17.9899 0.453104 17.9579 0.741139 18.1312 0.914412L23.0855 5.86875ZM16.2851 0.62988C15.5363 -0.118406 14.3181 -0.118886 13.5698 0.62988L11.8765 2.32324C11.1281 3.07153 11.1235 4.28448 11.8765 5.03848L18.9614 12.1234C19.7161 12.8772 20.9291 12.871 21.6767 12.1234L23.37 10.4301C24.1183 9.68179 24.1183 8.46361 23.37 7.71484L16.2851 0.62988Z" fill="#01875F"/>
</svg>
