<svg width="34" height="34" viewBox="0 0 34 34" fill="none" xmlns="http://www.w3.org/2000/svg">
<path d="M3.4 5.43398V28.5661C3.4 29.6893 4.32798 30.6 5.46488 30.6H28.5412C29.672 30.6 30.6 29.6893 30.6 28.5661V5.43398C30.6 4.31074 29.672 3.40002 28.5412 3.40002H5.46488C4.32797 3.40002 3.4 4.31074 3.4 5.43398ZM7.82477 16.1136H10.2584C10.5964 16.1136 10.8729 16.3868 10.8729 16.7207V17.844H12.4339V16.7207C12.4339 16.3868 12.7043 16.1136 13.0484 16.1136H15.2362C16.0411 16.1285 16.0456 17.3122 15.2362 17.3279H13.663V18.4511C13.663 18.7911 13.3864 19.0583 13.0484 19.0583H10.2584C9.92036 19.0583 9.64381 18.7911 9.64381 18.4511V17.3279H8.43932V17.9775C8.43932 18.3115 8.16276 18.5847 7.82477 18.5847C7.48677 18.5847 7.21022 18.3115 7.21022 17.9775V16.7207C7.21022 16.3868 7.48677 16.1136 7.82477 16.1136ZM7.21022 14.195V8.74896C7.21022 8.41504 7.48677 8.14182 7.82477 8.14182H13.2881C13.6323 8.14182 13.9027 8.41504 13.9027 8.74896V14.195C13.9027 14.529 13.6323 14.8022 13.2881 14.8022H7.82477C7.48677 14.8022 7.21022 14.529 7.21022 14.195ZM25.7819 17.8015H18.3397V24.8686C18.3266 25.6624 17.1255 25.6688 17.1106 24.8686V17.1943C17.1106 16.8543 17.3872 16.5872 17.7252 16.5872H25.7819C26.5878 16.5953 26.5937 17.7887 25.7819 17.8015ZM26.9496 19.805V25.2511C26.9496 25.5851 26.673 25.8582 26.335 25.8582H20.8655C20.5275 25.8582 20.2509 25.5851 20.2509 25.2511V19.805C20.2509 19.4711 20.5275 19.1979 20.8655 19.1979H26.335C26.673 19.1979 26.9496 19.4711 26.9496 19.805ZM17.7252 11.0561C18.0632 11.0561 18.3397 11.3293 18.3397 11.6632V14.5776C18.3246 15.3731 17.1264 15.3768 17.1106 14.5775V12.2704H16.0413C15.7033 12.2704 15.4267 11.9972 15.4267 11.6632V8.74896C15.4267 8.41504 15.7033 8.14182 16.0413 8.14182H17.7252C18.0632 8.14182 18.3397 8.41504 18.3397 8.74896C18.3397 9.08288 18.0632 9.3561 17.7252 9.3561H16.6558V11.0561H17.7252ZM12.7166 21.1711V22.9925H10.8791V21.1711H12.7166ZM7.66498 20.0904C8.00913 20.0904 8.27953 20.3636 8.27953 20.6975V24.6439H13.8597V20.7522C13.8698 19.9543 15.0816 19.9524 15.0888 20.7522C15.0888 20.7522 15.0888 25.2511 15.0888 25.2511C15.0888 25.5851 14.8184 25.8582 14.4742 25.8582H7.66498C7.32698 25.8582 7.05043 25.5851 7.05043 25.2511V20.6975C7.05043 20.3636 7.32698 20.0904 7.66498 20.0904ZM26.9496 14.195C26.9496 14.529 26.673 14.8022 26.335 14.8022H20.8655C20.5275 14.8022 20.2509 14.529 20.2509 14.195V8.74896C20.2509 8.41504 20.5275 8.14182 20.8655 8.14182H26.335C26.673 8.14182 26.9496 8.41504 26.9496 8.74896V14.195Z" fill="white"/>
<path d="M25.5 20.4H21.25V24.65H25.5V20.4ZM24.2927 23.4427H22.4573V21.6073H24.2927V23.4427Z" fill="white"/>
<path d="M21.25 13.6H25.5V9.34998H21.25V13.6ZM22.4573 10.5573H24.2927V12.3926H22.4573V10.5573Z" fill="white"/>
<path d="M12.75 9.34998H8.5V13.6H12.75V9.34998ZM11.5472 12.3926H9.70283V10.5573H11.5472V12.3926Z" fill="white"/>
<path d="M0.574143 7.64999C0.891213 7.64999 1.14829 7.37348 1.14829 7.03242V1.23515H6.22586C6.54293 1.23515 6.8 0.958627 6.8 0.617573C6.8 0.276518 6.54293 0 6.22586 0H0.574143C0.257072 0 0 0.276518 0 0.617573V7.03243C0 7.37348 0.257072 7.64999 0.574143 7.64999Z" fill="white"/>
<path d="M33.4252 0H27.7666C27.0129 0.014093 27.0093 1.2206 27.7666 1.23515C27.7666 1.23515 32.8503 1.23515 32.8503 1.23515V7.03243C32.8503 7.37348 33.1077 7.65 33.4252 7.65C33.7426 7.65 34 7.37348 34 7.03243V0.617573C34 0.276518 33.7426 0 33.4252 0Z" fill="white"/>
<path d="M6.23338 32.7648H1.14967V26.9675C1.14967 26.6265 0.89229 26.35 0.574836 26.35C0.257383 26.35 0 26.6265 0 26.9675V33.3824C0 33.7235 0.257383 34 0.574836 34H6.23338C6.98707 33.9859 6.99067 32.7794 6.23338 32.7648Z" fill="white"/>
<path d="M33.4259 26.35C33.1088 26.35 32.8517 26.6265 32.8517 26.9675V32.7648H27.7741C27.4571 32.7648 27.2 33.0413 27.2 33.3824C27.2 33.7235 27.4571 34 27.7741 34H33.4259C33.7429 34 34 33.7235 34 33.3824V26.9675C34 26.6265 33.7429 26.35 33.4259 26.35Z" fill="white"/>
</svg>
