<svg width="24" height="26" viewBox="0 0 24 26" fill="none" xmlns="http://www.w3.org/2000/svg">
<path fill-rule="evenodd" clip-rule="evenodd" d="M16.0906 22.1108C15.4827 22.1108 14.9128 21.8628 14.4853 21.4124L13.3486 20.2145C13.2234 20.0829 13.1549 19.9073 13.1549 19.7205C13.1549 19.5336 13.2234 19.358 13.3486 19.2265L18.9168 13.3584C19.0415 13.2269 19.2078 13.1545 19.3854 13.1545C19.5629 13.1545 19.7292 13.2269 19.8539 13.3584L20.9907 14.5563C21.876 15.4896 21.876 17.0073 20.9907 17.9406L17.6964 21.4124C17.2689 21.8628 16.6986 22.1108 16.0906 22.1108ZM17.1222 19.1991C17.0508 19.1991 16.9799 19.1702 16.9256 19.113C16.8165 18.9985 16.8165 18.8127 16.9256 18.6982L17.0747 18.5407C17.1838 18.4263 17.3599 18.4263 17.4685 18.5407C17.5771 18.6557 17.5771 18.841 17.4685 18.9555L17.3188 19.113C17.2645 19.1702 17.1936 19.1991 17.1222 19.1991ZM16.143 20.2306C16.072 20.2306 16.0006 20.2023 15.9463 20.145C15.8378 20.0306 15.8378 19.8447 15.9463 19.7303L16.096 19.5728C16.2046 19.4583 16.3807 19.4583 16.4893 19.5728C16.5979 19.6872 16.5979 19.8731 16.4893 19.9875L16.3401 20.145C16.3148 20.172 16.2843 20.1935 16.2504 20.2082C16.2165 20.223 16.1799 20.2306 16.143 20.2306ZM19.0802 17.1355C19.0087 17.1355 18.9378 17.1071 18.8835 17.0494C18.7749 16.9349 18.7749 16.7495 18.8835 16.6351L19.0332 16.4776C19.1418 16.3626 19.3179 16.3626 19.4265 16.4776C19.535 16.592 19.535 16.7774 19.4265 16.8919L19.2768 17.0499C19.2225 17.1071 19.1516 17.1355 19.0802 17.1355ZM18.1014 18.167C18.0645 18.167 18.0279 18.1594 17.994 18.1446C17.9601 18.1299 17.9296 18.1084 17.9043 18.0814C17.7957 17.967 17.7957 17.7811 17.9043 17.6666L18.054 17.5091C18.1626 17.3947 18.3386 17.3947 18.4472 17.5091C18.5563 17.6236 18.5563 17.8095 18.4472 17.9239L18.298 18.0814C18.2728 18.1084 18.2424 18.1298 18.2086 18.1446C18.1748 18.1593 18.1383 18.1669 18.1014 18.167ZM11.6112 18.2238H11.6108C11.1764 18.2238 10.7333 18.0623 10.3635 17.7694L0.659768 10.0818C0.267002 9.77122 0.0341793 9.30802 0.0033645 8.77781C-0.0313633 8.17227 0.204394 7.55402 0.634334 7.12408L7.12451 0.633904C7.52755 0.230866 8.08711 0 8.65987 0C9.23997 0 9.74523 0.23429 10.0822 0.659338L17.7693 10.3631C18.3797 11.1334 18.3704 12.1454 17.7468 12.7686L12.769 17.7469C12.4569 18.0589 12.0568 18.2238 11.6112 18.2238ZM11.8054 16.5725C11.7418 16.5725 11.6773 16.5519 11.6235 16.5089L4.94155 11.2156C4.81487 11.1148 4.79335 10.9304 4.89362 10.8038C4.94198 10.7428 5.01256 10.7035 5.08987 10.6945C5.16718 10.6855 5.24489 10.7076 5.30595 10.7558L11.9879 16.0491C12.0488 16.0975 12.088 16.1682 12.0969 16.2455C12.1058 16.3228 12.0836 16.4005 12.0353 16.4614C12.0079 16.4961 11.9729 16.5241 11.9331 16.5434C11.8933 16.5626 11.8496 16.5725 11.8054 16.5725Z" fill="#01875F"/>
<path fill-rule="evenodd" clip-rule="evenodd" d="M14.1586 19.1345C14.0809 19.1345 14.0065 19.1037 13.9517 19.0484L13.1232 18.2203C13.1437 18.2012 13.1643 18.1817 13.1843 18.1616L18.1621 13.1838C18.1822 13.1638 18.2012 13.1432 18.2208 13.1227L19.0489 13.9513C19.0762 13.9785 19.0978 14.0108 19.1126 14.0464C19.1274 14.082 19.135 14.1201 19.135 14.1586C19.135 14.1972 19.1274 14.2353 19.1126 14.2709C19.0978 14.3065 19.0762 14.3388 19.0489 14.366L14.366 19.0489C14.3388 19.0761 14.3065 19.0977 14.2709 19.1124C14.2353 19.127 14.1971 19.1346 14.1586 19.1345ZM20.2409 22.9756C20.1661 22.9756 20.0912 22.9472 20.034 22.89C20.0067 22.8628 19.985 22.8305 19.9702 22.7949C19.9554 22.7593 19.9478 22.7211 19.9478 22.6826C19.9478 22.6441 19.9554 22.6059 19.9702 22.5703C19.985 22.5347 20.0067 22.5024 20.034 22.4752L20.1915 22.3177C20.2187 22.2905 20.251 22.2689 20.2865 22.2542C20.3221 22.2394 20.3602 22.2319 20.3986 22.2319C20.4371 22.2319 20.4752 22.2394 20.5107 22.2542C20.5463 22.2689 20.5786 22.2905 20.6058 22.3177C20.6331 22.3449 20.6548 22.3772 20.6696 22.4128C20.6844 22.4484 20.692 22.4866 20.692 22.5251C20.692 22.5636 20.6844 22.6018 20.6696 22.6374C20.6548 22.673 20.6331 22.7053 20.6058 22.7325L20.4483 22.89C20.4211 22.9172 20.3887 22.9388 20.3531 22.9535C20.3175 22.9682 20.2794 22.9757 20.2409 22.9756ZM21.7694 22.2668C21.6941 22.2668 21.6192 22.238 21.562 22.1808C21.5347 22.1536 21.513 22.1213 21.4982 22.0858C21.4834 22.0502 21.4758 22.0121 21.4758 21.9736C21.4758 21.9351 21.4834 21.897 21.4982 21.8614C21.513 21.8259 21.5347 21.7936 21.562 21.7665L21.7195 21.609C21.834 21.494 22.0198 21.494 22.1338 21.609C22.1611 21.6361 22.1828 21.6684 22.1976 21.7039C22.2124 21.7395 22.22 21.7776 22.22 21.8161C22.22 21.8546 22.2124 21.8927 22.1976 21.9283C22.1828 21.9638 22.1611 21.9961 22.1338 22.0233L21.9763 22.1808C21.9492 22.208 21.9169 22.2297 21.8814 22.2444C21.8459 22.2592 21.8079 22.2668 21.7694 22.2668ZM21.7694 20.4395C21.6941 20.4395 21.6192 20.4111 21.562 20.3539C21.5071 20.2989 21.4762 20.2243 21.4762 20.1465C21.4762 20.0687 21.5071 19.9941 21.562 19.9391L21.7195 19.7816C21.834 19.6667 22.0198 19.6672 22.1343 19.7816C22.2487 19.8961 22.2487 20.0819 22.1343 20.1964L21.9763 20.3539C21.9492 20.3811 21.9169 20.4027 21.8814 20.4173C21.8459 20.432 21.8078 20.4396 21.7694 20.4395ZM23.36 21.2744C23.302 21.2744 23.2453 21.2571 23.1971 21.2249C23.1489 21.1926 23.1113 21.1468 23.0891 21.0932C23.0669 21.0396 23.0611 20.9806 23.0724 20.9238C23.0837 20.8669 23.1117 20.8146 23.1526 20.7735L23.3106 20.6161C23.3378 20.5888 23.3701 20.5672 23.4057 20.5525C23.4412 20.5378 23.4793 20.5302 23.5178 20.5302C23.5562 20.5302 23.5943 20.5378 23.6299 20.5525C23.6654 20.5672 23.6977 20.5888 23.7249 20.6161C23.7522 20.6432 23.7739 20.6756 23.7887 20.7111C23.8035 20.7467 23.8111 20.7849 23.8111 20.8234C23.8111 20.862 23.8035 20.9001 23.7887 20.9357C23.7739 20.9713 23.7522 21.0036 23.7249 21.0308L23.5674 21.1883C23.5402 21.2156 23.5079 21.2373 23.4723 21.2521C23.4367 21.2669 23.3986 21.2744 23.36 21.2744ZM21.8477 24.8347C21.7728 24.8347 21.698 24.8059 21.6408 24.7487C21.6134 24.7215 21.5918 24.6892 21.577 24.6536C21.5622 24.618 21.5545 24.5798 21.5545 24.5413C21.5545 24.5027 21.5622 24.4646 21.577 24.429C21.5918 24.3934 21.6134 24.3611 21.6408 24.3339L21.7983 24.1764C21.8255 24.1492 21.8577 24.1276 21.8933 24.1128C21.9288 24.0981 21.9669 24.0905 22.0054 24.0905C22.0439 24.0905 22.082 24.0981 22.1175 24.1128C22.1531 24.1276 22.1854 24.1492 22.2125 24.1764C22.2399 24.2036 22.2615 24.2359 22.2763 24.2714C22.2911 24.307 22.2988 24.3451 22.2988 24.3837C22.2989 24.4222 22.2913 24.4604 22.2766 24.496C22.2619 24.5316 22.2403 24.5639 22.213 24.5912L22.0555 24.7487C22.0004 24.8038 21.9256 24.8347 21.8477 24.8347ZM23.5493 25.0235C23.474 25.0235 23.3992 24.9952 23.3419 24.9379C23.287 24.8829 23.2561 24.8083 23.2561 24.7306C23.2561 24.6528 23.287 24.5782 23.3419 24.5232L23.4994 24.3657C23.6144 24.2512 23.7998 24.2512 23.9142 24.3657C24.0287 24.4801 24.0287 24.666 23.9142 24.7804L23.7567 24.9379C23.7295 24.9652 23.6971 24.9867 23.6616 25.0014C23.626 25.0161 23.5878 25.0236 23.5493 25.0235ZM22.9506 23.228C22.8926 23.2279 22.8359 23.2107 22.7877 23.1784C22.7395 23.1462 22.7019 23.1004 22.6797 23.0468C22.6576 22.9932 22.6517 22.9342 22.663 22.8773C22.6743 22.8204 22.7023 22.7681 22.7432 22.7271L22.9007 22.5696C22.9558 22.5147 23.0304 22.4838 23.1081 22.4838C23.1859 22.4838 23.2605 22.5147 23.3155 22.5696C23.3705 22.6246 23.4013 22.6992 23.4013 22.777C23.4013 22.8548 23.3705 22.9294 23.3155 22.9844L23.158 23.1419C23.1308 23.1692 23.0985 23.1908 23.0629 23.2056C23.0273 23.2204 22.9892 23.228 22.9506 23.228Z" fill="#01875F"/>
</svg>
