<svg width="37" height="33" viewBox="0 0 37 33" fill="none" xmlns="http://www.w3.org/2000/svg">
<path d="M23.4961 29.7H28.9183C29.877 29.7 30.7964 29.3523 31.4743 28.7335C32.1522 28.1146 32.5331 27.2752 32.5331 26.4V21.45C32.5331 21.0124 32.7235 20.5927 33.0625 20.2833C33.4014 19.9738 33.8611 19.8 34.3405 19.8C34.8198 19.8 35.2796 19.9738 35.6185 20.2833C35.9575 20.5927 36.1479 21.0124 36.1479 21.45V26.4C36.1479 28.1504 35.3862 29.8292 34.0304 31.0669C32.6746 32.3046 30.8357 33 28.9183 33H7.22958C5.31217 33 3.4733 32.3046 2.11749 31.0669C0.761685 29.8292 0 28.1504 0 26.4V21.45C0 21.0124 0.190421 20.5927 0.529373 20.2833C0.868325 19.9738 1.32804 19.8 1.80739 19.8C2.28674 19.8 2.74646 19.9738 3.08541 20.2833C3.42437 20.5927 3.61479 21.0124 3.61479 21.45V26.4C3.61479 27.2752 3.99563 28.1146 4.67353 28.7335C5.35144 29.3523 6.27087 29.7 7.22958 29.7H12.6518C13.1311 29.7 13.5908 29.8738 13.9298 30.1833C14.2687 30.4927 14.4592 30.9124 14.4592 31.35C14.4592 31.7876 14.2687 32.2073 13.9298 32.5167C13.5908 32.8262 13.1311 33 12.6518 33H23.4961C23.0168 33 22.5571 32.8262 22.2181 32.5167C21.8791 32.2073 21.6887 31.7876 21.6887 31.35C21.6887 30.9124 21.8791 30.4927 22.2181 30.1833C22.5571 29.8738 23.0168 29.7 23.4961 29.7ZM3.61479 11.55C3.61479 11.9876 3.42437 12.4073 3.08541 12.7167C2.74646 13.0262 2.28674 13.2 1.80739 13.2C1.32804 13.2 0.868325 13.0262 0.529373 12.7167C0.190421 12.4073 0 11.9876 0 11.55V6.6C0 4.84957 0.761685 3.17084 2.11749 1.9331C3.4733 0.695355 5.31217 0 7.22958 0L12.6518 0C13.1311 0 13.5908 0.173839 13.9298 0.483274C14.2687 0.792709 14.4592 1.21239 14.4592 1.65C14.4592 2.08761 14.2687 2.50729 13.9298 2.81673C13.5908 3.12616 13.1311 3.3 12.6518 3.3H7.22958C6.27087 3.3 5.35144 3.64768 4.67353 4.26655C3.99563 4.88542 3.61479 5.72479 3.61479 6.6V11.55ZM32.5331 11.55V6.6C32.5331 5.72479 32.1522 4.88542 31.4743 4.26655C30.7964 3.64768 29.877 3.3 28.9183 3.3H23.4961C23.0168 3.3 22.5571 3.12616 22.2181 2.81673C21.8791 2.50729 21.6887 2.08761 21.6887 1.65C21.6887 1.21239 21.8791 0.792709 22.2181 0.483274C22.5571 0.173839 23.0168 0 23.4961 0L28.9183 0C30.8357 0 32.6746 0.695355 34.0304 1.9331C35.3862 3.17084 36.1479 4.84957 36.1479 6.6V11.55C36.1479 11.9876 35.9575 12.4073 35.6185 12.7167C35.2796 13.0262 34.8198 13.2 34.3405 13.2C33.8611 13.2 33.4014 13.0262 33.0625 12.7167C32.7235 12.4073 32.5331 11.9876 32.5331 11.55Z" fill="white"/>
</svg>
