<svg width="15" height="15" viewBox="0 0 15 15" fill="none" xmlns="http://www.w3.org/2000/svg">
<path fill-rule="evenodd" clip-rule="evenodd" d="M9.68418 0.883363C9.3795 -0.160991 7.88289 -0.160991 7.57821 0.883363C7.22779 2.08566 6.87565 2.76752 6.40267 3.2405C5.92969 3.71348 5.24783 4.06562 4.04553 4.41604C3.00118 4.72072 3.00118 6.21734 4.04553 6.52201C5.24783 6.87243 5.92969 7.22458 6.40267 7.69756C6.87565 8.17054 7.22779 8.85239 7.57821 10.0547C7.88289 11.099 9.3795 11.099 9.68418 10.0547C10.0346 8.85239 10.3867 8.17054 10.8597 7.69756C11.3327 7.22458 12.0146 6.87243 13.2169 6.52201C14.2612 6.21734 14.2612 4.72072 13.2169 4.41604C12.0146 4.06562 11.3327 3.71348 10.8597 3.2405C10.3867 2.76752 10.0346 2.08566 9.68418 0.883363ZM7.62309 4.46092C8.03911 4.04577 8.36191 3.56243 8.6312 3.004C8.90048 3.56243 9.22328 4.04577 9.6393 4.46092C10.0553 4.87694 10.5378 5.19974 11.0962 5.46903C10.5378 5.73831 10.0553 6.06111 9.6393 6.47713C9.22328 6.89314 8.90048 7.37562 8.6312 7.93405C8.36191 7.37562 8.03911 6.89314 7.62309 6.47713C7.20794 6.06111 6.7246 5.73831 6.16618 5.46903C6.7246 5.19974 7.20794 4.87694 7.62309 4.46092Z" fill="#60635E" stroke="#DADADA" stroke-width="0.2"/>
<path fill-rule="evenodd" clip-rule="evenodd" d="M4.18791 10.4111C3.9635 10.7632 3.80469 11.067 3.71061 11.351C3.65969 11.502 3.62862 11.6479 3.61567 11.792C3.60618 11.8922 3.60618 11.9923 3.61567 12.0924C3.62862 12.2365 3.66055 12.3824 3.71061 12.5352C3.80469 12.8183 3.9635 13.1212 4.18791 13.4734C4.21294 13.5131 4.23797 13.5528 4.26472 13.5925C4.45029 13.8747 4.09124 14.2346 3.81073 14.0491C3.77016 14.0223 3.73046 13.9964 3.69162 13.9714C3.34034 13.7461 3.03739 13.5864 2.75516 13.4924C2.60411 13.4414 2.45911 13.4104 2.31584 13.3974C2.21658 13.3879 2.11732 13.3879 2.0172 13.3974C1.87393 13.4104 1.72893 13.4414 1.57789 13.4924C1.29565 13.5864 0.992702 13.7461 0.641419 13.9714C0.60258 13.9964 0.562877 14.0223 0.523174 14.0491C0.241803 14.2346 -0.116385 13.8747 0.0691824 13.5925C0.0950754 13.5519 0.120968 13.5131 0.145998 13.4734C0.366952 13.1255 0.5249 12.8252 0.618115 12.5447C0.668175 12.3945 0.70011 12.2504 0.713057 12.1079C0.722551 12.0018 0.722551 11.8973 0.712193 11.7912C0.697521 11.6488 0.664723 11.5046 0.612937 11.3545C0.517133 11.0757 0.356596 10.777 0.131326 10.4309C0.106296 10.3921 0.0795396 10.3533 0.0527834 10.3136C-0.135373 10.033 0.218499 9.66882 0.501597 9.85179C0.542163 9.87769 0.581865 9.90358 0.621568 9.92775C0.979756 10.1522 1.28702 10.3101 1.57357 10.4025C1.72634 10.4517 1.87307 10.4819 2.01893 10.4931C2.11301 10.5008 2.20622 10.5008 2.3003 10.4922C2.44617 10.4793 2.59289 10.4482 2.7448 10.3973C3.03049 10.3023 3.33689 10.1409 3.69162 9.91308C3.73046 9.88805 3.77016 9.86215 3.81073 9.8354C4.09124 9.64983 4.45029 10.0097 4.26472 10.292C4.24919 10.3153 4.23451 10.3377 4.21984 10.3602C4.20948 10.3774 4.19826 10.3938 4.18791 10.4111Z" fill="#60635E"/>
</svg>
