<svg width="24" height="24" viewBox="0 0 24 24" fill="none" xmlns="http://www.w3.org/2000/svg">
<path fill-rule="evenodd" clip-rule="evenodd" d="M9.03916 21.3909L9.03145 21.4325C9.01988 21.5002 8.99118 21.6375 8.97211 21.8073C8.96227 21.8949 8.95294 21.9895 8.95354 22.0848C8.95425 22.1804 8.96592 22.2746 8.97606 22.3625C8.99544 22.5317 9.021 22.6696 9.03185 22.7372C9.04707 22.8312 9.09931 22.8891 9.10874 22.8931C9.12274 22.8988 9.13704 22.9017 9.15195 22.9038L9.16473 22.9044C9.23411 22.9044 9.29031 22.8481 9.29031 22.7787C9.29031 22.7787 9.29487 22.7542 9.29761 22.7372C9.30857 22.6696 9.33402 22.5317 9.3535 22.3625C9.36354 22.2746 9.37521 22.1804 9.37592 22.0848C9.37663 21.9895 9.36719 21.8949 9.35735 21.8073C9.33828 21.6375 9.30958 21.5002 9.29802 21.4325C9.29802 21.4325 9.29528 21.4163 9.29112 21.3951C9.29 21.3893 9.27671 21.2653 9.16473 21.2653C9.09545 21.2653 9.03916 21.3215 9.03916 21.3909ZM5.24531 5.07987L5.2376 5.12146C5.22603 5.18911 5.19733 5.32646 5.17826 5.49626C5.16842 5.5838 5.15909 5.67843 5.1597 5.77378C5.16041 5.86933 5.17207 5.96357 5.18211 6.05131C5.20159 6.2206 5.22715 6.35855 5.238 6.42611C5.25322 6.52003 5.30536 6.57806 5.31489 6.58201C5.32879 6.58779 5.34319 6.59063 5.3581 6.59266L5.37088 6.59337C5.40419 6.59332 5.43611 6.58006 5.45965 6.5565C5.4832 6.53294 5.49643 6.501 5.49646 6.46769C5.49646 6.46769 5.50102 6.44315 5.50376 6.42611C5.51462 6.35855 5.54018 6.2206 5.55955 6.05131C5.56969 5.96357 5.58136 5.86933 5.58207 5.77378C5.58268 5.67843 5.57335 5.5838 5.56351 5.49626C5.54444 5.32646 5.51573 5.18911 5.50417 5.12146C5.50092 5.10269 5.49839 5.09032 5.49727 5.08403C5.48682 5.02773 5.42525 4.95419 5.37088 4.95419C5.3015 4.95419 5.24531 5.01049 5.24531 5.07987ZM6.63313 2.11078L6.62552 2.15237C6.61396 2.22003 6.58515 2.35727 6.56608 2.52707C6.55625 2.61471 6.54691 2.70935 6.54762 2.8047C6.54823 2.90015 6.5599 2.99448 6.57004 3.08222C6.58941 3.25152 6.61498 3.38936 6.62593 3.45692C6.64104 3.55095 6.69764 3.59467 6.73193 3.61282C6.64226 3.57661 6.69501 3.62419 6.75871 3.62419C6.79201 3.62416 6.82395 3.61092 6.84751 3.58738C6.87107 3.56384 6.88433 3.53192 6.88439 3.49861L6.87962 3.50338C6.88469 3.48948 6.88885 3.47406 6.89159 3.45702C6.90254 3.38947 6.928 3.25152 6.94748 3.08222C6.95752 2.99448 6.96918 2.90015 6.96989 2.8047C6.9706 2.70935 6.96127 2.61471 6.95143 2.52707C6.93236 2.35727 6.90356 2.22003 6.89199 2.15237C6.88875 2.13351 6.88631 2.12113 6.8851 2.11494C6.87465 2.05865 6.81308 1.98511 6.75871 1.98511C6.7254 1.98516 6.69348 1.99842 6.66994 2.02198C6.64639 2.04554 6.63316 2.07748 6.63313 2.11078ZM23.0598 10.8438L23.0522 10.8854C23.0406 10.953 23.0119 11.0903 22.9929 11.2601C22.983 11.3477 22.9736 11.4423 22.9743 11.5377C22.975 11.6332 22.9867 11.7275 22.9967 11.8152C23.0162 11.9845 23.0417 12.1225 23.0526 12.19C23.0678 12.2839 23.1217 12.3573 23.1855 12.3573C23.2188 12.3572 23.2507 12.344 23.2743 12.3204C23.2978 12.2968 23.311 12.2649 23.3111 12.2316C23.3111 12.2316 23.3155 12.2071 23.3184 12.19C23.3292 12.1225 23.3548 11.9845 23.3742 11.8152C23.3843 11.7275 23.396 11.6332 23.3967 11.5377C23.3973 11.4423 23.388 11.3477 23.3781 11.2601C23.359 11.0904 23.3303 10.953 23.3188 10.8854C23.3155 10.8666 23.313 10.8542 23.3119 10.8479C23.3014 10.7916 23.2399 10.7181 23.1855 10.7181C23.1522 10.7181 23.1202 10.7314 23.0967 10.7549C23.0731 10.7785 23.0598 10.8105 23.0598 10.8438ZM22.6124 21.3909L22.6048 21.4325C22.5932 21.5002 22.5644 21.6375 22.5453 21.8073C22.5355 21.8949 22.5262 21.9895 22.5269 22.0848C22.5276 22.1804 22.5393 22.2746 22.5493 22.3625C22.5688 22.5317 22.5942 22.6696 22.6052 22.7372C22.6204 22.8312 22.6743 22.9044 22.7381 22.9044C22.7714 22.9044 22.8033 22.8911 22.8268 22.8675C22.8504 22.844 22.8636 22.8121 22.8636 22.7787C22.8636 22.7787 22.8681 22.7542 22.8708 22.7372C22.8818 22.6696 22.9074 22.5317 22.9267 22.3625C22.9369 22.2746 22.9485 22.1804 22.9492 22.0848C22.9499 21.9895 22.9405 21.8949 22.9307 21.8073C22.9116 21.6375 22.8828 21.5002 22.8713 21.4325C22.8681 21.4137 22.8656 21.4014 22.8645 21.3951C22.854 21.3388 22.7924 21.2653 22.7381 21.2653C22.6687 21.2653 22.6124 21.3215 22.6124 21.3909Z" fill="#01875F"/>
<path fill-rule="evenodd" clip-rule="evenodd" d="M8.51238 21.9515C8.43053 21.9655 8.34522 22.0306 8.34522 22.0847C8.34522 22.1541 8.40141 22.2103 8.47079 22.2103C8.47079 22.2103 8.64942 22.2504 8.88718 22.2774C8.97472 22.2873 9.06946 22.2965 9.16471 22.2959C9.26026 22.2952 9.35449 22.2837 9.44233 22.2735C9.67928 22.2459 9.85862 22.2103 9.85862 22.2103C9.87554 22.211 9.89241 22.2083 9.90824 22.2023C9.92407 22.1962 9.93852 22.1871 9.95073 22.1754C9.96294 22.1637 9.97265 22.1496 9.97929 22.134C9.98592 22.1184 9.98934 22.1017 9.98934 22.0847C9.98934 22.0678 9.98592 22.0511 9.97929 22.0355C9.97265 22.0199 9.96294 22.0058 9.95073 21.9941C9.93852 21.9824 9.92407 21.9732 9.90824 21.9672C9.89241 21.9612 9.87554 21.9585 9.85862 21.9592V21.9656C9.84566 21.9586 9.83158 21.954 9.81703 21.9519C9.74948 21.941 9.61153 21.9155 9.44233 21.8961C9.35449 21.8859 9.26026 21.8743 9.16471 21.8736C9.06946 21.8729 8.97482 21.8823 8.88718 21.8921C8.71738 21.9112 8.58004 21.9399 8.51238 21.9515ZM4.71853 5.64041C4.63668 5.65441 4.55127 5.71953 4.55127 5.77369C4.55132 5.807 4.56458 5.83892 4.58815 5.86247C4.61171 5.88601 4.64364 5.89924 4.67695 5.89927C4.67695 5.89927 4.85557 5.93934 5.09323 5.96632C5.18087 5.97626 5.27551 5.98549 5.37086 5.98488C5.46641 5.98417 5.56064 5.97261 5.64838 5.96246C5.88544 5.93487 6.06477 5.89927 6.06477 5.89927C6.09808 5.89927 6.13002 5.88604 6.15357 5.86249C6.17712 5.83894 6.19035 5.807 6.19035 5.77369C6.19035 5.74039 6.17712 5.70845 6.15357 5.6849C6.13002 5.66135 6.09808 5.64812 6.06477 5.64812V5.65451C6.05181 5.64757 6.03774 5.64293 6.02318 5.64081C5.95563 5.62996 5.81768 5.6044 5.64838 5.58492C5.56064 5.57488 5.46641 5.56322 5.37086 5.56251C5.27551 5.5619 5.18087 5.57123 5.09323 5.58107C4.92353 5.60014 4.78619 5.62885 4.71853 5.64041ZM6.10646 2.67132C6.0245 2.68532 5.9392 2.75044 5.9392 2.80461C5.9392 2.87389 5.99549 2.93018 6.06477 2.93018C6.06477 2.93018 6.2434 2.97025 6.48116 2.99723C6.5688 3.00717 6.66344 3.0164 6.75868 3.01569C6.85423 3.01508 6.94847 3.00352 7.03631 2.99328C7.27326 2.96579 7.4527 2.93018 7.4527 2.93018C7.4854 2.92925 7.51645 2.91561 7.53925 2.89215C7.56205 2.8687 7.57481 2.83727 7.57481 2.80456C7.57481 2.77184 7.56205 2.74042 7.53925 2.71696C7.51645 2.6935 7.4854 2.67986 7.4527 2.67893V2.68532C7.43969 2.67842 7.42559 2.67382 7.41101 2.67173C7.34345 2.66077 7.2056 2.63531 7.03631 2.61584C6.94847 2.6058 6.85423 2.59413 6.75868 2.59342C6.66344 2.59271 6.5688 2.60204 6.48116 2.61198C6.31136 2.63105 6.17412 2.65976 6.10646 2.67132ZM22.5331 11.4043C22.4513 11.4183 22.3659 11.4834 22.3659 11.5376C22.3659 11.5709 22.3792 11.6028 22.4028 11.6264C22.4263 11.6499 22.4583 11.6631 22.4916 11.6632C22.4916 11.6632 22.6702 11.7032 22.9078 11.7302C22.9955 11.7402 23.0901 11.7494 23.1855 11.7488C23.2809 11.7481 23.3753 11.7365 23.463 11.7263C23.7 11.6988 23.8794 11.6632 23.8794 11.6632C23.9118 11.6619 23.9425 11.6481 23.965 11.6247C23.9875 11.6013 24 11.5701 24 11.5376C24 11.5051 23.9875 11.4739 23.965 11.4505C23.9425 11.4271 23.9118 11.4133 23.8794 11.412V11.4184C23.8664 11.4115 23.8523 11.4069 23.8378 11.4047C23.7702 11.3939 23.6323 11.3683 23.463 11.3488C23.3753 11.3388 23.2809 11.3271 23.1855 11.3264C23.0901 11.3258 22.9955 11.3351 22.9078 11.345C22.738 11.364 22.6008 11.3928 22.5331 11.4043ZM22.0857 21.9515C22.0039 21.9655 21.9185 22.0306 21.9185 22.0847C21.9185 22.1541 21.9748 22.2103 22.044 22.2103C22.044 22.2103 22.2227 22.2504 22.4604 22.2774C22.5481 22.2873 22.6427 22.2965 22.738 22.2959C22.8335 22.2952 22.9278 22.2837 23.0156 22.2735C23.2526 22.2459 23.432 22.2103 23.432 22.2103C23.4653 22.2103 23.4972 22.1971 23.5208 22.1735C23.5443 22.15 23.5575 22.118 23.5575 22.0847C23.5575 22.0514 23.5443 22.0195 23.5208 21.996C23.4972 21.9724 23.4653 21.9592 23.432 21.9592V21.9656C23.419 21.9586 23.4049 21.954 23.3903 21.9519C23.3227 21.941 23.1849 21.9155 23.0156 21.8961C22.9278 21.8859 22.8335 21.8743 22.738 21.8736C22.6427 21.8729 22.5481 21.8823 22.4604 21.8921C22.2906 21.9112 22.1534 21.9399 22.0857 21.9515ZM9.98379 15.7679C9.91326 16.1518 9.92913 16.5466 10.0302 16.9236L10.9456 20.3395C11.0651 20.7856 11.2999 21.1924 11.6265 21.519C11.9531 21.8456 12.3599 22.0805 12.806 22.2L16.7732 23.263C17.1502 23.3641 17.545 23.3799 17.9288 23.3095L16.2904 17.1946C15.9065 17.2651 15.5117 17.2493 15.1347 17.1481L9.98379 15.7679ZM21.447 12.6964L17.6762 16.4671C17.4002 16.7432 17.0663 16.9543 16.6986 17.0852L18.3371 23.2001C18.7048 23.0692 19.0387 22.858 19.3146 22.582L22.2188 19.6778C22.5454 19.3512 22.7802 18.9444 22.8998 18.4983C23.0193 18.0522 23.0194 17.5825 22.8998 17.1364L21.9845 13.7205C21.8836 13.3434 21.7 12.9936 21.447 12.6964ZM10.0931 15.3596L15.2441 16.7399C15.6185 16.8402 16.0128 16.8402 16.3873 16.7399C16.7617 16.6395 17.1032 16.4424 17.3773 16.1683L21.1481 12.3976C20.8509 12.1445 20.5011 11.9609 20.1241 11.86L16.1569 10.7969C15.7108 10.6774 15.241 10.6774 14.7949 10.797C14.3488 10.9165 13.942 11.1514 13.6154 11.478L10.7113 14.3821C10.4352 14.658 10.2241 14.992 10.0931 15.3596Z" fill="#01875F"/>
<path fill-rule="evenodd" clip-rule="evenodd" d="M10.0923 18.7881L9.62196 17.033C9.48325 16.5152 9.48326 15.9701 9.622 15.4523C9.76074 14.9345 10.0333 14.4624 10.4123 14.0833L12.3611 12.1346C12.3297 11.8402 12.2488 11.5532 12.1218 11.2859L7.50361 13.9522C7.16565 14.1474 6.78844 14.2649 6.39939 14.2962V20.6267C6.78844 20.5955 7.16564 20.478 7.50361 20.2828L10.0923 18.7881ZM0.254195 11.2859C0.0867518 11.6384 -8.1321e-05 12.0238 5.71464e-08 12.4141V15.9506C1.25025e-05 16.4125 0.121597 16.8662 0.352533 17.2662C0.583469 17.6662 0.91562 17.9983 1.3156 18.2292L4.8725 20.2828C5.21046 20.478 5.58767 20.5955 5.97672 20.6267V14.2962C5.58766 14.265 5.21045 14.1474 4.8725 13.9522L0.254195 11.2859ZM0.465584 10.9199L5.08379 13.5862C5.41948 13.7801 5.80033 13.8822 6.188 13.8821C6.56929 13.8821 6.95059 13.7835 7.29222 13.5862L11.9105 10.9199C11.6889 10.5986 11.3986 10.3306 11.0605 10.1356L7.50361 8.08195C7.10362 7.85105 6.6499 7.72949 6.18805 7.72949C5.7262 7.72949 5.27249 7.85105 4.8725 8.08195L1.3156 10.1356C0.977536 10.3306 0.687164 10.5986 0.465584 10.9199Z" fill="#01875F"/>
<path fill-rule="evenodd" clip-rule="evenodd" d="M12.7292 11.7665L13.3165 11.1791L13.3167 11.1789L14.4257 7.03994C14.0131 6.89643 13.6382 6.66135 13.3293 6.35231L9.15988 2.18296C8.87427 2.51359 8.66721 2.90458 8.55422 3.32663C8.21558 4.59022 7.87699 5.85382 7.53845 7.11743C7.49763 7.26959 7.46934 7.42483 7.45386 7.5816C7.54298 7.62214 7.63008 7.667 7.71485 7.716L11.2717 9.76954C11.6404 9.98242 11.9606 10.27 12.2115 10.6139C12.4625 10.9578 12.6388 11.3504 12.7292 11.7665ZM13.8719 10.7398C14.226 10.5212 14.6211 10.3773 15.0328 10.317C15.4445 10.2566 15.8642 10.2811 16.2662 10.3888L20.2334 11.4517C20.2845 11.4654 20.3352 11.4804 20.3855 11.4968C20.554 11.2395 20.6803 10.9571 20.7598 10.66L21.7756 6.86922C21.8887 6.44722 21.9049 6.00506 21.8227 5.57594L16.1273 7.10202C15.7053 7.21525 15.2632 7.23141 14.834 7.14928L13.8719 10.7398ZM9.45881 1.88413L13.6282 6.05349C13.9352 6.36058 14.3177 6.58142 14.7372 6.69383C15.1567 6.80623 15.5984 6.80624 16.0179 6.69384L21.7134 5.16766C21.5699 4.75499 21.3349 4.38016 21.0259 4.07126L17.8029 0.848384C17.4434 0.48886 16.9955 0.230305 16.5044 0.0987053C16.0133 -0.0328943 15.4962 -0.0329018 15.005 0.0986832L10.6025 1.27836C10.1804 1.39133 9.7894 1.59843 9.45881 1.88413Z" fill="#01875F"/>
</svg>
