<svg width="24" height="23" viewBox="0 0 24 23" fill="none" xmlns="http://www.w3.org/2000/svg">
<path d="M19.0781 11.25C15.8294 11.25 13.176 8.78039 12.8211 5.625H2.10938C0.946219 5.625 0 6.57122 0 7.73438V20.3906C0 21.5538 0.946219 22.5 2.10938 22.5H20.4844C21.6475 22.5 22.5938 21.5538 22.5938 20.3906V10.1788C21.5873 10.854 20.3785 11.25 19.0781 11.25ZM16.2656 12.6562C16.6539 12.6562 16.9688 12.9711 16.9688 13.3594C16.9688 13.7477 16.6539 14.0625 16.2656 14.0625C15.8773 14.0625 15.5625 13.7477 15.5625 13.3594C15.5625 12.9711 15.8773 12.6562 16.2656 12.6562ZM13.4531 12.6562C13.8414 12.6562 14.1562 12.9711 14.1562 13.3594C14.1562 13.7477 13.8414 14.0625 13.4531 14.0625C13.0648 14.0625 12.75 13.7477 12.75 13.3594C12.75 12.9711 13.0648 12.6562 13.4531 12.6562ZM9.84375 18.9844C9.84375 19.373 9.52927 19.6875 9.14062 19.6875H3.51562C3.12698 19.6875 2.8125 19.373 2.8125 18.9844V17.5781C2.8125 16.3666 3.42848 15.2962 4.36387 14.6638C3.84188 14.1529 3.51562 13.4429 3.51562 12.6562C3.51562 11.1051 4.77698 9.84375 6.32812 9.84375C7.87927 9.84375 9.14062 11.1051 9.14062 12.6562C9.14062 13.4429 8.81437 14.1529 8.29238 14.6638C9.22777 15.2962 9.84375 16.3666 9.84375 17.5781V18.9844ZM19.0781 19.6875H13.4531C13.0645 19.6875 12.75 19.373 12.75 18.9844C12.75 18.5957 13.0645 18.2812 13.4531 18.2812H19.0781C19.4668 18.2812 19.7812 18.5957 19.7812 18.9844C19.7812 19.373 19.4668 19.6875 19.0781 19.6875ZM19.0781 16.875H13.4531C13.0645 16.875 12.75 16.5605 12.75 16.1719C12.75 15.7832 13.0645 15.4688 13.4531 15.4688H19.0781C19.4668 15.4688 19.7812 15.7832 19.7812 16.1719C19.7812 16.5605 19.4668 16.875 19.0781 16.875ZM19.0781 14.0625C18.6898 14.0625 18.375 13.7477 18.375 13.3594C18.375 12.9711 18.6898 12.6562 19.0781 12.6562C19.4664 12.6562 19.7812 12.9711 19.7812 13.3594C19.7812 13.7477 19.4664 14.0625 19.0781 14.0625Z" fill="#01875F"/>
<path d="M6.32812 11.25C5.55291 11.25 4.92188 11.881 4.92188 12.6562C4.92188 13.4315 5.55291 14.0625 6.32812 14.0625C7.10334 14.0625 7.73438 13.4315 7.73438 12.6562C7.73438 11.881 7.10334 11.25 6.32812 11.25ZM6.32812 15.4688C5.16497 15.4688 4.21875 16.415 4.21875 17.5781V18.2812H8.4375V17.5781C8.4375 16.415 7.49128 15.4688 6.32812 15.4688ZM19.0312 0C16.3176 0 14.1562 2.20823 14.1562 4.92188C14.1562 7.63552 16.3645 9.84375 19.0781 9.84375C21.7918 9.84375 24 7.63552 24 4.92188C24 2.20823 21.7449 0 19.0312 0ZM21.6846 4.01273L18.8721 6.82523C18.5975 7.09987 18.1525 7.09987 17.8778 6.82523L16.4716 5.41898C16.197 5.14434 16.197 4.69936 16.4716 4.42472C16.7462 4.15008 17.1912 4.15008 17.4659 4.42472L18.375 5.33386L20.6904 3.01847C20.965 2.74383 21.41 2.74383 21.6847 3.01847C21.9593 3.29311 21.9593 3.73809 21.6846 4.01273Z" fill="#01875F"/>
</svg>
